<mxfile host="192.168.10.69" agent="Mozilla/5.0 (Windows NT 10.0; Win64; x64) AppleWebKit/537.36 (KHTML, like Gecko) Chrome/122.0.6261.95 Safari/537.36" version="24.7.8" pages="2">
  <diagram id="1JJ-UvxjRfw-XplDersZ" name="颐德大厦">
    <mxGraphModel dx="-3985" dy="-4935" grid="1" gridSize="10" guides="1" tooltips="1" connect="1" arrows="1" fold="1" page="1" pageScale="1" pageWidth="1169" pageHeight="827" math="0" shadow="0">
      <root>
        <mxCell id="0" />
        <mxCell id="1" parent="0" />
        <mxCell id="CCUyxIGd_fQrxWlsNQA1-5" value="" style="sketch=0;pointerEvents=1;shadow=0;dashed=0;html=1;strokeColor=#006EAF;fillColor=#1ba1e2;labelPosition=center;verticalLabelPosition=bottom;outlineConnect=0;verticalAlign=top;align=center;shape=mxgraph.office.clouds.private_cloud;fontColor=#ffffff;" parent="1" vertex="1">
          <mxGeometry x="5910" y="6650" width="109.03" height="67" as="geometry" />
        </mxCell>
        <mxCell id="SccVvb-rEeI0xyhP3Zdu-2" value="" style="edgeStyle=elbowEdgeStyle;rounded=0;orthogonalLoop=1;jettySize=auto;elbow=vertical;html=1;" edge="1" parent="1" source="CCUyxIGd_fQrxWlsNQA1-6" target="CCUyxIGd_fQrxWlsNQA1-12">
          <mxGeometry relative="1" as="geometry" />
        </mxCell>
        <mxCell id="CCUyxIGd_fQrxWlsNQA1-6" value="&lt;font style=&quot;font-size: 15px;&quot;&gt;院网防火墙&lt;/font&gt;&lt;div&gt;&lt;font style=&quot;font-size: 15px;&quot;&gt;172.16.1.1/29&lt;/font&gt;&lt;/div&gt;" style="sketch=0;points=[[0.015,0.015,0],[0.985,0.015,0],[0.985,0.985,0],[0.015,0.985,0],[0.25,0,0],[0.5,0,0],[0.75,0,0],[1,0.25,0],[1,0.5,0],[1,0.75,0],[0.75,1,0],[0.5,1,0],[0.25,1,0],[0,0.75,0],[0,0.5,0],[0,0.25,0]];verticalLabelPosition=bottom;html=1;verticalAlign=top;aspect=fixed;align=center;pointerEvents=1;shape=mxgraph.cisco19.rect;prIcon=firewall;fillColor=#FAFAFA;strokeColor=#005073;fontSize=15;fontColor=#FF0000;labelBackgroundColor=none;labelBorderColor=none;textShadow=1;" parent="1" vertex="1">
          <mxGeometry x="6150" y="6730" width="106.25" height="83" as="geometry" />
        </mxCell>
        <mxCell id="CCUyxIGd_fQrxWlsNQA1-7" value="" style="sketch=0;pointerEvents=1;shadow=0;dashed=0;html=1;strokeColor=#006EAF;fillColor=#1ba1e2;labelPosition=center;verticalLabelPosition=bottom;outlineConnect=0;verticalAlign=top;align=center;shape=mxgraph.office.clouds.private_cloud;fontColor=#ffffff;" parent="1" vertex="1">
          <mxGeometry x="5908.969999999999" y="6827" width="109.03" height="67" as="geometry" />
        </mxCell>
        <mxCell id="CCUyxIGd_fQrxWlsNQA1-8" style="edgeStyle=orthogonalEdgeStyle;rounded=0;orthogonalLoop=1;jettySize=auto;html=1;entryX=0.5;entryY=0;entryDx=0;entryDy=0;entryPerimeter=0;" parent="1" source="CCUyxIGd_fQrxWlsNQA1-5" target="CCUyxIGd_fQrxWlsNQA1-6" edge="1">
          <mxGeometry relative="1" as="geometry" />
        </mxCell>
        <mxCell id="CCUyxIGd_fQrxWlsNQA1-9" style="edgeStyle=orthogonalEdgeStyle;rounded=0;orthogonalLoop=1;jettySize=auto;html=1;entryX=0.5;entryY=1;entryDx=0;entryDy=0;entryPerimeter=0;" parent="1" source="CCUyxIGd_fQrxWlsNQA1-7" target="CCUyxIGd_fQrxWlsNQA1-6" edge="1">
          <mxGeometry relative="1" as="geometry" />
        </mxCell>
        <mxCell id="CCUyxIGd_fQrxWlsNQA1-10" value="移动专线50M *1" style="text;strokeColor=none;align=center;fillColor=none;html=1;verticalAlign=middle;whiteSpace=wrap;rounded=0;" parent="1" vertex="1">
          <mxGeometry x="5916.77" y="6717" width="95.49" height="30" as="geometry" />
        </mxCell>
        <mxCell id="CCUyxIGd_fQrxWlsNQA1-11" value="电信拨号宽带1000M *2" style="text;strokeColor=none;align=center;fillColor=none;html=1;verticalAlign=middle;whiteSpace=wrap;rounded=0;" parent="1" vertex="1">
          <mxGeometry x="5924.51" y="6894" width="80" height="30" as="geometry" />
        </mxCell>
        <mxCell id="SccVvb-rEeI0xyhP3Zdu-3" value="" style="edgeStyle=elbowEdgeStyle;rounded=0;orthogonalLoop=1;jettySize=auto;elbow=vertical;html=1;" edge="1" parent="1" source="CCUyxIGd_fQrxWlsNQA1-12" target="CCUyxIGd_fQrxWlsNQA1-6">
          <mxGeometry relative="1" as="geometry" />
        </mxCell>
        <mxCell id="CCUyxIGd_fQrxWlsNQA1-12" value="网络准入&lt;div&gt;172.16.1.4/24&lt;/div&gt;" style="sketch=0;points=[[0.015,0.015,0],[0.985,0.015,0],[0.985,0.985,0],[0.015,0.985,0],[0.25,0,0],[0.5,0,0],[0.75,0,0],[1,0.25,0],[1,0.5,0],[1,0.75,0],[0.75,1,0],[0.5,1,0],[0.25,1,0],[0,0.75,0],[0,0.5,0],[0,0.25,0]];verticalLabelPosition=bottom;html=1;verticalAlign=top;aspect=fixed;align=center;pointerEvents=1;shape=mxgraph.cisco19.rect;prIcon=asa_5500;fillColor=#FAFAFA;strokeColor=#005073;fontColor=#FF0000;textShadow=1;" parent="1" vertex="1">
          <mxGeometry x="6320" y="6731.5" width="102.4" height="80" as="geometry" />
        </mxCell>
        <mxCell id="CCUyxIGd_fQrxWlsNQA1-13" style="edgeStyle=orthogonalEdgeStyle;rounded=0;orthogonalLoop=1;jettySize=auto;html=1;entryX=1;entryY=0.5;entryDx=0;entryDy=0;entryPerimeter=0;shape=link;" parent="1" source="CCUyxIGd_fQrxWlsNQA1-12" target="CCUyxIGd_fQrxWlsNQA1-6" edge="1">
          <mxGeometry relative="1" as="geometry" />
        </mxCell>
        <mxCell id="CCUyxIGd_fQrxWlsNQA1-15" value="无线AP" style="points=[[0.03,0.36,0],[0.18,0,0],[0.5,0.34,0],[0.82,0,0],[0.97,0.36,0],[1,0.67,0],[0.975,0.975,0],[0.5,1,0],[0.025,0.975,0],[0,0.67,0]];verticalLabelPosition=bottom;sketch=0;html=1;verticalAlign=top;aspect=fixed;align=center;pointerEvents=1;shape=mxgraph.cisco19.wireless_access_point;fillColor=#005073;strokeColor=none;labelBorderColor=none;textShadow=1;fontColor=#FF0000;" parent="1" vertex="1">
          <mxGeometry x="6288.72" y="7210" width="63" height="63" as="geometry" />
        </mxCell>
        <mxCell id="SccVvb-rEeI0xyhP3Zdu-4" value="" style="edgeStyle=elbowEdgeStyle;rounded=0;orthogonalLoop=1;jettySize=auto;elbow=vertical;html=1;" edge="1" parent="1" source="CCUyxIGd_fQrxWlsNQA1-19" target="CCUyxIGd_fQrxWlsNQA1-12">
          <mxGeometry relative="1" as="geometry" />
        </mxCell>
        <mxCell id="CCUyxIGd_fQrxWlsNQA1-19" value="核心交换机&lt;div&gt;172.16.1.2/29&lt;/div&gt;" style="shape=mxgraph.cisco.misc.route_switch_processor;html=1;dashed=0;fillColor=#036897;strokeColor=#ffffff;strokeWidth=2;verticalLabelPosition=bottom;verticalAlign=top;rounded=0;shadow=0;comic=0;fontFamily=Verdana;fontSize=14;fontColor=#FF0000;textShadow=1;" parent="1" vertex="1">
          <mxGeometry x="6487.030000000001" y="6731" width="100" height="80.75" as="geometry" />
        </mxCell>
        <mxCell id="CCUyxIGd_fQrxWlsNQA1-20" style="edgeStyle=orthogonalEdgeStyle;rounded=0;orthogonalLoop=1;jettySize=auto;html=1;entryX=1;entryY=0.5;entryDx=0;entryDy=0;entryPerimeter=0;shape=link;" parent="1" source="CCUyxIGd_fQrxWlsNQA1-19" target="CCUyxIGd_fQrxWlsNQA1-12" edge="1">
          <mxGeometry relative="1" as="geometry">
            <mxPoint x="6821.279999999999" y="6771.5" as="targetPoint" />
          </mxGeometry>
        </mxCell>
        <mxCell id="IgskItTwagF8Hw9iGol8-10" value="" style="edgeStyle=elbowEdgeStyle;rounded=0;orthogonalLoop=1;jettySize=auto;elbow=vertical;html=1;" edge="1" parent="1" source="CCUyxIGd_fQrxWlsNQA1-21" target="CCUyxIGd_fQrxWlsNQA1-14">
          <mxGeometry relative="1" as="geometry" />
        </mxCell>
        <mxCell id="CCUyxIGd_fQrxWlsNQA1-21" value="无线控制器" style="sketch=0;points=[[0.015,0.015,0],[0.985,0.015,0],[0.985,0.985,0],[0.015,0.985,0],[0.25,0,0],[0.5,0,0],[0.75,0,0],[1,0.25,0],[1,0.5,0],[1,0.75,0],[0.75,1,0],[0.5,1,0],[0.25,1,0],[0,0.75,0],[0,0.5,0],[0,0.25,0]];verticalLabelPosition=bottom;html=1;verticalAlign=top;align=center;pointerEvents=1;shape=mxgraph.cisco19.rect;prIcon=wireless_lan_controller;fillColor=#FAFAFA;strokeColor=#005073;textShadow=1;fontColor=#FF0000;" parent="1" vertex="1">
          <mxGeometry x="6274.489999999999" y="6960" width="91.47" height="51.47" as="geometry" />
        </mxCell>
        <mxCell id="fN2F7W3fRNILgMKWuYlW-5" style="edgeStyle=orthogonalEdgeStyle;rounded=0;orthogonalLoop=1;jettySize=auto;html=1;" edge="1" parent="1" source="CCUyxIGd_fQrxWlsNQA1-22" target="CCUyxIGd_fQrxWlsNQA1-38">
          <mxGeometry relative="1" as="geometry">
            <Array as="points">
              <mxPoint x="6770" y="6610" />
            </Array>
          </mxGeometry>
        </mxCell>
        <mxCell id="fN2F7W3fRNILgMKWuYlW-6" style="edgeStyle=orthogonalEdgeStyle;rounded=0;orthogonalLoop=1;jettySize=auto;html=1;" edge="1" parent="1" source="CCUyxIGd_fQrxWlsNQA1-22" target="CCUyxIGd_fQrxWlsNQA1-37">
          <mxGeometry relative="1" as="geometry">
            <Array as="points">
              <mxPoint x="6770" y="6480" />
            </Array>
          </mxGeometry>
        </mxCell>
        <mxCell id="CCUyxIGd_fQrxWlsNQA1-22" value="服务器交换机" style="shape=mxgraph.cisco.switches.workgroup_switch;sketch=0;html=1;pointerEvents=1;dashed=0;fillColor=#036897;strokeColor=#ffffff;strokeWidth=2;verticalLabelPosition=bottom;verticalAlign=top;align=center;outlineConnect=0;fontSize=13;fontColor=#FF0000;textShadow=1;" parent="1" vertex="1">
          <mxGeometry x="6683.96" y="6746.38" width="146.04" height="50" as="geometry" />
        </mxCell>
        <mxCell id="CCUyxIGd_fQrxWlsNQA1-23" style="edgeStyle=orthogonalEdgeStyle;rounded=0;orthogonalLoop=1;jettySize=auto;html=1;entryX=1;entryY=0.5;entryDx=0;entryDy=0;entryPerimeter=0;shape=link;" parent="1" source="CCUyxIGd_fQrxWlsNQA1-22" target="CCUyxIGd_fQrxWlsNQA1-19" edge="1">
          <mxGeometry relative="1" as="geometry" />
        </mxCell>
        <mxCell id="CCUyxIGd_fQrxWlsNQA1-24" style="edgeStyle=orthogonalEdgeStyle;rounded=0;orthogonalLoop=1;jettySize=auto;html=1;exitX=0.98;exitY=0.5;exitDx=0;exitDy=0;exitPerimeter=0;entryX=0;entryY=0.5;entryDx=0;entryDy=0;entryPerimeter=0;" parent="1" source="CCUyxIGd_fQrxWlsNQA1-22" target="CCUyxIGd_fQrxWlsNQA1-36" edge="1">
          <mxGeometry relative="1" as="geometry" />
        </mxCell>
        <mxCell id="IgskItTwagF8Hw9iGol8-12" value="Text" style="edgeLabel;html=1;align=center;verticalAlign=middle;resizable=0;points=[];" vertex="1" connectable="0" parent="CCUyxIGd_fQrxWlsNQA1-24">
          <mxGeometry x="-0.1896" relative="1" as="geometry">
            <mxPoint as="offset" />
          </mxGeometry>
        </mxCell>
        <mxCell id="IgskItTwagF8Hw9iGol8-13" value="192.168.10.0/24" style="edgeLabel;html=1;align=center;verticalAlign=middle;resizable=0;points=[];" vertex="1" connectable="0" parent="CCUyxIGd_fQrxWlsNQA1-24">
          <mxGeometry x="-0.1084" y="3" relative="1" as="geometry">
            <mxPoint as="offset" />
          </mxGeometry>
        </mxCell>
        <mxCell id="CCUyxIGd_fQrxWlsNQA1-25" value="财务系统" style="points=[[0.03,0.03,0],[0.5,0,0],[0.97,0.03,0],[1,0.4,0],[0.97,0.745,0],[0.5,1,0],[0.03,0.745,0],[0,0.4,0]];verticalLabelPosition=bottom;sketch=0;html=1;verticalAlign=top;aspect=fixed;align=center;pointerEvents=1;shape=mxgraph.cisco19.workstation;fillColor=#005073;strokeColor=none;textShadow=1;" parent="1" vertex="1">
          <mxGeometry x="7230" y="6780" width="34.37" height="27.5" as="geometry" />
        </mxCell>
        <mxCell id="CCUyxIGd_fQrxWlsNQA1-27" value="网络服务" style="points=[[0.03,0.03,0],[0.5,0,0],[0.97,0.03,0],[1,0.4,0],[0.97,0.745,0],[0.5,1,0],[0.03,0.745,0],[0,0.4,0]];verticalLabelPosition=bottom;sketch=0;html=1;verticalAlign=top;aspect=fixed;align=center;pointerEvents=1;shape=mxgraph.cisco19.workstation;fillColor=#005073;strokeColor=none;textShadow=1;" parent="1" vertex="1">
          <mxGeometry x="7230" y="6704" width="34.37" height="27.5" as="geometry" />
        </mxCell>
        <mxCell id="fN2F7W3fRNILgMKWuYlW-9" style="edgeStyle=orthogonalEdgeStyle;rounded=0;orthogonalLoop=1;jettySize=auto;html=1;" edge="1" parent="1" source="CCUyxIGd_fQrxWlsNQA1-29" target="CCUyxIGd_fQrxWlsNQA1-30">
          <mxGeometry relative="1" as="geometry">
            <Array as="points">
              <mxPoint x="6993" y="6995" />
              <mxPoint x="6993" y="6995" />
            </Array>
          </mxGeometry>
        </mxCell>
        <mxCell id="CCUyxIGd_fQrxWlsNQA1-29" value="存储服务器" style="fontColor=#FF0000;verticalAlign=top;verticalLabelPosition=bottom;labelPosition=center;align=center;html=1;outlineConnect=0;fillColor=#CCCCCC;strokeColor=#6881B3;gradientColor=none;gradientDirection=north;strokeWidth=2;shape=mxgraph.networks.server_storage;textShadow=1;" parent="1" vertex="1">
          <mxGeometry x="6940" y="6926.86" width="105" height="42.14" as="geometry" />
        </mxCell>
        <mxCell id="CCUyxIGd_fQrxWlsNQA1-30" value="扩展柜" style="fontColor=#FF0000;verticalAlign=top;verticalLabelPosition=bottom;labelPosition=center;align=center;html=1;outlineConnect=0;fillColor=#CCCCCC;strokeColor=#6881B3;gradientColor=none;gradientDirection=north;strokeWidth=2;shape=mxgraph.networks.tape_storage;textShadow=1;" parent="1" vertex="1">
          <mxGeometry x="6941.900000000001" y="7040.000000000001" width="105" height="34" as="geometry" />
        </mxCell>
        <mxCell id="fN2F7W3fRNILgMKWuYlW-8" style="edgeStyle=orthogonalEdgeStyle;rounded=0;orthogonalLoop=1;jettySize=auto;html=1;" edge="1" parent="1" source="CCUyxIGd_fQrxWlsNQA1-36" target="CCUyxIGd_fQrxWlsNQA1-29">
          <mxGeometry relative="1" as="geometry">
            <Array as="points">
              <mxPoint x="6994" y="6873" />
              <mxPoint x="6994" y="6873" />
            </Array>
          </mxGeometry>
        </mxCell>
        <mxCell id="CCUyxIGd_fQrxWlsNQA1-36" value="超融合" style="fontColor=#FF0000;verticalAlign=top;verticalLabelPosition=bottom;labelPosition=center;align=center;html=1;outlineConnect=0;fillColor=#CCCCCC;strokeColor=#6881B3;gradientColor=none;gradientDirection=north;strokeWidth=2;shape=mxgraph.networks.server;textShadow=1;" parent="1" vertex="1">
          <mxGeometry x="6939.999999999999" y="6723.879999999999" width="108.8" height="95" as="geometry" />
        </mxCell>
        <mxCell id="CCUyxIGd_fQrxWlsNQA1-37" value="终端管控&lt;div&gt;IP-GUARD&lt;/div&gt;" style="image;sketch=0;aspect=fixed;html=1;points=[];align=center;fontSize=12;image=img/lib/mscae/WebHosting.svg;fontColor=#FF0000;textShadow=1;labelBackgroundColor=none;" parent="1" vertex="1">
          <mxGeometry x="6940.000000000001" y="6430" width="80" height="80" as="geometry" />
        </mxCell>
        <mxCell id="CCUyxIGd_fQrxWlsNQA1-38" value="终端杀毒平台&lt;div&gt;EDR&lt;/div&gt;" style="image;sketch=0;aspect=fixed;html=1;points=[];align=center;fontSize=12;image=img/lib/mscae/WebHosting.svg;fontColor=#FF0000;textShadow=1;labelBackgroundColor=none;" parent="1" vertex="1">
          <mxGeometry x="6940.000000000001" y="6560" width="80" height="80" as="geometry" />
        </mxCell>
        <mxCell id="fN2F7W3fRNILgMKWuYlW-7" value="文件服务器" style="points=[[0.03,0.03,0],[0.5,0,0],[0.97,0.03,0],[1,0.4,0],[0.97,0.745,0],[0.5,1,0],[0.03,0.745,0],[0,0.4,0]];verticalLabelPosition=bottom;sketch=0;html=1;verticalAlign=top;aspect=fixed;align=center;pointerEvents=1;shape=mxgraph.cisco19.workstation;fillColor=#005073;strokeColor=none;textShadow=1;" vertex="1" parent="1">
          <mxGeometry x="7230" y="6860" width="34.37" height="27.5" as="geometry" />
        </mxCell>
        <mxCell id="fN2F7W3fRNILgMKWuYlW-11" value="业务应用" style="points=[[0.03,0.03,0],[0.5,0,0],[0.97,0.03,0],[1,0.4,0],[0.97,0.745,0],[0.5,1,0],[0.03,0.745,0],[0,0.4,0]];verticalLabelPosition=bottom;sketch=0;html=1;verticalAlign=top;aspect=fixed;align=center;pointerEvents=1;shape=mxgraph.cisco19.workstation;fillColor=#005073;strokeColor=none;textShadow=1;" vertex="1" parent="1">
          <mxGeometry x="7230" y="6941.5" width="34.37" height="27.5" as="geometry" />
        </mxCell>
        <mxCell id="fN2F7W3fRNILgMKWuYlW-12" style="edgeStyle=orthogonalEdgeStyle;rounded=0;orthogonalLoop=1;jettySize=auto;html=1;entryX=0.03;entryY=0.745;entryDx=0;entryDy=0;entryPerimeter=0;" edge="1" parent="1" source="CCUyxIGd_fQrxWlsNQA1-36" target="CCUyxIGd_fQrxWlsNQA1-27">
          <mxGeometry relative="1" as="geometry" />
        </mxCell>
        <mxCell id="fN2F7W3fRNILgMKWuYlW-13" style="edgeStyle=orthogonalEdgeStyle;rounded=0;orthogonalLoop=1;jettySize=auto;html=1;entryX=0.204;entryY=0.4;entryDx=0;entryDy=0;entryPerimeter=0;" edge="1" parent="1" source="CCUyxIGd_fQrxWlsNQA1-36" target="CCUyxIGd_fQrxWlsNQA1-25">
          <mxGeometry relative="1" as="geometry" />
        </mxCell>
        <mxCell id="fN2F7W3fRNILgMKWuYlW-14" style="edgeStyle=orthogonalEdgeStyle;rounded=0;orthogonalLoop=1;jettySize=auto;html=1;entryX=0;entryY=0.4;entryDx=0;entryDy=0;entryPerimeter=0;" edge="1" parent="1" source="CCUyxIGd_fQrxWlsNQA1-36" target="fN2F7W3fRNILgMKWuYlW-7">
          <mxGeometry relative="1" as="geometry" />
        </mxCell>
        <mxCell id="fN2F7W3fRNILgMKWuYlW-15" style="edgeStyle=orthogonalEdgeStyle;rounded=0;orthogonalLoop=1;jettySize=auto;html=1;entryX=0;entryY=0.4;entryDx=0;entryDy=0;entryPerimeter=0;" edge="1" parent="1" source="CCUyxIGd_fQrxWlsNQA1-36" target="fN2F7W3fRNILgMKWuYlW-11">
          <mxGeometry relative="1" as="geometry" />
        </mxCell>
        <mxCell id="IgskItTwagF8Hw9iGol8-1" value="&lt;span style=&quot;color: rgb(0, 0, 0); font-family: Helvetica; font-size: 11px; font-style: normal; font-variant-ligatures: normal; font-variant-caps: normal; font-weight: 400; letter-spacing: normal; orphans: 2; text-align: center; text-indent: 0px; text-transform: none; widows: 2; word-spacing: 0px; -webkit-text-stroke-width: 0px; white-space: nowrap; background-color: rgb(255, 255, 255); text-decoration-thickness: initial; text-decoration-style: initial; text-decoration-color: initial; display: inline !important; float: none;&quot;&gt;192.168.18.0/23&lt;/span&gt;" style="edgeStyle=elbowEdgeStyle;rounded=0;orthogonalLoop=1;jettySize=auto;elbow=horizontal;html=1;" edge="1" parent="1" source="CCUyxIGd_fQrxWlsNQA1-14" target="CCUyxIGd_fQrxWlsNQA1-15">
          <mxGeometry relative="1" as="geometry" />
        </mxCell>
        <mxCell id="CCUyxIGd_fQrxWlsNQA1-40" value="14楼层交换机" style="shape=mxgraph.cisco.switches.workgroup_switch;sketch=0;html=1;pointerEvents=1;dashed=0;fillColor=#036897;strokeColor=#ffffff;strokeWidth=2;verticalLabelPosition=bottom;verticalAlign=top;align=center;outlineConnect=0;fontSize=13;fontColor=#FF0000;textShadow=1;" parent="1" vertex="1">
          <mxGeometry x="6612.080524681776" y="6960" width="95.95947531822395" height="36.0599999999998" as="geometry" />
        </mxCell>
        <mxCell id="CCUyxIGd_fQrxWlsNQA1-41" value="13楼层交换机" style="shape=mxgraph.cisco.switches.workgroup_switch;sketch=0;html=1;pointerEvents=1;dashed=0;fillColor=#036897;strokeColor=#ffffff;strokeWidth=2;verticalLabelPosition=bottom;verticalAlign=top;align=center;outlineConnect=0;fontSize=13;fontColor=#FF0000;textShadow=1;" parent="1" vertex="1">
          <mxGeometry x="6448.921251164235" y="6960" width="95.95947531822395" height="36.0599999999998" as="geometry" />
        </mxCell>
        <mxCell id="CCUyxIGd_fQrxWlsNQA1-42" value="" style="group" parent="1" vertex="1" connectable="0">
          <mxGeometry x="6460.953561005899" y="7230" width="71.8948556348954" height="57.89999999999968" as="geometry" />
        </mxCell>
        <mxCell id="CCUyxIGd_fQrxWlsNQA1-43" value="" style="shape=image;verticalLabelPosition=bottom;labelBackgroundColor=default;verticalAlign=top;aspect=fixed;imageAspect=0;image=data:image/png,iVBORw0KGgoAAAANSUhEUgAAACUAAAAlCAYAAADFniADAAAKbklEQVRYCe2Yd1RUVx6As2dPYkVBwI4DGrsx5ZhkE10R6diwQGQtSYyxrFFjjtF1FbOaAgxFOkix4RILKNhQUSMSEMWyogYpImVohiodlG/PvTijwJh1/9hz8sfOOXfmvvvuu++7v37nFX6Hn1d+h0z8V1AVtc1cuFEAra0vtZf6phbqG5upa2x+qfnqSS8F9XOais9cTvH+yoMMcQhjjvNxslUV6jU6/TY1P+bvOy8xaXU0U9dFY7o2ir8FJ1BV29RprraB34TKK6liuftZjOYG08NciY65K11MXdG382VLaKK29eRYbGIGb332T7pN9eS1yS70slDS1cwd242xnEy+/8Ln1DdeCFVUXs+fV0XSdYoSfWsPupm5YeIQJCWQraokI7+SM1fusy08gY+cj+L0TQwb/M8RfzWHa+nF1NS3kJSWj+OWaPRsdqBn5U6PqW4MnrOTkym56vdr/dUKlV9azSznM3Q3c0XfxgMDO2/W+cZzv7CKX3IrWK6Mw3iOP/1mBmI43Y/uZm6y9bH1pv+sIIbM9mf61wc5npQtXxp59g6jF4TSY6qS3pZKBs0OIuriPa1AYrAT1H1VBZNX/Ug3M1cMbD3RsfRkb1waWQXlLHM7jeE0H7pPVdLH2oN+07y0NgMbDymVPna+mK2OJKeoioz8ciatjEDP2hNdSyWD5wQT9ZN2sE5Qn7qcpoupG/o27vS28uTwhXTu5ZVhZO9D1yluGNh60P8pTF87L3pbtqlFqEbYTl87Tw2o6OuYKxloH0hA9HVaW1uZviFKmoKY++7KKPJLqjpJrB1UTMI9+s8MkCrTs/EiIi6NzPxyxizchY6FG/2nt0lGSLCnuRI92x18uGIP85yjcXCOxmxNBANm+dPb2gtdK3cNnJ61O3q2vgTH3ORBURXjFoW12Zi5krW+P70Yqra+iRmbjsmdvTrZlc07L6J6+IihDkHomLcBCQnpWXkw0N6fzz3juJZdSuWjp27eCnUNT7iVW4bPsZuMXhAiwdUqFirVtfUj6VY+t7JKMJjuL9X49tJIcgor24FpJFVaUcu7yw/Q1fQHPlwRQUNTC/O3HpEhQMCIpmPhzthFO7mWWUxlVjkXXJM54LibIx/tJMphJ1GOYSR6XKYouYCy+maWeZ6V3qtWqa6VB+MXhSLetcrjtITubeNN0JFr2qEeSqiDdJ/qwfGfM7iT8xDhTc8v+PZne8gvr+H2/jvsnuLP2WGO3FZ8QO6gUTwYPIbswW9wfvh8Qia4cNnvCk01jSzzPCNtU0hMqP81UyXbd10iLbsUAzsfepi747g5WjtU5aMGLNfH0n+mr9zJou2x0oXFYsK4B88J4BdVBWn7bhH11kbSTd6jUqHgofHrlBiPlK3UZARl+oY8MDBh1/D1xG9PoLqlRapS76m3Cs97Y1EoVTWNMob1tQ+T8e55Ko36xOCVuyq27Ukh5U4hBnY7ZEgQUCK+rA08R82DSsIm+pJh8g4VQxQUmYx+1oaOQWVgxK+zP6J64SLyDYw58N52VFeKiLuZK7OAtC87L/rPCpTvOnzhF7wPXX+eR/bbQYkRkbdiEjLQtfGRdmRo54nhdB9u3n/ImS3xXDSZSbnC+BnMU7BCQyPKFi6htaVFLtywbi1X9Sdw6PPDlFfV8+7S3TJwCrCe5u6s8oiTyboTkbbgKSY5hyWia71DurSIQ2Zr91NZ08iRWYHkGI2jxHhEJyiV/iAqVqzWvKPh0GEKeg8g/E1niq8XMXfbURlQBVS3Ka4ywWsmd+h0kpS4P9f5hEwx6gWE6irv/UrkZDcKFaMoNhnZCapI0TZWsWodlWvXU/LOB5QNMuLcmysoSC1l5+k0DKb5yo2KQLt4e2wHlGeXWqEcth7T7KrrFFfWBJ8n53Qm4W/+g0KTsdqhho6hSDEKld5AVLoDKBw8nHJjExLeXkHxzTJ+uqvCcIZ/G5S5EqetR55RdOhphXLadkIT+HqYubHE7SSNNU3ETPdBNXiEdqjnjd5kNMUmoyg1GU7U2DXkJqlYHXgeXeu2jCAS+JLvj3dAeXapFWr/mdsy4gr16dt4MswxkLziag457eW24k+UKYZ2Vl8HqFLj4WQq3iHcwp+K3ArsNh7SmISQ/sffnXhG0aHXDqr1yROSbhdyLDGT7lPbcpdMulZeHEi8R/qxDA6N+ZJi4xEyLrULCe2gRlGlMCJu2AIuB6WSX13HkLmBMt6Jjfax8yH46HWZbkRu7fhpByVKVouvolGVPmL8ohBNUhUZfeKqCJrrm9m3IIpLw2bKOFUqvXBUO6mJscohQ0gwmc6P8yJprG7kC9+zGtWJQKyYF0xxWS3fhF1k7tZTPHnSvubXQCXcyGXYX/bRzUwpq8eQ2OuyL3Ymmp6NN99FptBSWsuP8/ZxdPhS8ozH8avx65QPUcjYVaEwJlfxBvEjnAizDKckKY/42wX0sfXB0LatpBGeZ7/xIA8r6xjptJM+0/w5lZzVTlgaqNMp2Rg7htHF9AfmbY7mUV0jo52CNNISO+xt7c23kZdpKqkhwSWRsImeHB25gsSxC7k0djHnRn1ChKknh1cdo7WsgeTMEgbZ+2kKQmEK3c09iE/Nwe/wVbqJStTGh72nbmmHqm9swfzLKHpZKqWoL1x/ICe/avqscBN1lPCgT91OkppVQm3eI7LO5JAel8Pd49lkxefSUFBHcXktysPXeH1+qCz8RCIWVUaXKUrW+8XT0Ngs86EojQfMDiYuua1sVpNpJCUGvgm9SFczpVzow+X7eFhRx4aAC1KN6mpBqFKUwwNn+eL0fSwRCemkZJdwOauEmNQcPnE7wbjFIfQw95CFnBqop4U7HyzbS01dI5tDEmQcFGeAec7HePwimxJQucWVTFx16OmRyA2bryIl/Hr/83KX4hAhdizAhI10neKCvp03A2cHydZvZoA8QKgrArU9/nHSD0xauV9WBtt3J9HNzB19a3dM5ocTd7m9PYkXtpOUGAiNvUEfO2EH7vSydGdTcAKP6prYGHCeAfaBiBgj1Kh+Yd9pXghbUTfNuJ0oCpWyXlrjHY+o17aFX0LHyhtDWw9em+IuKxK56w5fnaDEff8jN9Cz9ZFgr052wfSvEeSWVJOeVyETab8ZvvS0eHpisfZADSYkKbxLx8JDPm+5NpKTSVk0Nj9hc8gleSAVQD0tvXBwjqWsqrYDTtulVihxK/xUOvrT/NCzUkqJiXNbZHw6j1vh7oMyvt2TxIyvDzJh6T6M5oWgcAhl/Cd7mb0pmg0B50i+XYg40IYev8X4xWGyXBEqEydlx2+OS+/WSqRNfc9PDDj6L0zm75I2JirGXlZeTFiyi01BFzgv/ugACkqrSb5dQModlTwbirGbmSV4HUzlrY/DpMH3tlDKckXhEMZX/hepbfjtPzxeKCk13I3MUqZtjJFS07HawR8nKzG0D8PzwFVaHj9RT2v3m5RWwPtfHOUPE13oZemJ4YwAZm85yamUvHbzXnTxH6HEgy2PWzl0IYOAqFT8DqcSl5LzovU04yKnfa48wwr308QkdvYwzUQtnZeC0vLc/3To/1AvK95/A9GoclphejwTAAAAAElFTkSuQmCC;" parent="CCUyxIGd_fQrxWlsNQA1-42" vertex="1">
          <mxGeometry x="49.83046569388371" y="36.499999999999794" width="21.39999999999988" height="21.39999999999988" as="geometry" />
        </mxCell>
        <mxCell id="CCUyxIGd_fQrxWlsNQA1-44" value="" style="group" parent="CCUyxIGd_fQrxWlsNQA1-42" vertex="1" connectable="0">
          <mxGeometry width="71.89485563489586" height="57.89999999999968" as="geometry" />
        </mxCell>
        <mxCell id="CCUyxIGd_fQrxWlsNQA1-45" value="PC" style="points=[[0.03,0.03,0],[0.5,0,0],[0.97,0.03,0],[1,0.4,0],[0.97,0.745,0],[0.5,1,0],[0.03,0.745,0],[0,0.4,0]];verticalLabelPosition=bottom;sketch=0;html=1;verticalAlign=top;aspect=fixed;align=center;pointerEvents=1;shape=mxgraph.cisco19.workstation;fillColor=#005073;strokeColor=none;textShadow=1;" parent="CCUyxIGd_fQrxWlsNQA1-44" vertex="1">
          <mxGeometry x="1.08" width="69.72999999999962" height="55.78999999999969" as="geometry" />
        </mxCell>
        <mxCell id="CCUyxIGd_fQrxWlsNQA1-46" value="" style="shape=image;verticalLabelPosition=bottom;labelBackgroundColor=default;verticalAlign=top;imageAspect=0;image=data:image/png,iVBORw0KGgoAAAANSUhEUgAAAIMAAACMCAYAAABfyxqzAAAAAXNSR0IArs4c6QAAAARnQU1BAACxjwv8YQUAAAAJcEhZcwAAFxEAABcRAcom8z8AAE3/SURBVHhe7Z0HWBTX+sZNcpMYuwIqYG8Ilhh7QZC+1KV3EERRVEB6ly5WujTp2LAgTXoRUGxUxZp+c1vuzf3f9Jv+/d8zOzSFqIk11+953meWZXZ2ds5v3+87szPnDPlfDpMuemND6QcK9qUfWpgXvT+Bf/pl/C+FVdndUfaFH6xYX/x+9vqid7/aUP7JD+uL3+uyL/rA0f7UnRnOZXff5Fd9GX/UMD96bYLNqXc1bE/fybAtuPuNXcmHtL7ogx7ZlXxEtmfe/cT2zPuhdvm3FjimtrzOv/Rl/FHC7sy7k21Pv2dgffpuoc3pO2RX9CEa/T2yKbhL7G+R7pJtwbvc83YlH5P16TsfQ6EWBbflNxT+ayS/qZfxoobFkRuzLfNvbrI+ebfC+tQdfPs/QiPfJfbY+iTT7X6y4pZ4Hv+3KXgfUPwZz9352urEnWTr/Jtq1qffG89v+mW8KGF+9MYK8+M3vC3ybzVaF3xANoUfkUX+bbI4fvMRdYssAYdN4cdkcezmt9jGSdPj16zMjl2fzL/Vy3gew+QEvWZ65LoGFG127MYtK0BgCeExmR7t+p26QeaAyerMR4Tt/2Kef6cMzzub5VyX5d/+ZTwPYZNzU8w495q9Sd61HJPD1/9qfQbf4hPvkunhLsLfEFs+DrFtXQcYNwHFx4DsFoOk2TTv2j68vxq/Oy/jWYRxXqeMcW6nt+mRG+VYfmNZ8BGZHb9NJrnXCI3DLZ+U8H4cIBYn3wd477G/P4RyjXPbrazyLo3id/FlPOnQyWlTNMjqSDXM6Wg1zG7/xfzUB2R8+Abh72cjBsax22R+6kMyyOn4t2HOtVr9zA53/ezrM/ldfhmPM6xzO4brZ7db62W0FgqzOt43PHyTjI/eIYPsayTMbIPan7FE+2CYi3Ry/D32+Fu9zPYOvcy2eMOs9jVE9Ar/UV7Gbw1h2uVFuumtUcL01iv6me3/NsyDA+TeIGEGDn5663Mrg6xOMjp8i7DPbF8/Fqa1VOmlt2xSA9T8R3sZDw56xSSxa4Qw+aqWMOVqgTC97RPhodYfDXNu4ADDBQ7hYKe1vDDST28jw+wu7Pt1PG7/Qi+1pV0/rWWP7qHWhYr19Cf+Q7+MvmF8oPktrYOtsropV4N0U65c1jvU9h+9tDZ8s64RW+L5F1qAAI7RwX0enZSrP+G5f+qktJzVTb4q1E5qGvs/D8aS1JbXBXFtEtqJF7V0ky6f0Tl4+f90k678qJfKvv0AIPkK4fknrCtoKPZ+7aKGG3Cdxyu9FOYa7dxSL/nqN3pJl9/VSbyyRzPh8lJhTPsY/vD8b4ROaou4fnzzcp3E5mCthIsdgOBHnYNo+OQW0kHj6CReIu0nqovce+iltAGEdsI+fKWVcOkf7H/CtE7sw9UBXvP4hc/NfWYm7rl47Ef8xQqt5KsWgrjzM3GchvGH7I8VJon1I/TiLslpx13YoJ1woVgnvvlrvUQcDF46CWig+OanoIskTIYTJLcBiCufacdfuKgdd9FJJ7ZRRTvufIpuwqVb2vHNPwtT8M0FoANv4/EL79tzLJiwD3/TTbgYrRPfpCk8eGWyYnD9i51GTE6ceE0jumme5v5Gfa2YCwnQX3QTcIAT8GHjLpJ2bDN0gfD8Exd7L72DsOWDrXhvuEDMhWLNA82W6geax/G7y4XWvgtTtWOao7Rimjuwzn/1kpA+EuAUA2zzcYu9B3dMcGx04hgccAwcH82YC42a0U1Bgj2NitoHaqT5XX0xQm1fw3SN/Q0aOKBhgv2N17Vj2Te/hbSim0nzwHmR9jc9FWlFXxC9N/ZBc//597X2n88R7G0yCQ6mV/ndHTAEcVdnau674CHY31SH132me7ADjXTlKe47f5wOMEDgFvgMeP5Lwb6mEsHeRmf13Q2rVXdXj+Z39/kKjegGSfW9jQKNAxdC1Pecq1Xf1/i9zsF2EgAAjX1NUOPT094GErCDmNCK5XnCvrThud3Yj3X87j506ATXi2vsabQQ7G3Ix7b/qh3fSpqAQvReDf3f9wlLAEC0Yq9wYKvvbfiL+r6mLBzzTRrR59aq7at8tucvBJFlEqq76zTUdp/zVttzrhD6TDuRAXAJO9tI+PupS50dsIR2Ut1d/43a3nMVqnsbfNX21i/id/k3B8vZalHndFX3NMSp7jnXqRkDp0HDcJ9z98D78uTUwH1Ozbir3LHGZ/0A+5SlEVW3TbC7Sd4kuOsNfrefbKgGV0kp7arVUoqsDVSOrCtR3VX/F0H0ZezUZexkI6nuqnsGqkej4ODEtJBKZN2ncIFMPGehuqdKit/txxrqUXVLVCPqfNR2AbbIul80Y64CiIYB9uspKEr02QXYB7ZU2VV/VyWiLk9lV527ani1/JDHfRpc3q9RQimsylAlvDZWJfJcrXJ4zSdqey6AzsugsomUI+qg2qesOjR8PantbQaEzaQUUXsTDRSuHHlObUlw8VPpkimF105dF15thffMVg6v/UJ9H76lUY3cvj2LY8Idj93nSePAFYByjj13C/t4TDm8zlslvH6dmsdvTCXYyEyViNoNSqE12SrhdY3KYTV/ZwddfR8AYB84HB82rObpKhwfGlKJwIfGvvAHvQj/26gSVv0Ov+tPPVR9qkcrh9aoKYcBxrCaW6pRTWiMJuwn9o/tcxjTAJ/nCYo7RgCDtRf+/kUprPZ97GM1vsi7sF/a8lFNY/ndHyBQXa8LOrtGKaTSSym4slA5pKZDKaTqP2q7zmOjzdg4SAupJjwHseXTE3tffBB8qHpuP/Dcp0phNXEKoZWaLG3xn+CZB1dXRNbPVwmpXo/9LVkXUvUdvpHYb8DA9v+ez/XkJWor9v6qkay2wRcotJrWBVf9RTm09qJScEU69tVKJbh6Bv8RROcD1u2s8lgXVPUxlt+qhCP/RcD+Q+oIf9O6oMqnL7yvUjA+UHANPhCEx+t2VtYp7axyUgg8u+A3W95TCsXg0on4Uilgf+Pwef6pzD5Ht3biswz0mZ+C2HFkXyrVyPNo31pSCqr+t+LOytsKQZWa/I7XD10bUF6gFHaOFLGzCoEVhL9J4VkosJIUcbAUgqrwd8XPawMq/qUQUHZIMaB8naJn6URuh1+gYNAqBZbLrPUv3yLvX1Yr71/+zVocX/YZFdlnxOMBj8MTFte+ONbr2Bce7S4fUGHP7TBgGCHvW9aoEFBJa/2wol/Z05U/2zEcmKBqwgFjz325xu9sw1r/s9sVfStmPa2C8AnHK/K+pWOhFfi80Wt9yz5a61/x3Vocc/a52fK+4/IUpOCPLz6OP/bHittLBsMqn9Lzq/0qaJVPGXT2iWs1E95vTUA1t1zlW/7VKu+z76/yPZu02rN4Fdunx94tek5CLvjEG6u9qqTkvUptVnmXVq72PfspjskP7FisCaii1b7lAx6zJyHuvXzLaIVPqR23c4rBJ0as8io5v5qB4FUKlTwxMQjW+FVyWulV8t9VnsV/XuFVUrzSs8RW3vfIWFbIcjv1PxJLHFNfl/crlFvpWRy8yqu4BcfnUwBCa/zxJWENhccDHcfHJmx/tfdZWulxNoI7Rb8EXaMVnsV3VuJJLB+70NCgsJxW4wOu8Cj6GR/8k5UexXUAwXe1a+nvPjv4R4klji2vr/QsEuAYZaz0KOzEsftilW8FnLOKnlTb4IuIL2UprXQvimO9oSFL3IvFl7kVfb/cs5SWuRf9frkV0XJ39kZwGl8A4FVOS92K/7HUo/jiUreiqMVepUrsg/PH4GUMECvd8sct3VHkuNSt8OhS96KOZW6F369kx9K7gpZ7lAx83H+LPIpF23Mriu2BYanrme+WuxXTMtczv107CmmFO7MekOxVwZ771wq3osZlroWpy12LTFgBxX/Wl/EIsdi5YCaOpQ+OYQGO8a1lLmd+XuUDMDzLaTm+eP3a4FGFNlu+g9sGD4PjEfEl209/t8y1iJY6FzyCTnNL9rqVHhVIBxW0dPvp/yx1LaoBXAlLXU6bL3LOl+A/08t4DLHY+fTKpdsLvHBs85c6n7m5zKUQX7xKQAFXdznT0yYPLbyGbWOJ8+leGJZuPfXdMudCWroNG3sonULDFyDXAICtp75e5lxQvWTrqZjlWwssFm86Lcnv+8t4QhEcHPwqYFi9bNspd7TDkSXbTt9e7oL07FrS2z73tdkAQhsu2w4gtvaBYYnTyR+X4kk06MNpWwEtdjr17eItJw8s3nzSVM7xxBR+P1/GUw7F9VlDFzmdXL146ykntGMz9MuSracHbrd7xUFRgMcnRTAscDoydvHm/D8vdcIGNp94KC3ddoYWO5741MTkxNP57fxlPFQsccz3WbzlxA9LndDQA7TbfdpykpZuOUXvbOFhkNt6YsQ7G49fWOx4kt7ZlA8df6AWbzlN7zgc/3Shde4Lc4dQfL3fXK+inSZOZ3y3mud7Rxkf35xonu+UwGR10inB5rRzwnqmAueDbsU+gSGVAZtjzvlrlrevn8Zv4rmPRRuOeb6z8dj3+KIO2G73yRHtjXXf3nhc1LVkMLy98VjToo359LbDcejYA7XI8RRbfipncmIEvx/PVWw+c3GaZf7BLRpZPqmLk22LxWIMKqUSja9PS7L6x8wUq69mptnSnCwbmptlS7LZ62l+DpRnTwsOb6C3jzjQ2zn2Py7Odfji7Ry7T+bl2LSvPGpTZ1qwvcC3wntv4jk3rU8/NXkuP/fbDke9oe9FbTlw2/XTRrQ31l3kcHT3EJMTrw1hDbrA/sj5hRuO0QL7o9CRB2qhwwmab3f0/+ZuOD6f349nGkT0qmley0qV9IMJMnHbm8dFm9+aEGP2pVSiJU1INafRKaY0KsmYRiQa06hEExqdaERjsRx70JTEksxIIhlKtSCJNKx/yJKkMqxIOtuWJuWupylHN9Cck5towaktAGXTLwuOOfxt3UmHDpezW4tiGre75Lc6zOJ345nHgvXHvBbYH/5e1JYDt10/sfWY7PI2chtgMMy3PXxhwfqjNN/2CHT4gVpgd5wtv5CzzlXmNvIMIvgEvWGc/f5ytdTy1AVxEdfH7Vv/19H7TH4ZnWBOw+IMaFi0Lg0/oIelkEbGGNCoWEMaHQcIEoxJDBIHDOKAYTxgmJgCAYaJqZYkfciKpmRY0+RMG5oCTYZ7TIJzSOfYkRTcQ/rYRpp9ajO9fXIzLTq26WuTYsePwqscC5ObNttW37QRIxryzH5TkbM+7DPfNu97UVsO3Hb9xNZbDyhsDltyG1hoXTlcziavgYEwzybvoTR//TEsc586DCyv2Wf8TUI/tX27xsHqi/Njdn82do81DTtgSm/sF9Lre7Xozb06NGwfQNivRyMPCGlEtP79MMAhxA/2wjABMEimWZAkXEE6vRcGDgTmEIBhUq4dTQYMU/I20CSmww40+dhmkjnpRO/kbyHTwk1f7avbdOvwZcfQUxftZqe2OD7ls6z0yjybw6lon1/moaHvbbMBxdqcW/ewDbcJ9mPJPKvsRFBFctZ5JGeV+0DNszlKcpY5X8ha5qhyG3nCwcZjNExum22UeC1CM7Hh46Wxqd+L7d1Ib+4xoNeitCBNemO3Nr25W4fe2qv78DAk9YdBGjBM4mFgrjAJMEjnMMEZAMIkJtQVHAioLaYc3kRT8zbRtLzNNPvoFlI4uZW8Kjf/eKh589/yrmzen3PRSTauzPnpDDAaHPwq2uYE14YP2Y7d686zzjXntqGoWP8nOfOsWFmLXJK1yCFZ8+wHSs4yj+aaZ30rY5Yu+unzCYVJ8Ik3DOMvzNWNvxwqTGj9i2piFc3YF0h/itSjVyI06bVITfrTLm16PUpbBMOe3wBDsjlXV0immffAMDlTBMNkuEJfGJikjgAGgMBgmHpkE00HEDPyHGl6LpQDp8hzok1lTpR+0YlyLjl9mteydXfm1W0LnjgUgEHWLOsk14YP2Y5cm5vn0Hyb9KXcNthlb3PNMvfPxZNzscJcs6wHim1AxizzexmLLC9uI08gBHtrZwoOnN+pE3vhL8KkDloXV0LiUZtpSKgmDQnTpFcjtAEF9BRgYIVkPxiO3g/DDMAwEzDMyNlCs7O20KZiJ8q7uo2OtTlT3uVt/zx8dXvokSan3usNH3cE06uyplnnZM1z0UYP146szWWx7hyLrLn8VoYMkTHKcJE1zSROJhkPlJwp3sw44wdZ0/RAfhOPLQTBZaPU9zZZCmKar2rHXyG9hBZSi6umcREONCREHTBo0ath2gPD8JjSRDcMg6YJliKgaQPAMBswzAIMstlbKLTaiY4wIFpdKL9jBx276tJ25Iqb+aFmh373eD6OCB4CGIwzPpxnfnjANhtIcqb4YhtlfCtrmDmb38yQIbMN0mznGmUQJ8P0B4tb79AvMgbpqXj5Y6ue1fbVz1ffdz5FfX/jz9rsHsmYZqiJpkX60ZBgAWCAQgHCPTCIgNB5dGd4QAHJYLi3gJyM4nEygJiCumEqQJiOmoGlCAbDLMAwJxsCDLMzt5DWcSfKvrSVjl7ZDii208lrbnSsxZVOtrllHb3g/Fgv71+oljtcxiDtI1kTOPxAbTaAZI0yScbgUNcCq7xJ/GbgDMJDunP0D9Ecg3Tilg8S1gMI7HEBy1X8Zn5zoJcwVCWq1lJ9X1ObZjy7R/ICd5+kTsxlWrYng/4Uok9DdsIVQrR6YQgHBP3cQQTDUMDwFmAY8Qgw9HQt0+7vTbBUMRkwTGYw5IpgYD2KqXlwBuYKuUwMBEeaw2oGwCADGGYChrfhDklNIhgOMyCuONPxVlcquuVDp9o9b+Rf2WFz4oTJa/xh+F0xT+uQ7Bxh6t9ljLLub69BJGOQQbOFaZ2zDOJ6YZhrkD4fQGAFNLAw7cHSSyMZfbah1KvcmavfEYr768WVIur3q+1u+EoQe4W7TY/drMvuQmZ3UU8MdxWBEAwQeBheGRQGbREM0Ih9/WEYHQsxGOKNaRyA6HeeIbkPDHCHyRwQovMMUwHElCzAkGNHU3LQtcwFDNC0XAfOFWbkbkSd4EizszfBERwBgsgZZmaIYIg9h1TRB4ajV12QLnZQ0U1fOIT7l3CJPUda3MX5w/GbY45+hvxsvZR/yRhkDtxmA0gG7S2jm1Y2SxDXe6nBTN1Ds+bopnw9lzWybspDaa5+Flt+xG/iN4VKcOkMpfDaArXdjdy9gqIbS0UwaB24SCv3HKahIWaAQa0fDEN4GF67p264F4ZR+wHDAX0aFQ0QOCBEMIjcwYQkeBjGA4YJKUgTqZYk1V03pItgmAIYpgKGqVk8DNn2NDV7A1KDA2qEjTQrG8rZhDphEwpHuAODIXMzzUrfQityt9Ch5q0DwnDsijsVXPOi4i5vOnnVvbig1ft3DT0so5Nkifb4Yq4ea+CB26y/0mguDEBGJyUNMPQOZDpDJ3XKHO3k23N1UgnLh5KMLlxEK+mvC3XTpvObeaRYF1q5Rim0plp970VS23WO2A203B3Ne0W3oOseuELTI0LolZ3oPexErfAwMKCIHLpHBMNw5gwDwcC7g1gCnCHRFO5gRhJc3SA6AykFd5h0yApAAARoagZgyFxP0zLtaBqAmJZlTzOyNtDMbMDAQOAgYK4gcgYGwuwMCDBYnmTdy60cCPfCcPyqO51odafT7Z5UcTeACtq8zhe2eynxh+eRY65m0ja0xzdzdfCtH6C97hcDAtlAKzlyqmLWUH4zgMEgafxszaSaOVqphOVDaY52Gs0SJH0mo5XyyB9AIahCaV1o1S12PyC7J1E1UnRXsTq7q3hPAwngDDoHLpFEGFJEoDJgAAQMBiYGA183cDD0BQK9iTcBg8gd9FBIClFI6nNAjAAQw2OMaCSAGBVnTGPiTWhMgimNSTSjsQBCLNmCxJPZbxmWKCat4BCoGzggkCYABAcDJx4GaFaWA7QRxSIT3CET6SLDkaanb6bl6FXsrXMCBFvRtRwchlOtHnS6zZPKbgfQmXaf9ws6vUV3Nz1izNE4uH+2IOmnOVopA7bX/WJApNFMjaRt/CZEMUM1dfQMtaScWRopNFM9CTr4QM0SpNIM9YNfztBIfqQTT4rB1euUdgKEKIDAbqSFGAwqgEGNh0EDKUN1byWNDd4EGFT6w9BdNzDBHZhDsJ7FKwDiVQDxp9269AaAeGOPHknF6tG0BCFNT9CnRWn6tCLDkFZlQllGtCbLmNZmm5BCjimtyzUl5cPmpHLYgpZkWdD8TCtamG1N0wCD1CH0JqDJ6UgT0NR0e5rOgMgEEJlwB4AwMwMOAc3I2ETTDjnSYqSKgConyr3sBBAeDoYzHd5UfieIAfFBcZv/IwMxQz3pxCyNZNa4A7bX/UqiWZr4Qqsn6PCbEAWziWmq8btmYEPT1RKhhAcLG5umFv8DHofwm3lgKPhVKCkGVd5mN4KKbqat4WDgbrHnxxtgg1EwGJT3lAIGB8CgSkOCAAADohuKEFGq+BNAGIc6QSZOi5amapFipiZpHdYms5NaZFugRZsKdcipmEmXdpTqkcdZIXmX6ZNPuT75lRuQf4UhBVQaUWClMe2sNqGQalM0ohn5V1pgaUHelZbkVWlFLmetaVORLVmftiW9fDtae9ie5qNumJa+AQAAiHQ4A2BYi4LS7rQjRdVtppzLWzgYch8ShoJ2bwDhQxW3A6m4w/fDM22+Wvxhe6iYpppweSa+oA/ffok0A1/+6crxy/lN9MQrU1Xit05TS6apKolQwoOl2rNeOr+NXw12a5mif1kXu7GX3R28LqSKg4ETN76AyBk4GPaxnkQzSYS70JAAFXoFMLwGCMbt0qL5aHj5NE3SOyKg9WcEtAHaXKRB20o00Gga5F4mIJ9KAflXaZJflTYaVZsCq3UosEqXgqr00OBCCq0RUniNPkXUGlBkrSHtqjWi3fUmtAfa32BKMQ3mFNNoTvGNFpTQZImlJcU2WFN0gw3tr7fBerYUWWdHYbX2WNrTrjoHiqrfiNdtotQLDITNlA0Ysi89IgztPlQEICrhEEVtfh8+rENMkU8aO0U57s409dT+bfQrmqaaxNrwfSmVhDn8Znpjikq86hSVJJqsFA/FPZTY+pOUYs/zmxg0FH3OTFvjX9bQc2c3U3AVKYWyu4JF7sAVkHubUC9c4IbH0dx76dvpEf5fzI0WkEqGJpkfF+DbqUFb+UZ3K9cgzwoN8oDc8Zj9vQNiMHiUC8izXJO8KrTJB/Kt1CG/Sl184/UAhBAuIAQU+oDCgMJqDAGGERrVBI1qAihMaW+9Oe07Z077z1nQgQZLQCCCIb7JhhKhlPO2lHbBDj0Fe8q4aE+ZFx0o69JGyrq4iTIvbcZzm/H3b4OhECru9KOqd4PhEAE3K24H954qHiSkFOLemaQU92dR+w3cVvdqinIiW16appQ4ld9Mb0gpxiySVoz9ftK6OJqkGPtQmqyURFKKsXX8JgaMlW7Nb632OZu/lt1gGlRJioEV/C33IhhUwuEIbGCJ3U2kElX/DQrJD9X3nDumEnVJaJrntMypRK3Zq16bvGo0yaOyt9F3lGmQ6wBy42HwqtAk7yod8oUCavUosFZIQbX6FFIPABoMKaIBADQa065GE4pqNKU95wHABQCA5QG4QfR5CMuYJiu4BJaAIbbRBi7BgLClg012lHTenlIu2MMNHCiteSPg2ETpAOH3wlDU4Usl1/yp8nYIloENZZ3evSeFBohJinECaYWYTycrJQ7YTgOJrSutGHNESmWXGL+Z3pgiHz1Dcm3sNUnFBJJUiH2gpETr/XuiQowhv4n7gg0JvNK7JGqNX9kvawOquFvBORgAhXJIDQrHRt4VGv+GVFGvGlm7SXXPeSk2xRC/iSG+lepL0PjlblWC/3Ov1iTPei3yqINq75cnnvephws06JBPDQDinQH6yrdS9wu/Sr0vgir1PkO6+ATp4pPQav1PwqoNPwmvNvokotbkk111xn+OqjP99946sy/31pt9sa/e/AfmDPEXbSj5qj0lXbGn5Mt2lHLJjpIBQRL0pGAo7vCjs9cDqfxmMJW0Bx49UR88+KV2Jidem7g2OkNSMR5twjRwm/WV1LqDJKUQG7xkyQDXXUxYtW+8pHzsaWk0stTamAcoTiT5mAT+5QPGKo9C8zU+ZZ+uDawmeXYLOGBYF1hJKmENSA9IGSFV7yuH12SsC61bM+RXrhBan6U41K1C09L1rEaBa7nGNTjA3XuF1PGuS5nGTbcyjaueFYJLHuUaBXCHFJ9yzYO+lVpb/av1NviX62wMrhDqB1cKF4VV670jklGPImuMFu6uNzbeXWe6eX+96cYD9aYR++vNU6IbLYuiG6yvIFXcimu0/nNCk+3nzBkyWh0pu92RMlscKeOy42OHAWmCKgBDedfO/5Z0Bvjzh2PAmCi/T05SPvqDh2u/GJJeB1eXjxWNy3BvTFDbN3zi2pjYh9mYNOiTko/+UGL13kFnW1nqWzpjlWfJ1bVBddzd12zsB4WdtdyAIOhR3AEUyQq/YSwmtwr1ce4V6nNdS1Vl2bJbW8s15mH5RGeVS7xgOTX+vNXahPO2Gw+et9uPNFGc0mzfknJhw8dpFxx+ONy5jY5cc6ac1q0oINmPVL8fhpLOQKp9N4yqbgR/cLYj+FevLJOUj3HBF/RHKdY+A7Rbr+AMCok/TlgTM+jYmK9Ir43ZzBEz4AZ4MYsRPR70WgY2wMZytzPJa/xraCW77ZsDoQ7uUP4XOETyWv+S+7ozL2qkn98glXJ+g3ra+Y3+6c2bjmZe3nIZzvDp0c7tlN/lSsfanenwVeh3wHD2WhCd+yCCyjp2NtbciRh0yGDuCy0ffYH7srIGv7ftuqUQRwDnL5JroxfzL70/JBX2q6EW+OUhNnR5qmLioMPqrHA7Y7TCu/zTlexWfL8qOEPpL2t8SovQo9DlV/nDRkaT04ysZieTrItb9uVc2Vqbc9npE3YtQ8EtD+6aht8KQ0VXMNXeCaOKayGRwTT4L8VSCtGmSBc//Zo7SCvA/eWjL05STBz8ym7WRcFKf2cNPtBGRLVCzC8oQERX0w4QS93PTF7meubcqoB6Wu3PjS3w0Wrv0oBlvtX3V61/8Mhu3iydc3GrVt7VbQFHLjufhjN8WnQHjd7lBRA8HgmGMqj+vQgGw4flN0LX8m9xX7AfnVBMNv0qDIooHuVjDs1a3ucHqntjwtp90wFDA0fOfRtheYYrGltZscm/5L5YuaPQbSW7Ld+7nFZ4FpWu8ih6ZpfTP09xosVx9OHLLjpHrziHHW/Zce54izuVvedPZzq9HhqG8us7qenDKKroDMmDUwxytRS9Iq0YbYx2+mWwL/UkpVSSlj/gwr9g4GA5R1o+JlGadTvu2whgYEStjd422DUMq9lYAi4F11Z4lv2wdMeZhJVuJS/WkPhPKY60ucw+1upudrrTM/lki/s/zt7yo5Ib/lQICH4Vhms7qeZ2ONXdifxP5bVQA35z98Uk9QPjkMrrRDDck/JZzaeY8N2EddHa/OqDB4hyYuT02wAkzblC7E0JxQOD5ZlXlmwv8F3qUvDzUucCP3bbHv/8yxgkiosdh528tGNtQZt7cEGHdycD4uyNAO4M5GAwVFwPoQsf76XK6+FHiluCB7kohl6ZqBBjy84F9Sn4Re3IzkXIx7wr/mvFY3dIrovRkFSI/7b/RmKxkUSSXhMbOkSxfsBZUZa6Fsos3X4mG86wZZZz2dO5V+APEuzSt/w2D7nTnV5bCzt8Ws8CirIbgezs44Aw1N6CO9yO/KryeuigBfkExZhpkmtjOkQ9iz4wMNdfE30GMDx4HI0Ja6LnoRpt63e+QWQ3/5VUjJXnV7svFjudUlqyrcCd//OJBJvYRHt/0xLt/ef1NPc2blI/0GivFdPspRXbnKoT35yklXApSYfpoEh6yVegq0l6KVBaq0jpTC0pwoz2WP30VndhRpuDXka7vWF6u5Iwq32RVtblZzr4aFGHx/SiDm8nuEP72S4AcCOYylAr9IWhqiuMLny4h6qYO9wexB2WpL4+cfX+XexL3DdVTFJKYQ6/+6GuXZVUTBVH//NY3/MNbIOSa2NPSqkkDNojWOhROXy5c95vnwea6BV2d9cy3wIx5cjGhcphNdaqETXhqpF1Gcq7zjWpRdXfVN1z7kP1PQ1/0djb+C+N/U1faB44/7kguulbwEA6cWzWmYsQP99T92xxbBY8bjpBXmktBCCYftZPb/tGmN72BYD4XD+j/e/6mW2fGGa1v2eQ3XlDP7uz3CC7Pdkw77qrQW6HgM29LYi7+2bfU+VPMtjvESWd/jtKOgP+XnFjJ1XeDAYIvTDU3oyEQ+z6b/X1qEFPHLEvL9rvm95Ckjn8QZow2JnH+wP5Rj4moG/dIL0umeWZTfwKjyVMUIQuCW4ZttK/RFohsNRUMah897qdldVKIVWfKIXW/FM5rPor5fDaH1Qj6rjrI9UPXCLBgYvchBuC6IuiaY5iL7E5p4jBwOZ20gUMumxWuINXSC/pKukmo/EBgjAVAKSxKQuhQ63c5KNwBm5mWjaFsmH2dW7qYqO8m9xMtWxqZeO8Lvyv/Rf97Pb/GmR3/Mcw59qnWN41yGzPFWa2bRVmXl0gyLs0it36x3+kxx5Ewa+WdfnJwRVyznYGfV19O5SqboZxMFR3hdP5D/dSzY2IA5UdHgOOkzEFqQC9w6pul2dLpI5PJsofUORXeXBIr401AkU/c3WDiKpPpRRiVvH//s3BbpyVd86XWOVdunq1b2mAvH9Z1drAiv9TCCj/ViGw4ic2uLVyOJsr4RypRJ4jVYgt2VwK3E/c7Eoo7jpJdgEMm6oHOsDmomKTj5znJv7SiQMY8b0OwU0ZyLkEAIFLMDi6XYLNSstcgk1ZzAARQSKSQVYHYAAsOSJQ2NTL3ATsWQyi9u+Mcq59YZDZ1qWf2RoHRxGqZ16ZvD7rw95rCR9j1H8YPLSsLdAYaeJa9c3QX9Cb4GCovxNFtTcir527saf3Jph+Qa9Irol27XZ50e8R0RWSa2IfftglAPAOnOAaI4ltgKWNX0sRD4q3Xc+MWb695O2V3iV+KzxL2lZ6lfzAzkrKs9PUgdW0lg0gzga25n/a7p1WoM+VUNx1kg8CQjQTXF8geuaQvDdt8FAIu6FgrjEIGH2lnwlImKMAEm5idtFzP+oeavkrq0NQd6wzyep6InVHZUf4dKSK1OobYV823N2FNBFJje/tYWBYDTb5+qS1MQr4Yn/NvtSTlNLQCYg+MGTII9zrIrZ6z0gQlSmNVDGJXbOgEOvB/+uRYoVL0YRlLqcNlrkV5i7dUfjtSu8ybrRTNjQxJ98yWsMGtfbv/kWznBR3sqHw+wMhmnREdNGsCrsaqg8Q6mxCr/1N/YFgUyTeA8RALtEPCg4ICGmEqRuMXgEGHpK+YumGAdKrTqSitga91FZz3cRm1g1/rOM1pKY6vl7dFeaInsTHje/tpqYP9lL1jcis6pbdA85mN14+egYKxgauF6GY+ANcwYH/18OH1NoDXpOU02Av0d9Iro1T559+qFjiWD168TZA4FJYvNSl4JcVnmWiUWO5EUmLuXGL2Q9Yq3xKaY0v+0WzTDSiPHe9A2DovhKKmzzjHiDYxbOAQRUwqLP7LBgQzCHYDG8AQgAgBH2AYC7BgOhxCVZc9oUihc222wtFPzD6agBIup/ru47+IUCSASgyOrHNli70Ztx0Ylse+2h4VddDNapuhHdc+Ggf1d+O+nN9164Bz//MEsS9KSUfEzVJJRN1X/TNCfIxK/h/PXxMVIjRRHr4EhtqkVSMf+ClV93xjuPJpYu3njq0dPvpH5a7l/GjkBbSUrdCbohaBgMbtxipQvSLJg8Eu96BAcHmYFgXJLoaqi8QPeniV4Dgpvw7ABiYQ0DcJKpQb9q4p5a41ym6oegDRg8gbHJzNPh9YsXpPeuKtoH/pXeSPptnO/lqpU7SFSO13I7HOiBaxa3w1XCF1it/iaHarl16/NP3xaS10VaTVbNYvXBq0soDj37T7yz5OAm8uAkwnJKQ+5WrbPhY6Zb/1mLHY45Lt566s8K1lJY6n+EGnYQz9A5NCyCW9wGiZ2RzwMDSBQdDd7rgZk7pvVZSaRAg2I03PSmDAcGlDADB3Z53r0tgeS8U/cDgi0wODB6OvoAMJn49tj57Hfd6bEukq0gn19jya92Ey9Hayc2P9RR99c1dq2pv7Gqv74qKGGwMCKQGdDHj/gO3j+SfevQACIeYxfB/DhqrNxSOfNvx+L7Fm0/+d5lzMRs1lht0Eu5Ay3gglvNALOUHsO6GodcdIK5+EM2UIrpWsqKnfui5eJaljG4guMvr+fstdgMM3h24iVW5wlLkEJrRbOZYUW+jGwpummFAoR3PUocofegc5IvNHokaVC+ZFZ6Dq9tdROv3vl6bbY+lpQS2Xhsn7bgLR1Rjmx5r2qi/FbWu9kZUTM21yAn8U/1CanWMDLqUeagdRCO0/JaQUozVkVYc/GoYFuxE00KHY4nvbD7JjQ+5ePMJWroF6h6BlAHBuQOAYDD0OISohljJQQEgAMUadkUU3EE+AFCwKXv46yVZylBmUHT3MAYCovv2vD2NnEv09jSYS4iKS5Y+uqFgKQQN05M+tDmh8dBwrPG0WWNyPRE4SA8cg4ut1934bBuc2Ou7t4+lbiIDpgVu1ZSsnfRrM8g9etR0RSyv/3RgB2ennqUUYvTYKWr+qUePqYrBQ1kBwv95X7D/ve1wdB8bdxC1Ai3iB5rkgHA62TMk7TIAIRq4ujdlrAAQK/iUwYBYzaeMNehh9C0o1/UBgnMJljLYVdV82lCJ4O/IYl3PvnUEdzNOI9fb4KDonl+62yn48xIMCC59MMdgDQcxt2BwcEUnD0h/DfwcBxS/DdF2Lop6NWz7LFXhPXXYROvxl7/WPNBkyx/GJx5ycsFviK1OHznkSU7ussA2T2+B3eHvF208yQ0yuWgjG3kUMAAIbihaANHjEDwMLF10F5Td9YPIHUpEQLDZagBET0HZnTL6AtEnbbCp+tjl9iKXAAxRAIFpN2oIuIQ6dy/Gee7GHM39F7jJxhkM7Awmk2i2fiY0IDdDPRMalqWPeHzr0dAi8d9yTn0f94qlHi3u9aJeDDfLPQ8BOynGFbYAUjepg6WxMsHu+l+9BP6FiYUeucPnr89rYAOELtxwlBMHBHMHblzi+91hGYBgKaOnfuB7GCxdrGJAwBlEGhwI1u1UZtMchgCEUIAQBhDC2ZyXDaQWCe0CBFFNgAF1wx42L2c1rYsqIsWoQlLaDe0p4qS8t5iUIOV9TCWkvL+EVA6UclLmpRJ9llcpqcdUkC4gEQlw9DwWiQHEpAWomDjAYpoBHoOOwccGIBENQiKa3LzxC9U95wftAbxQMd8mR3G+zeH/LrQ/TgvsjvTCsJENJyxKFYMBcW8PowcIL7gEgwEFpWhCrb5AAIZA9C6C4A47a9DLqKSVwadpQVAqyQTtp+kBITQlwJck/XeQmN8mEvOHAhxpXIADjQ5YT6MD7Wh0kD2nMUEbaOzODSS204HGBW/kJBayicRDHUmCKWQzpwlhUOgWmghJhm2lSeFuNJmTO03BckaEN8ntCqeFu/bQgl276e1d+2lFVBqtisqk1ZDyvkIetrNcmmJ3l6uz4hbSTuxAb6jRmT+cL3AEB7863/aw3zzrvJ8X2B0VwWDfFwhRqhABwaeLbb3pYiAgWP0wEBBrfNn0ihUAopzWBJTSPL8Ukvb2JjFPWxrjaUojPA1omKceDfXUoTc9teh1LwG95qXO6VVvDXrVR0Cv+mpCWpA2vQK95q9Dr/np0OsBuvSnQD16gylIn94MZDKgoYGG9FaQIQ3nZEQjgoxpZLd2GtOonSY0GhoTbEbiwdY0PtiGJIJtofU0EWBJBm8i6WBHmhy6naZAU0NdaFqIG80M8SK50BCaHxpJi3alkn3mgdJLHzupF7R6rspv85Mou+v8Zn198J/YD1T8kX4BgsFgnRsxzyb3J26I4fVsCOH+QHTXDhwQDIZ7gOjpbvJAsIKS62H063Ky09bltMznFE31jKSxbutplJseDd8hoKE7VGmoG+SuBmkABAEHw1AmL4ABveGtS29Cb/igsX2F9Dr0hi8a3E+fhvoZ0Fv+hvRmgCENDTCitwJNOA0LNEWjizQiyIzTqJ3mkAUAsISjMFlxGrfTGu7CC0CI7+yVxE5bGo/leG5pSxMCbWli4HqShjNJBzrQWO9NtPW484/lXR7/OdXm8dnpds+/nmnzvgOVFnX4HCxq9/Mu7gxSKWr1nVV2KXgUA4U/+s9ZsAEorfL85axyf+4eb3oBG4OYTxeL+HTR3bPomy4GAoIVlD1AwB0YEKu9ymiFdzHN9ogjMRcLGukioBEuajTcVZVGuKrTCADBoBjmBrkzAQIPBoM25xKcvHRpKAcEnAN600cI6YuA8IUDAIih/gCBCUAMC2BAAAJoOAeFGS9zpBYLXoABGhcEGCCxIGsSD2IA2HIav3M9/l5P44PsaAIne5KEJgZuIElICpqI1DXRZwN5nd5OVbd9qPi6D5Xe8IPYJW/sOkjfX4o7/H4obvf/uqQz4POSzqCbpZ2BmeUdO20qWoNnFZ73Gsm3xPMRc63yVspZ5XzLBqNm4xD3cwcGAwdEb1dzoPqhn0MwIFi6gFZ6nKWl7qdIytWLRm3XptHbVWi0sxqNctagUS4aAEMDQEB9gXDT4oB4y4PBwAPBYODEw+AtxBICEEN94AwA4k0/I0ABEKDh/iY0HECMDAAI0AhOZqg34A6BcAZoTKAlp7GBcAcGQyBcIRAwBCFNMMEBJOAA4znZAQImBgOgCAAQAEHc14EWhznS/rMuVHKNv1S+zYu7OppdDFtyDWBcD6CyLnav5U6q4K92wvKn8ms7/1NxPfRoTXuo0mA/Tj31YBOPwBnKFtjl84NSDwBEn67mYED062EwZ3AroSVuJ2iiszON2KpKo7cxadCY7RqAAjAMAIQIChEMw9y1Ob3lwdyhF4a3GBBePAzeDAa4A4AY6ov6ABrmZwwhTTAg/AEBNIoTQGAKMEchChigsQGAARoXACACAAMkHgAgoPEBcAgUrOOhCZzgDv4Awh8w+MMZoLEeG0iY4ERHmt2poL0/DP2vjvYnOAPBFXgYQqjqVhjV3IqgyuthP9bejMyqvBW1hG+SZxvz1metkbXK/XiB/UmRO/RNF/bdxeQ9QPD1QzcQ3BlKHoiVO4poyY4CktzuRsOdlGmUkxqN3qoOAYQ+QIzuA8RIADHSlQGhScPhDpw4IHRoGIAYBiCY3kKR+RZgYBrmpY8l5A0YfAADNMzXmIZzMqERgGIkJziEH0DgBBj8AQMnuAM01h+pwt+aF2CAJPzhDNB4fwABTfQDCNAEP3uS8ttA4t72NDNgIwWfceZcoecmmgfAILoodieV85e91dwMp8b3oqj2ZsTHlV1hds9F0TnPOldXzvrw3fkbTsIZ2DwHeT1AvG3fJ130c4j+QHQ7xHLXYpqxPYpGbNGikVtUAIM6p75AcDB0A8FDMQr1xEhXTUgLUEBu2oACAhDDPXQ5DfPQ43odwzxFMIiEVAEghnmj1+CDVOEDd/CBMzAgoFG+cAZOgMEXMACIMX5wBk6AgROA8IM7+AEGXuP94A5+gAGSgCb4AghIAiCM97Sn9Yec2HB/dKqtzx1VjwBD5fXQnkvfzr27m6pvRnxV27XrYa9rfLKBYnLtPKu8cuYOCzcWEDejDXMHdDvf3tAHCAbDIEAsdy6i+duzSXyLLY10VKRRWwACEw/EKAZDHyD6pw0BLwABGEbu0AYUEIAYwYBwZ0CgF8KA8BDScAAx3BMwMHnBFZgAxAhvYxoBIEYAiJGc4AzQKB/A4IMeBQPCF87ACSBA4xgMvnAGXxsSg8QhCV84AyThCxigiT52JO5lR2Pd7UkvZjNlN7rS6XZ3Otn39rrfCEP1jQhquBtFNV0Rn1ZdixCNDv+sY775oQlyNnnu82yOVKHL+cuizcX0NneaWjTvVXcPo/uEFKduIJxOwR1KabZTJI3chNTgiGLRkYehGwi2ZDAwp2BAsMc8EGMYENs1ORhGwx1GumpzQIzigNDBY10aCSBGuAMIdyGNABAjPPQBB5MBHsMdvIxohBdAYPKGM0CjOAEGaKS3GY0BEExjfeAM0DgfwOCLItKHCUBA4j5wBk4AwhtAeK+n0R6AwsOO9OMdKbnWhQo63Ci/5fHBUIsaovHubqq7GZnJrpfkm+TZxwKrtEly1rn2822Ppy5Yf/gq9M07m4voHSdocwF0ilMPEIBhmdNpNk8mTdnsRiM3rgUM6jSGwdAXiL5g9DiFCIwxXD0hgACDM5MWjXYBDICCE4MBGrFDD0vITSiSuz6NBBAMhhEeSBUe6FF4AgZeozwBgxccwsuURgOG0V4AwgswcAIQTN4Awhvu4AUYIHFOcAdIzMMW721Lc1BAbsreTFnnnQECuwN7x2OFoYa5wx3AcGvX3+sHu4/iWYacyYk3FtgdXrDA5rBwgf3hbQvsj+yDypE2OpEy/rHYiZ2JPAtHKKYVzmW0YGsejd+4gUZvWEejHdRoDOcQaHSmzbwGhYIBIYJBJMDAA8HJVQdQ6IrEAQEQoFFu+jSKAeFuABmKBCBGehj3iAExkkHhCRB6BBigcZ6AgclLBIOYJ4CAxrjbYPvWNAXOoB/nQOElWwCAM+W3stvxXZ8MDHCG2pu7vim66DfgNQ3PVQQPCX5VziZnynyHowsX2x1b+7bjEf1Fm/LXv+N4PHTJpsKYxS7J56a7Wvx7vIsqjUXDD7dT4zRiAx478NoEAY4R0EisMwJQjOTAYEAI4BJMcIZtAIEBwUEBZ3ABDC4AgclVj9NIV8DAoHADCJwAAiekCyZ3wMAJIHgwwR084A7QGA+kC2iUuwWnke6WeJ0VurpWJOlhTStC15NV6kYKKnSkzKatdLKNDdKxnY5eedIwRH5d2RE86B3yz31wN9PoFA+zOOimaHtU+4rNKU0yy9Mgkyx1MsxQJ/V4DVKK1qA1uzXo7VABLYRmBwhovIcGTfDUIDF3dC3hDCM2Y7kFvQonFJFMW1E7QKO2on7YpkMjOCFVbGfSoxHOkAtqB1fUDZyQJqBhnNCzgIa7oqvJCT0MV1OkGSYz/M8M729O8wKtaHmoFanusSGTRDvakruBAgs30oFKR8q64ETHW7fRkZZtPcP4PFkYWDcz8pPBb8Z9gaKehgz1qlHLCbygTV5VGuRVrUGeWLIh/ti4j9uLNWhLoYA2nxHQxtMCsj2hQeshG8jqmIBsjmiS7VFNWn9Mm6zytMkgVYeEyTpY6kJ6ZJgqJKNUfTI5pI/HBqQRa0jr9hmQ0n4jUoZUDhhjaULCg6ZknWFONpnmZJtpwWl9liVkRVuPWpFvsQ35FNlSUOl6iiy3o32VGyiu1oFSGjdR9qXNdPjqFsqDcq6IJh7JvfzkYWD3T9TfjsLfkYc+fJ4KyN8T28s1XLzqtbhxHl35cR25MR8hNzb4Z7cqNbgxIZk8Ia8qAfmwEWGrNcm/Rpv8q7XJjw0EWqFLAZW6FFglpKAqfQqGQqsNKKzakIIroQojCqk0plAovMqUIqrMaU+tOR2ot6Doc2zsRzYYqBXFN1pTQqMNJZ+3pUOX1lP6RTvKuGRP6VDGJQfKuLwRy02QaKS3zItbKOvS04PhHNe1jPzi3O3QZfyhfPHDrUL9bddyjTYGRDcMD6MdZQJyL9PsGRXWG/Kr0iH/KsAABVazUWEBQ41oVNjwWkOKrDOkXfVGFHXOmHZDextM6UADQOAEGNhAoGyY4EbA0AQY2OiwgCGxaX3PgKDJ0EBjQD5NGOpu76L6O7uQKsLDUp/6XJpPMNhssc4l6jt2VAp+ZAOADtTwA2kgGHqHCGZAiJyBARHCnIEbItiQImrZMMHGtAsabJjgGDhDHJyBjQyb0PR8wVB/G+nhDtLDjfCC+q7gZzeUABtZVE730KxJK/Pf4p96LOGWv/ItNPB+wPCDR+3DAfG/CMO5d3cxV/ge7pBfcT38iY5/+cBY4uj4uoxBqslsYZo/O6fAP/1YIjhLcajLWfW97jWan7MhgN0qBQNC0K3/FRjOdu7kbslveD8KdcKuf1fdCN/13PyMPVM/ZdUcYdrnMnopXo8bCDZ8sPNZ1Y0uZeqtHjWiMaP7Fpb/azCwn7AbPoikyhuhbMCOq5XXwqwHu/P6mQSbzmiOXur7MvoZ387VS3Nn4y/w/3psgaJylvNZ9YM7KgR3ucHCOSj6O8UfGQY2mHjd++FU824YGxT0RkVXyJ7qruDHfiPv7w5JndRhc7STk2WNcmmOfsZXs/VT/dhFL/y/H2u4lAnkXUrVE9lA4swpvBq0yQ1dyj8qDOU3A6n2/TCquMUuatnZXtIZFF/cFvR8dx1n6SbpyOilkaxhNs0Rpv8wRz8tZaburwxD+zsDUCxzLVPf6VohqHY9q/6F7wVd8qrTJs9KuMYLDMOZdi8que5PlXeDqPbDUDb836dIEaUlnf4+ZR2Bj3V23CcWM4UHJ8/RTbnLJkmdq8+m1c1mE6A24O8nOk60S7HqFBSZRu5VGtE7yjQa3Mo0vww8L6SARiH51+mSXzX0nMNQ0OFJxTd8qOLdACq/E8AmLfsnnKGsqN03tPSav/YL8aNT3+DmYNZJSpgrzKQ5uqkkI4RLGOXRXIOMv8roH9o91yDlweMN/s7YdlZzDlKFrluplpdnhVY23KHNp1Ln59ALhhTSZEDBDVjWMRlQCJuKqPYpwXAZMFzZBhCc6VibC53scKOC6wDglg+V3PalEy3uX5xscW+AMyQUtHptAQwaZ664P9tu4u+NOVqJAhmd1B/ZLKpwCZLRS+XSBpuKV0Y/vRHpw4Zf9YmHT7XqaI9K7fnelTqa0Ga/Ct29AZV6hUFVwutB1cLPo5pNaPcFNg2RCcSWgADa1wQIGgHAeQBw3kqkRiuKZSA08SCcBwjnRSCkNG+gtEsOlH55E2VccaTMK5spuwWN37qV8tgPVB0AoNOVTt1wAwiulHdl292jV5ybjl1xyTnRssM3//KO9fktO5TzW91mPb/3RPyGkFFNkJqjlXxuLpsFVztF5BAAAiDQXFZcGqR/Nlc/9bCsUcajDyHzO8O5TPCmV5WeVGC57rygav1VgEIjrEbfOqza0Cui2mgPXCEf7nAiqs708t56s7v7zpnd2gvBGf4Vd8GaEi/ZUtKl9ZR8yY5SLsMJLm+g9JaNAMLuazhDV/J5h1tpzQ63Dl3YdDet2fEsnOFIRvPmjOzLWwKRJtyQHjTzLruoHG11WnjsqvPM/C63Rx85ZZC4dDd4VHOz22M96ff7w+TEa7O1Eu3m6hwiGQYDm163GwgmwyzUElmA49BHcwwy0PtIf+YFETv1HVy/fuj+egvxyDJjiah6s2n7G83m7DlnMZsp6pzlggMNFstjGq1XdCuRV8pF+xVwiUWJzQ6zki9unp0JpV3eOCfr8taJCZe3iaW2OI4+QY9n9vvBou56hEbNjShrdrcV/9TzE9O0EqfO0Uyql9HNoNlaySSjcw8QcAlZoxykjnQo7c9zDA8lywnTFikOMhb1yxg8KjvDFWpv7LrKYHhe78t8ZZYgcYOMduovSBk0G+4go9MnZTDx0/TPNcqGUxz6RcYw/Z9zjdKLIfW3hVlj+O28jF+J6hvhqjU3Iz6svRlZUXVrjxT/9PMXMhox02YLDtbO1c3k3IFBwaUNQNEDBDQHUKC3AacAFEYoMg0zvgYQV+aaZDvKmCVPe1Inrl7kKCtzfrP6epht7e2Iv7LrF6q6IgedDei5iTkaCRvnaB36gc24z8HAoGA1xIAugRqDSx+ZgAJ1hVHGzzJGhz6DY2TLGWcJZA3Tp74EY8iQkjsR0tU3QndXXg/79srfotllbqcrOwafDei5CdazmKmecHqOdjo3NT+XMngguLTR1yUABHMJERSHkDrgFsYAA5I1Ya6RcVvGKDNmrnGWtpzxoVkL1fb9T4HB7oEovRqkVNkVUnXubiSd/5ANDRzxRVVn2Isz4st0jaS1M9QPfjJHG8UkAwLiisp7XaLbKbqhMAAQTIasrmBgZJGsaQ6USzLGGdfnGB+KlTPNspIxSl8qY57+/ObLxxCFVwJlzl4P2l12bee3tbfDuQlHmj7Y82P19fCEsruDD7r2XMZ01YSwmZrpP8zSTKFZgoMcEP1coruW6JM6elwCQHDioBClEeYUcmZ5JGd+mADD3+eYZhTJmmV74n9COZOsReyOroeaUOM5j9OXvCeVdvpvLbsedJVNblp5M4QqrgfThY/ZZCOh7aXXw2T5VV+cmKm+f/J0tYTSWZppNFPjIICAOzyESzAg5nSnjb5Q8G4x1xgyYY6RR/Mt80nWLJfmmmZ2yZpknppjmrkXj7fONc82kLPIXi5nfWiWzIbCkb82tfKjxBLH4mGshpExPyolZ5UhJ2uePU/WMlthvkWOlpx1rgCPNRdY5akssMxcIOdw6JFOLp1q8Ztb2OGzobjDr7TqTghV3wkVXd3UuZPq7rKLXiM/r74RtoFf/cWLaWqJK6arxX80S/MQzVBP5IBg6gai1yV4MHrSBqBgSwDBwOCgYIAYshQCcW7BwMAS9YUcgJCzOEJyVvk03+o4g+O/0E1Zs6w6GfPs3LlmmfFyFjm+cuZZHnIWWVbzLLKM5MwzjOUsc03mWeYYzrPMWoN1VWQtc8zkrLKNmeZZYx2bXBM5yxwPNLSPnFVekKxVXqasVU4WVCxrldssZ5l9Sc4q90Ns5z9YfobX/3ueZfbf8Jor+Ps4e8+5pnm/OjHYyYueC8+0+XgUX/M9f7aL/WoZQqXXeq9uqrwRQrV3wn+u6AxJrqcX/JzMNPV42xkaSZ/PFKRxQKCWoFlwitkMCt4tOJdgbsHA0IVT8GmDcwoODkDB/SraxzEABdJFDxQcIJxroAA1zSZZ8zyaZ3GU5gGOedaAZP1pmm9zkmTMs74HHF+g8b+UNc+Bsj+HbsNNPoK+xuMv4SpMX6Bxv1pgd5oWbjhDC+wLaL7dKYgNPXCC5tliu0w2eA/rIyJZHeaW822OidaxOY79yO6Qscyy4w8HF/ltzhInWtytTrV6JJ5u82opveFPVXd3UvE1Pyrqd3VTENW9G8HmprpYei14Bv/yFzmCX52uHBc+XT35uxkayf2A6IZitpbILRgQ3fUEB0WfekLkGP17H+xsJnMKzjE4MERQ9KQTXkghvJBezFCQmueSrAVzE9QgTFZwFcvDEB5zYo9FkrVg6zO4HkZs3V6xbc+zBoCmef9cty3Ztei2s/DoVZe9J9rcK0+2un9edjeAzt4OoMLO3ota+sLAaoaz13b+tfha0O+eBei5iRmqqaOnqMQfmaaeBBCSaLoaA6IPFCgwOSi6geChEBWYDIp7wGBAwClkhGh4fTgBkyETGp91TxkMfSTqrorAYJIx6QsIZMrcBDJjsNwv9nyv0OW9RyhkIQDACZCh0IX70GzTGJplFkKTDD1p5TanL7MvbP9bYZcXld7xpYJOLzrZ6klwBjrT7n0fDJW3gtkYTv+EI5jyh/GPE5OUk6Unq8SfnKp6kKapHewDRC8UPUDwUHA1RbdbcIUmgwMg6AECQDFLuJtm6AfRNH1/mq4fSDMMdtEcgySSZWAYMDhEEp3UEonrmTDx5zN6xFxjMJkyocEHVA5eizRmEkezTaJopqkfTTPZTpNNNtEkE1uSNjYnCX19mudgTrtPO9PpTnc60eLGrmUYFAY2qBfqhe9QO/wBBg0dJKYq7p04VSXhxLQeIBL6QTGTQcGAGAAKUe8DNYROAk3RdaMJQmOSEOqQmFBA4kINHHABSRjo0ngDQ5pgYEZSBhtoioEzTTfwoRmGO2mW4R6aaXgAdUZSP9focQ8ekn6A9Cid5hjHQAdolnEEzTTeSdOMvWmKyTaabOxAk4xZo1tzDS9lbAQJSdJYj6SM9CHsj74RyViZkW/GFjrdwUAYHIazN4Ko5HrAjyUdgUFdXcGP94rz5y2maiVOnKwUf3KKaiIHxDRVBkQvFKwb2tMV7QdFKs3UjiFJHUsap6tCY3TXYrmWxuopQIo0VqhIY4R4rI/n9RUgJRIzUCVxA4BioMmBImGgR+MN0TiGRpAxTTQ0I2lDO5I2cqRJ0GROmzlJGVmRpJE5ZMFpopEJZAoZ4W8DLPUhXZpgpA3pcI8ljQABDwCTJLeuMY0XimAIyPp1GNjUx0Udfj+he7kz/7m7TuEJhQQcYpJyfP5UADFVNYngFj1Q9E0dDAoOCAHcQZBIkto2JKaDBtdRBAhKPRLjNU5PCVAwKXNLBkS3xuqvAxwMEPzNSRmPVQCLGokbqkOAhhMcxhDw4LG4kej58XhuPJ4bb6gFiND4nHQgPQAlhAAGJMnJgJMUoJOGS0kbGJGEjiEttDen/YXb6FTbwDCwHkVRp993xe1+gVl/lDupHzZmqO0bD4c4NFn54HdT1ZI5IDgo7kkdIigAjKY/iWurkJi2AoSG1VlH43TQqDwQY/llNxTj9JQ5iQEMMSFeB4nrwyk4AQBO6gACDQ5JcA7CxNINGt9Ai5c2LzR+j+AI0EQ4jSQ00QBAGAAEToCBE5wBkgIMYlqGtNLJkrLPu9CJVjaeUy8MBTwIhR3en51p83ZgY0fzh+h/KyYs3Dd8smK87xSVpH9PVUuhKTwQU+ESvVAc5KCQ0nSgcVoAQEtRBENfDQqGCIhxeiqcRFCoQgABkhACAkhcHxBA41ndwQnOwEkLggv0CCD0CEDoAwROgAFFIpMkt0QagaT0AYQegNA1IrPQ9XSqg10VzSSC4UynNxV3+TJnuFvQ4WfIH5b/7ZBSijadpJzw3hSVgwAB6gMFA4JposCSxDSRHiAxTQaFSANCwYPBYOgVnAFAiOvBGTipAQo4Ay9WhIpzxShgECIl9AipQQgQOAGCHgEGaKIQ7iAEDJwAQ4/gDpCElgHJWprS3gInOtHWCwO7RL6gw+vnU62etYWtXs/HkH3PS0grxy6UXhdXMEkp8bspqswl4nmnYHVFAk0QWHEgjO2GAeoLRX8wAEI3FDpwBojBIBKcARLnBIfQAwiQhB7cgRNg4ARn4IRUwQmpQk/nHgEIaKIeQOgRnIGTAU3QgTQNyCjQmk60i+6ZYGmi6CYKxmten+Vf9Ygta3OW4A/By+gbUxVjxkgqxvpKr4t/b4pqKmBIoinKDIp4klJ3pnECNLqAucM6QMHDwC/7uYUWYGBAcAIIkDiAENcBDDqAoUeAQRcgcAIIkDi3RM2gC1fgBGfoEdyBE5yBE2CAJuoiVegCBF6SuoBBR5/EBfr0jq0pxZ51omMtLnSmCwVjpwe7iaYl/4qbNf+xX8avBZsxT1oh9uikdfFfMihQZNJklT0koS6kcRroOgIKMQ4MERQ9LtH3MYBg4sDQAggMCK4ARarQhitwAgwMCB3AoAMIegRn0IErcIIr9Aju0CM4g44upwk6gIETYIAmAISxGkKahprBN2MjnbruSgU3PSm/w+3jY5d3xBy77D6H/6gv42Fi1iznNycrxthNWhdXP1kpkaaoppGUagCJq2sCCHkS0xAB0a1uMHrhAATQOE5wB17imoBBEyBowRkYDJCENlIFE0BgYjCM5wRnAAQTegRX6BGcgQMBzsDDMEFbSOO1hDRGXY9kTIzIKX4DFd/1oGOtzv89fGX74SMtrhr8x3sZvyWmrI2fLqkQ4zJpXULdZKVkklbbCSB0aKz6GhqnjvpBHQ3PxKAAIFwq4YHgoBAABiaAIIIC7tANhCZggCQgMcAgpgUYIAktgNAjAKEFV+AER+gnuIMW3AGaoK2HtKBLY1X1aOUmMwo7tYUN+/fT0RbnUznN2yxzK61fXuT7uGKS4oFZkxTit05WPNggpRJGE9VtOBjGqSNtqLElEwBgjtFHHAic4ArQOAG6mZCYAM7QBwhxTTgDJKEJGDSRJnqEVMEJ3UxNbU7joQncEu4ASQCCMSo6JGtmRHYH7Gj3aYf/O9a5Lefota2mGS8LxCcXkxQTZ02STzWfpLTr1ARllx/GaxjDGRQABMSA4MAABLzGaiBdcIIrQOM0GAg8DJzgCpzgDJC4ADBA4gJ0MznBGXoEIKDxAoAASUBjVbVJ1tyQhAHW5JZu15lxfnNAyYfb1mW1u768D+RpxVTF0olS6xJVJBX9QqRUnLsmapgDCjQywGBpowcGNSUSh8TUmQAEWwdAcFBowBk4wRk0umGAOzAgNOAKkLgGXKFbPADiGtokiRSx0NqYdHyt/7Y92TZ7d5GDYdlHznL87r2MZxFLltDrMxVzZ0kr7VCW1nCJmKHj2CmpZvbTODV82wFDDwD8chwkzv3NBGfoEWAAEOIaIleQ4MQA4J1AXYsmYilraPiTvKPDXYG3Q6xllKnq7pNb531Ovo91XuuX8RhCIPjlzaVm+ydPVXWQFVNw1J2q7ZIyQ8+pdYqOzd8lVPS/E1PR/m6cqvL3YqoqP4irqf4I/STWI/WfxNQ18Jw6/qf+vYSq1nfSAuNvZIyt/7HYdvOV5fbbk9+x3aS3wsZMdsO+gKmVf395c88LFY6O9PrqDekjF1j6jpVUtBCXVHefK6XgryulFGw6W9c/ap6p50k5E69jcmZex2RNvE+9Y+cdJWPgazJ+dbDeBMX10+bq24jJO/mO3eC1Z2RqC/1xRl8dMIYM+X+E+LQKRPImTgAAAABJRU5ErkJggg==;imageBackground=default;" parent="CCUyxIGd_fQrxWlsNQA1-44" vertex="1">
          <mxGeometry x="27.766075752871725" y="36.499999999999794" width="22.064389941012063" height="21.39999999999988" as="geometry" />
        </mxCell>
        <mxCell id="nJzMhjAtfafeV1lF6eL3-1" style="edgeStyle=elbowEdgeStyle;rounded=0;orthogonalLoop=1;jettySize=auto;elbow=vertical;html=1;exitX=0;exitY=0;exitDx=0;exitDy=0;entryX=0.75;entryY=0;entryDx=0;entryDy=0;" edge="1" parent="CCUyxIGd_fQrxWlsNQA1-44" source="CCUyxIGd_fQrxWlsNQA1-46" target="CCUyxIGd_fQrxWlsNQA1-46">
          <mxGeometry relative="1" as="geometry" />
        </mxCell>
        <mxCell id="CCUyxIGd_fQrxWlsNQA1-47" value="" style="group" parent="1" vertex="1" connectable="0">
          <mxGeometry x="6624.11283452344" y="7230" width="71.8948556348954" height="57.89999999999968" as="geometry" />
        </mxCell>
        <mxCell id="CCUyxIGd_fQrxWlsNQA1-48" value="" style="shape=image;verticalLabelPosition=bottom;labelBackgroundColor=default;verticalAlign=top;aspect=fixed;imageAspect=0;image=data:image/png,iVBORw0KGgoAAAANSUhEUgAAACUAAAAlCAYAAADFniADAAAKbklEQVRYCe2Yd1RUVx6As2dPYkVBwI4DGrsx5ZhkE10R6diwQGQtSYyxrFFjjtF1FbOaAgxFOkix4RILKNhQUSMSEMWyogYpImVohiodlG/PvTijwJh1/9hz8sfOOXfmvvvuu++7v37nFX6Hn1d+h0z8V1AVtc1cuFEAra0vtZf6phbqG5upa2x+qfnqSS8F9XOais9cTvH+yoMMcQhjjvNxslUV6jU6/TY1P+bvOy8xaXU0U9dFY7o2ir8FJ1BV29RprraB34TKK6liuftZjOYG08NciY65K11MXdG382VLaKK29eRYbGIGb332T7pN9eS1yS70slDS1cwd242xnEy+/8Ln1DdeCFVUXs+fV0XSdYoSfWsPupm5YeIQJCWQraokI7+SM1fusy08gY+cj+L0TQwb/M8RfzWHa+nF1NS3kJSWj+OWaPRsdqBn5U6PqW4MnrOTkym56vdr/dUKlV9azSznM3Q3c0XfxgMDO2/W+cZzv7CKX3IrWK6Mw3iOP/1mBmI43Y/uZm6y9bH1pv+sIIbM9mf61wc5npQtXxp59g6jF4TSY6qS3pZKBs0OIuriPa1AYrAT1H1VBZNX/Ug3M1cMbD3RsfRkb1waWQXlLHM7jeE0H7pPVdLH2oN+07y0NgMbDymVPna+mK2OJKeoioz8ciatjEDP2hNdSyWD5wQT9ZN2sE5Qn7qcpoupG/o27vS28uTwhXTu5ZVhZO9D1yluGNh60P8pTF87L3pbtqlFqEbYTl87Tw2o6OuYKxloH0hA9HVaW1uZviFKmoKY++7KKPJLqjpJrB1UTMI9+s8MkCrTs/EiIi6NzPxyxizchY6FG/2nt0lGSLCnuRI92x18uGIP85yjcXCOxmxNBANm+dPb2gtdK3cNnJ61O3q2vgTH3ORBURXjFoW12Zi5krW+P70Yqra+iRmbjsmdvTrZlc07L6J6+IihDkHomLcBCQnpWXkw0N6fzz3juJZdSuWjp27eCnUNT7iVW4bPsZuMXhAiwdUqFirVtfUj6VY+t7JKMJjuL9X49tJIcgor24FpJFVaUcu7yw/Q1fQHPlwRQUNTC/O3HpEhQMCIpmPhzthFO7mWWUxlVjkXXJM54LibIx/tJMphJ1GOYSR6XKYouYCy+maWeZ6V3qtWqa6VB+MXhSLetcrjtITubeNN0JFr2qEeSqiDdJ/qwfGfM7iT8xDhTc8v+PZne8gvr+H2/jvsnuLP2WGO3FZ8QO6gUTwYPIbswW9wfvh8Qia4cNnvCk01jSzzPCNtU0hMqP81UyXbd10iLbsUAzsfepi747g5WjtU5aMGLNfH0n+mr9zJou2x0oXFYsK4B88J4BdVBWn7bhH11kbSTd6jUqHgofHrlBiPlK3UZARl+oY8MDBh1/D1xG9PoLqlRapS76m3Cs97Y1EoVTWNMob1tQ+T8e55Ko36xOCVuyq27Ukh5U4hBnY7ZEgQUCK+rA08R82DSsIm+pJh8g4VQxQUmYx+1oaOQWVgxK+zP6J64SLyDYw58N52VFeKiLuZK7OAtC87L/rPCpTvOnzhF7wPXX+eR/bbQYkRkbdiEjLQtfGRdmRo54nhdB9u3n/ImS3xXDSZSbnC+BnMU7BCQyPKFi6htaVFLtywbi1X9Sdw6PPDlFfV8+7S3TJwCrCe5u6s8oiTyboTkbbgKSY5hyWia71DurSIQ2Zr91NZ08iRWYHkGI2jxHhEJyiV/iAqVqzWvKPh0GEKeg8g/E1niq8XMXfbURlQBVS3Ka4ywWsmd+h0kpS4P9f5hEwx6gWE6irv/UrkZDcKFaMoNhnZCapI0TZWsWodlWvXU/LOB5QNMuLcmysoSC1l5+k0DKb5yo2KQLt4e2wHlGeXWqEcth7T7KrrFFfWBJ8n53Qm4W/+g0KTsdqhho6hSDEKld5AVLoDKBw8nHJjExLeXkHxzTJ+uqvCcIZ/G5S5EqetR55RdOhphXLadkIT+HqYubHE7SSNNU3ETPdBNXiEdqjnjd5kNMUmoyg1GU7U2DXkJqlYHXgeXeu2jCAS+JLvj3dAeXapFWr/mdsy4gr16dt4MswxkLziag457eW24k+UKYZ2Vl8HqFLj4WQq3iHcwp+K3ArsNh7SmISQ/sffnXhG0aHXDqr1yROSbhdyLDGT7lPbcpdMulZeHEi8R/qxDA6N+ZJi4xEyLrULCe2gRlGlMCJu2AIuB6WSX13HkLmBMt6Jjfax8yH46HWZbkRu7fhpByVKVouvolGVPmL8ohBNUhUZfeKqCJrrm9m3IIpLw2bKOFUqvXBUO6mJscohQ0gwmc6P8yJprG7kC9+zGtWJQKyYF0xxWS3fhF1k7tZTPHnSvubXQCXcyGXYX/bRzUwpq8eQ2OuyL3Ymmp6NN99FptBSWsuP8/ZxdPhS8ozH8avx65QPUcjYVaEwJlfxBvEjnAizDKckKY/42wX0sfXB0LatpBGeZ7/xIA8r6xjptJM+0/w5lZzVTlgaqNMp2Rg7htHF9AfmbY7mUV0jo52CNNISO+xt7c23kZdpKqkhwSWRsImeHB25gsSxC7k0djHnRn1ChKknh1cdo7WsgeTMEgbZ+2kKQmEK3c09iE/Nwe/wVbqJStTGh72nbmmHqm9swfzLKHpZKqWoL1x/ICe/avqscBN1lPCgT91OkppVQm3eI7LO5JAel8Pd49lkxefSUFBHcXktysPXeH1+qCz8RCIWVUaXKUrW+8XT0Ngs86EojQfMDiYuua1sVpNpJCUGvgm9SFczpVzow+X7eFhRx4aAC1KN6mpBqFKUwwNn+eL0fSwRCemkZJdwOauEmNQcPnE7wbjFIfQw95CFnBqop4U7HyzbS01dI5tDEmQcFGeAec7HePwimxJQucWVTFx16OmRyA2bryIl/Hr/83KX4hAhdizAhI10neKCvp03A2cHydZvZoA8QKgrArU9/nHSD0xauV9WBtt3J9HNzB19a3dM5ocTd7m9PYkXtpOUGAiNvUEfO2EH7vSydGdTcAKP6prYGHCeAfaBiBgj1Kh+Yd9pXghbUTfNuJ0oCpWyXlrjHY+o17aFX0LHyhtDWw9em+IuKxK56w5fnaDEff8jN9Cz9ZFgr052wfSvEeSWVJOeVyETab8ZvvS0eHpisfZADSYkKbxLx8JDPm+5NpKTSVk0Nj9hc8gleSAVQD0tvXBwjqWsqrYDTtulVihxK/xUOvrT/NCzUkqJiXNbZHw6j1vh7oMyvt2TxIyvDzJh6T6M5oWgcAhl/Cd7mb0pmg0B50i+XYg40IYev8X4xWGyXBEqEydlx2+OS+/WSqRNfc9PDDj6L0zm75I2JirGXlZeTFiyi01BFzgv/ugACkqrSb5dQModlTwbirGbmSV4HUzlrY/DpMH3tlDKckXhEMZX/hepbfjtPzxeKCk13I3MUqZtjJFS07HawR8nKzG0D8PzwFVaHj9RT2v3m5RWwPtfHOUPE13oZemJ4YwAZm85yamUvHbzXnTxH6HEgy2PWzl0IYOAqFT8DqcSl5LzovU04yKnfa48wwr308QkdvYwzUQtnZeC0vLc/3To/1AvK95/A9GoclphejwTAAAAAElFTkSuQmCC;" parent="CCUyxIGd_fQrxWlsNQA1-47" vertex="1">
          <mxGeometry x="49.83046569388371" y="36.499999999999794" width="21.39999999999988" height="21.39999999999988" as="geometry" />
        </mxCell>
        <mxCell id="CCUyxIGd_fQrxWlsNQA1-49" value="" style="group" parent="CCUyxIGd_fQrxWlsNQA1-47" vertex="1" connectable="0">
          <mxGeometry x="5.89" width="71.89485563489586" height="57.89999999999968" as="geometry" />
        </mxCell>
        <mxCell id="CCUyxIGd_fQrxWlsNQA1-50" value="PC" style="points=[[0.03,0.03,0],[0.5,0,0],[0.97,0.03,0],[1,0.4,0],[0.97,0.745,0],[0.5,1,0],[0.03,0.745,0],[0,0.4,0]];verticalLabelPosition=bottom;sketch=0;html=1;verticalAlign=top;aspect=fixed;align=center;pointerEvents=1;shape=mxgraph.cisco19.workstation;fillColor=#005073;strokeColor=none;textShadow=1;" parent="CCUyxIGd_fQrxWlsNQA1-49" vertex="1">
          <mxGeometry width="69.72999999999962" height="55.78999999999969" as="geometry" />
        </mxCell>
        <mxCell id="CCUyxIGd_fQrxWlsNQA1-51" value="" style="shape=image;verticalLabelPosition=bottom;labelBackgroundColor=default;verticalAlign=top;imageAspect=0;image=data:image/png,iVBORw0KGgoAAAANSUhEUgAAAIMAAACMCAYAAABfyxqzAAAAAXNSR0IArs4c6QAAAARnQU1BAACxjwv8YQUAAAAJcEhZcwAAFxEAABcRAcom8z8AAE3/SURBVHhe7Z0HWBTX+sZNcpMYuwIqYG8Ilhh7QZC+1KV3EERRVEB6ly5WujTp2LAgTXoRUGxUxZp+c1vuzf3f9Jv+/d8zOzSFqIk11+953meWZXZ2ds5v3+87szPnDPlfDpMuemND6QcK9qUfWpgXvT+Bf/pl/C+FVdndUfaFH6xYX/x+9vqid7/aUP7JD+uL3+uyL/rA0f7UnRnOZXff5Fd9GX/UMD96bYLNqXc1bE/fybAtuPuNXcmHtL7ogx7ZlXxEtmfe/cT2zPuhdvm3FjimtrzOv/Rl/FHC7sy7k21Pv2dgffpuoc3pO2RX9CEa/T2yKbhL7G+R7pJtwbvc83YlH5P16TsfQ6EWBbflNxT+ayS/qZfxoobFkRuzLfNvbrI+ebfC+tQdfPs/QiPfJfbY+iTT7X6y4pZ4Hv+3KXgfUPwZz9352urEnWTr/Jtq1qffG89v+mW8KGF+9MYK8+M3vC3ybzVaF3xANoUfkUX+bbI4fvMRdYssAYdN4cdkcezmt9jGSdPj16zMjl2fzL/Vy3gew+QEvWZ65LoGFG127MYtK0BgCeExmR7t+p26QeaAyerMR4Tt/2Kef6cMzzub5VyX5d/+ZTwPYZNzU8w495q9Sd61HJPD1/9qfQbf4hPvkunhLsLfEFs+DrFtXQcYNwHFx4DsFoOk2TTv2j68vxq/Oy/jWYRxXqeMcW6nt+mRG+VYfmNZ8BGZHb9NJrnXCI3DLZ+U8H4cIBYn3wd477G/P4RyjXPbrazyLo3id/FlPOnQyWlTNMjqSDXM6Wg1zG7/xfzUB2R8+Abh72cjBsax22R+6kMyyOn4t2HOtVr9zA53/ezrM/ldfhmPM6xzO4brZ7db62W0FgqzOt43PHyTjI/eIYPsayTMbIPan7FE+2CYi3Ry/D32+Fu9zPYOvcy2eMOs9jVE9Ar/UV7Gbw1h2uVFuumtUcL01iv6me3/NsyDA+TeIGEGDn5663Mrg6xOMjp8i7DPbF8/Fqa1VOmlt2xSA9T8R3sZDw56xSSxa4Qw+aqWMOVqgTC97RPhodYfDXNu4ADDBQ7hYKe1vDDST28jw+wu7Pt1PG7/Qi+1pV0/rWWP7qHWhYr19Cf+Q7+MvmF8oPktrYOtsropV4N0U65c1jvU9h+9tDZ8s64RW+L5F1qAAI7RwX0enZSrP+G5f+qktJzVTb4q1E5qGvs/D8aS1JbXBXFtEtqJF7V0ky6f0Tl4+f90k678qJfKvv0AIPkK4fknrCtoKPZ+7aKGG3Cdxyu9FOYa7dxSL/nqN3pJl9/VSbyyRzPh8lJhTPsY/vD8b4ROaou4fnzzcp3E5mCthIsdgOBHnYNo+OQW0kHj6CReIu0nqovce+iltAGEdsI+fKWVcOkf7H/CtE7sw9UBXvP4hc/NfWYm7rl47Ef8xQqt5KsWgrjzM3GchvGH7I8VJon1I/TiLslpx13YoJ1woVgnvvlrvUQcDF46CWig+OanoIskTIYTJLcBiCufacdfuKgdd9FJJ7ZRRTvufIpuwqVb2vHNPwtT8M0FoANv4/EL79tzLJiwD3/TTbgYrRPfpCk8eGWyYnD9i51GTE6ceE0jumme5v5Gfa2YCwnQX3QTcIAT8GHjLpJ2bDN0gfD8Exd7L72DsOWDrXhvuEDMhWLNA82W6geax/G7y4XWvgtTtWOao7Rimjuwzn/1kpA+EuAUA2zzcYu9B3dMcGx04hgccAwcH82YC42a0U1Bgj2NitoHaqT5XX0xQm1fw3SN/Q0aOKBhgv2N17Vj2Te/hbSim0nzwHmR9jc9FWlFXxC9N/ZBc//597X2n88R7G0yCQ6mV/ndHTAEcVdnau674CHY31SH132me7ADjXTlKe47f5wOMEDgFvgMeP5Lwb6mEsHeRmf13Q2rVXdXj+Z39/kKjegGSfW9jQKNAxdC1Pecq1Xf1/i9zsF2EgAAjX1NUOPT094GErCDmNCK5XnCvrThud3Yj3X87j506ATXi2vsabQQ7G3Ix7b/qh3fSpqAQvReDf3f9wlLAEC0Yq9wYKvvbfiL+r6mLBzzTRrR59aq7at8tucvBJFlEqq76zTUdp/zVttzrhD6TDuRAXAJO9tI+PupS50dsIR2Ut1d/43a3nMVqnsbfNX21i/id/k3B8vZalHndFX3NMSp7jnXqRkDp0HDcJ9z98D78uTUwH1Ozbir3LHGZ/0A+5SlEVW3TbC7Sd4kuOsNfrefbKgGV0kp7arVUoqsDVSOrCtR3VX/F0H0ZezUZexkI6nuqnsGqkej4ODEtJBKZN2ncIFMPGehuqdKit/txxrqUXVLVCPqfNR2AbbIul80Y64CiIYB9uspKEr02QXYB7ZU2VV/VyWiLk9lV527ani1/JDHfRpc3q9RQimsylAlvDZWJfJcrXJ4zSdqey6AzsugsomUI+qg2qesOjR8PantbQaEzaQUUXsTDRSuHHlObUlw8VPpkimF105dF15thffMVg6v/UJ9H76lUY3cvj2LY8Idj93nSePAFYByjj13C/t4TDm8zlslvH6dmsdvTCXYyEyViNoNSqE12SrhdY3KYTV/ZwddfR8AYB84HB82rObpKhwfGlKJwIfGvvAHvQj/26gSVv0Ov+tPPVR9qkcrh9aoKYcBxrCaW6pRTWiMJuwn9o/tcxjTAJ/nCYo7RgCDtRf+/kUprPZ97GM1vsi7sF/a8lFNY/ndHyBQXa8LOrtGKaTSSym4slA5pKZDKaTqP2q7zmOjzdg4SAupJjwHseXTE3tffBB8qHpuP/Dcp0phNXEKoZWaLG3xn+CZB1dXRNbPVwmpXo/9LVkXUvUdvpHYb8DA9v+ez/XkJWor9v6qkay2wRcotJrWBVf9RTm09qJScEU69tVKJbh6Bv8RROcD1u2s8lgXVPUxlt+qhCP/RcD+Q+oIf9O6oMqnL7yvUjA+UHANPhCEx+t2VtYp7axyUgg8u+A3W95TCsXg0on4Uilgf+Pwef6pzD5Ht3biswz0mZ+C2HFkXyrVyPNo31pSCqr+t+LOytsKQZWa/I7XD10bUF6gFHaOFLGzCoEVhL9J4VkosJIUcbAUgqrwd8XPawMq/qUQUHZIMaB8naJn6URuh1+gYNAqBZbLrPUv3yLvX1Yr71/+zVocX/YZFdlnxOMBj8MTFte+ONbr2Bce7S4fUGHP7TBgGCHvW9aoEFBJa/2wol/Z05U/2zEcmKBqwgFjz325xu9sw1r/s9sVfStmPa2C8AnHK/K+pWOhFfi80Wt9yz5a61/x3Vocc/a52fK+4/IUpOCPLz6OP/bHittLBsMqn9Lzq/0qaJVPGXT2iWs1E95vTUA1t1zlW/7VKu+z76/yPZu02rN4Fdunx94tek5CLvjEG6u9qqTkvUptVnmXVq72PfspjskP7FisCaii1b7lAx6zJyHuvXzLaIVPqR23c4rBJ0as8io5v5qB4FUKlTwxMQjW+FVyWulV8t9VnsV/XuFVUrzSs8RW3vfIWFbIcjv1PxJLHFNfl/crlFvpWRy8yqu4BcfnUwBCa/zxJWENhccDHcfHJmx/tfdZWulxNoI7Rb8EXaMVnsV3VuJJLB+70NCgsJxW4wOu8Cj6GR/8k5UexXUAwXe1a+nvPjv4R4klji2vr/QsEuAYZaz0KOzEsftilW8FnLOKnlTb4IuIL2UprXQvimO9oSFL3IvFl7kVfb/cs5SWuRf9frkV0XJ39kZwGl8A4FVOS92K/7HUo/jiUreiqMVepUrsg/PH4GUMECvd8sct3VHkuNSt8OhS96KOZW6F369kx9K7gpZ7lAx83H+LPIpF23Mriu2BYanrme+WuxXTMtczv107CmmFO7MekOxVwZ771wq3osZlroWpy12LTFgBxX/Wl/EIsdi5YCaOpQ+OYQGO8a1lLmd+XuUDMDzLaTm+eP3a4FGFNlu+g9sGD4PjEfEl209/t8y1iJY6FzyCTnNL9rqVHhVIBxW0dPvp/yx1LaoBXAlLXU6bL3LOl+A/08t4DLHY+fTKpdsLvHBs85c6n7m5zKUQX7xKQAFXdznT0yYPLbyGbWOJ8+leGJZuPfXdMudCWroNG3sonULDFyDXAICtp75e5lxQvWTrqZjlWwssFm86Lcnv+8t4QhEcHPwqYFi9bNspd7TDkSXbTt9e7oL07FrS2z73tdkAQhsu2w4gtvaBYYnTyR+X4kk06MNpWwEtdjr17eItJw8s3nzSVM7xxBR+P1/GUw7F9VlDFzmdXL146ykntGMz9MuSracHbrd7xUFRgMcnRTAscDoydvHm/D8vdcIGNp94KC3ddoYWO5741MTkxNP57fxlPFQsccz3WbzlxA9LndDQA7TbfdpykpZuOUXvbOFhkNt6YsQ7G49fWOx4kt7ZlA8df6AWbzlN7zgc/3Shde4Lc4dQfL3fXK+inSZOZ3y3mud7Rxkf35xonu+UwGR10inB5rRzwnqmAueDbsU+gSGVAZtjzvlrlrevn8Zv4rmPRRuOeb6z8dj3+KIO2G73yRHtjXXf3nhc1LVkMLy98VjToo359LbDcejYA7XI8RRbfipncmIEvx/PVWw+c3GaZf7BLRpZPqmLk22LxWIMKqUSja9PS7L6x8wUq69mptnSnCwbmptlS7LZ62l+DpRnTwsOb6C3jzjQ2zn2Py7Odfji7Ry7T+bl2LSvPGpTZ1qwvcC3wntv4jk3rU8/NXkuP/fbDke9oe9FbTlw2/XTRrQ31l3kcHT3EJMTrw1hDbrA/sj5hRuO0QL7o9CRB2qhwwmab3f0/+ZuOD6f349nGkT0qmley0qV9IMJMnHbm8dFm9+aEGP2pVSiJU1INafRKaY0KsmYRiQa06hEExqdaERjsRx70JTEksxIIhlKtSCJNKx/yJKkMqxIOtuWJuWupylHN9Cck5towaktAGXTLwuOOfxt3UmHDpezW4tiGre75Lc6zOJ345nHgvXHvBbYH/5e1JYDt10/sfWY7PI2chtgMMy3PXxhwfqjNN/2CHT4gVpgd5wtv5CzzlXmNvIMIvgEvWGc/f5ytdTy1AVxEdfH7Vv/19H7TH4ZnWBOw+IMaFi0Lg0/oIelkEbGGNCoWEMaHQcIEoxJDBIHDOKAYTxgmJgCAYaJqZYkfciKpmRY0+RMG5oCTYZ7TIJzSOfYkRTcQ/rYRpp9ajO9fXIzLTq26WuTYsePwqscC5ObNttW37QRIxryzH5TkbM+7DPfNu97UVsO3Hb9xNZbDyhsDltyG1hoXTlcziavgYEwzybvoTR//TEsc586DCyv2Wf8TUI/tX27xsHqi/Njdn82do81DTtgSm/sF9Lre7Xozb06NGwfQNivRyMPCGlEtP79MMAhxA/2wjABMEimWZAkXEE6vRcGDgTmEIBhUq4dTQYMU/I20CSmww40+dhmkjnpRO/kbyHTwk1f7avbdOvwZcfQUxftZqe2OD7ls6z0yjybw6lon1/moaHvbbMBxdqcW/ewDbcJ9mPJPKvsRFBFctZ5JGeV+0DNszlKcpY5X8ha5qhyG3nCwcZjNExum22UeC1CM7Hh46Wxqd+L7d1Ib+4xoNeitCBNemO3Nr25W4fe2qv78DAk9YdBGjBM4mFgrjAJMEjnMMEZAMIkJtQVHAioLaYc3kRT8zbRtLzNNPvoFlI4uZW8Kjf/eKh589/yrmzen3PRSTauzPnpDDAaHPwq2uYE14YP2Y7d686zzjXntqGoWP8nOfOsWFmLXJK1yCFZ8+wHSs4yj+aaZ30rY5Yu+unzCYVJ8Ik3DOMvzNWNvxwqTGj9i2piFc3YF0h/itSjVyI06bVITfrTLm16PUpbBMOe3wBDsjlXV0immffAMDlTBMNkuEJfGJikjgAGgMBgmHpkE00HEDPyHGl6LpQDp8hzok1lTpR+0YlyLjl9mteydXfm1W0LnjgUgEHWLOsk14YP2Y5cm5vn0Hyb9KXcNthlb3PNMvfPxZNzscJcs6wHim1AxizzexmLLC9uI08gBHtrZwoOnN+pE3vhL8KkDloXV0LiUZtpSKgmDQnTpFcjtAEF9BRgYIVkPxiO3g/DDMAwEzDMyNlCs7O20KZiJ8q7uo2OtTlT3uVt/zx8dXvokSan3usNH3cE06uyplnnZM1z0UYP146szWWx7hyLrLn8VoYMkTHKcJE1zSROJhkPlJwp3sw44wdZ0/RAfhOPLQTBZaPU9zZZCmKar2rHXyG9hBZSi6umcREONCREHTBo0ath2gPD8JjSRDcMg6YJliKgaQPAMBswzAIMstlbKLTaiY4wIFpdKL9jBx276tJ25Iqb+aFmh373eD6OCB4CGIwzPpxnfnjANhtIcqb4YhtlfCtrmDmb38yQIbMN0mznGmUQJ8P0B4tb79AvMgbpqXj5Y6ue1fbVz1ffdz5FfX/jz9rsHsmYZqiJpkX60ZBgAWCAQgHCPTCIgNB5dGd4QAHJYLi3gJyM4nEygJiCumEqQJiOmoGlCAbDLMAwJxsCDLMzt5DWcSfKvrSVjl7ZDii208lrbnSsxZVOtrllHb3g/Fgv71+oljtcxiDtI1kTOPxAbTaAZI0yScbgUNcCq7xJ/GbgDMJDunP0D9Ecg3Tilg8S1gMI7HEBy1X8Zn5zoJcwVCWq1lJ9X1ObZjy7R/ICd5+kTsxlWrYng/4Uok9DdsIVQrR6YQgHBP3cQQTDUMDwFmAY8Qgw9HQt0+7vTbBUMRkwTGYw5IpgYD2KqXlwBuYKuUwMBEeaw2oGwCADGGYChrfhDklNIhgOMyCuONPxVlcquuVDp9o9b+Rf2WFz4oTJa/xh+F0xT+uQ7Bxh6t9ljLLub69BJGOQQbOFaZ2zDOJ6YZhrkD4fQGAFNLAw7cHSSyMZfbah1KvcmavfEYr768WVIur3q+1u+EoQe4W7TY/drMvuQmZ3UU8MdxWBEAwQeBheGRQGbREM0Ih9/WEYHQsxGOKNaRyA6HeeIbkPDHCHyRwQovMMUwHElCzAkGNHU3LQtcwFDNC0XAfOFWbkbkSd4EizszfBERwBgsgZZmaIYIg9h1TRB4ajV12QLnZQ0U1fOIT7l3CJPUda3MX5w/GbY45+hvxsvZR/yRhkDtxmA0gG7S2jm1Y2SxDXe6nBTN1Ds+bopnw9lzWybspDaa5+Flt+xG/iN4VKcOkMpfDaArXdjdy9gqIbS0UwaB24SCv3HKahIWaAQa0fDEN4GF67p264F4ZR+wHDAX0aFQ0QOCBEMIjcwYQkeBjGA4YJKUgTqZYk1V03pItgmAIYpgKGqVk8DNn2NDV7A1KDA2qEjTQrG8rZhDphEwpHuAODIXMzzUrfQityt9Ch5q0DwnDsijsVXPOi4i5vOnnVvbig1ft3DT0so5Nkifb4Yq4ea+CB26y/0mguDEBGJyUNMPQOZDpDJ3XKHO3k23N1UgnLh5KMLlxEK+mvC3XTpvObeaRYF1q5Rim0plp970VS23WO2A203B3Ne0W3oOseuELTI0LolZ3oPexErfAwMKCIHLpHBMNw5gwDwcC7g1gCnCHRFO5gRhJc3SA6AykFd5h0yApAAARoagZgyFxP0zLtaBqAmJZlTzOyNtDMbMDAQOAgYK4gcgYGwuwMCDBYnmTdy60cCPfCcPyqO51odafT7Z5UcTeACtq8zhe2eynxh+eRY65m0ja0xzdzdfCtH6C97hcDAtlAKzlyqmLWUH4zgMEgafxszaSaOVqphOVDaY52Gs0SJH0mo5XyyB9AIahCaV1o1S12PyC7J1E1UnRXsTq7q3hPAwngDDoHLpFEGFJEoDJgAAQMBiYGA183cDD0BQK9iTcBg8gd9FBIClFI6nNAjAAQw2OMaCSAGBVnTGPiTWhMgimNSTSjsQBCLNmCxJPZbxmWKCat4BCoGzggkCYABAcDJx4GaFaWA7QRxSIT3CET6SLDkaanb6bl6FXsrXMCBFvRtRwchlOtHnS6zZPKbgfQmXaf9ws6vUV3Nz1izNE4uH+2IOmnOVopA7bX/WJApNFMjaRt/CZEMUM1dfQMtaScWRopNFM9CTr4QM0SpNIM9YNfztBIfqQTT4rB1euUdgKEKIDAbqSFGAwqgEGNh0EDKUN1byWNDd4EGFT6w9BdNzDBHZhDsJ7FKwDiVQDxp9269AaAeGOPHknF6tG0BCFNT9CnRWn6tCLDkFZlQllGtCbLmNZmm5BCjimtyzUl5cPmpHLYgpZkWdD8TCtamG1N0wCD1CH0JqDJ6UgT0NR0e5rOgMgEEJlwB4AwMwMOAc3I2ETTDjnSYqSKgConyr3sBBAeDoYzHd5UfieIAfFBcZv/IwMxQz3pxCyNZNa4A7bX/UqiWZr4Qqsn6PCbEAWziWmq8btmYEPT1RKhhAcLG5umFv8DHofwm3lgKPhVKCkGVd5mN4KKbqat4WDgbrHnxxtgg1EwGJT3lAIGB8CgSkOCAAADohuKEFGq+BNAGIc6QSZOi5amapFipiZpHdYms5NaZFugRZsKdcipmEmXdpTqkcdZIXmX6ZNPuT75lRuQf4UhBVQaUWClMe2sNqGQalM0ohn5V1pgaUHelZbkVWlFLmetaVORLVmftiW9fDtae9ie5qNumJa+AQAAiHQ4A2BYi4LS7rQjRdVtppzLWzgYch8ShoJ2bwDhQxW3A6m4w/fDM22+Wvxhe6iYpppweSa+oA/ffok0A1/+6crxy/lN9MQrU1Xit05TS6apKolQwoOl2rNeOr+NXw12a5mif1kXu7GX3R28LqSKg4ETN76AyBk4GPaxnkQzSYS70JAAFXoFMLwGCMbt0qL5aHj5NE3SOyKg9WcEtAHaXKRB20o00Gga5F4mIJ9KAflXaZJflTYaVZsCq3UosEqXgqr00OBCCq0RUniNPkXUGlBkrSHtqjWi3fUmtAfa32BKMQ3mFNNoTvGNFpTQZImlJcU2WFN0gw3tr7fBerYUWWdHYbX2WNrTrjoHiqrfiNdtotQLDITNlA0Ysi89IgztPlQEICrhEEVtfh8+rENMkU8aO0U57s409dT+bfQrmqaaxNrwfSmVhDn8Znpjikq86hSVJJqsFA/FPZTY+pOUYs/zmxg0FH3OTFvjX9bQc2c3U3AVKYWyu4JF7sAVkHubUC9c4IbH0dx76dvpEf5fzI0WkEqGJpkfF+DbqUFb+UZ3K9cgzwoN8oDc8Zj9vQNiMHiUC8izXJO8KrTJB/Kt1CG/Sl184/UAhBAuIAQU+oDCgMJqDAGGERrVBI1qAihMaW+9Oe07Z077z1nQgQZLQCCCIb7JhhKhlPO2lHbBDj0Fe8q4aE+ZFx0o69JGyrq4iTIvbcZzm/H3b4OhECru9KOqd4PhEAE3K24H954qHiSkFOLemaQU92dR+w3cVvdqinIiW16appQ4ld9Mb0gpxiySVoz9ftK6OJqkGPtQmqyURFKKsXX8JgaMlW7Nb632OZu/lt1gGlRJioEV/C33IhhUwuEIbGCJ3U2kElX/DQrJD9X3nDumEnVJaJrntMypRK3Zq16bvGo0yaOyt9F3lGmQ6wBy42HwqtAk7yod8oUCavUosFZIQbX6FFIPABoMKaIBADQa065GE4pqNKU95wHABQCA5QG4QfR5CMuYJiu4BJaAIbbRBi7BgLClg012lHTenlIu2MMNHCiteSPg2ETpAOH3wlDU4Usl1/yp8nYIloENZZ3evSeFBohJinECaYWYTycrJQ7YTgOJrSutGHNESmWXGL+Z3pgiHz1Dcm3sNUnFBJJUiH2gpETr/XuiQowhv4n7gg0JvNK7JGqNX9kvawOquFvBORgAhXJIDQrHRt4VGv+GVFGvGlm7SXXPeSk2xRC/iSG+lepL0PjlblWC/3Ov1iTPei3yqINq75cnnvephws06JBPDQDinQH6yrdS9wu/Sr0vgir1PkO6+ATp4pPQav1PwqoNPwmvNvokotbkk111xn+OqjP99946sy/31pt9sa/e/AfmDPEXbSj5qj0lXbGn5Mt2lHLJjpIBQRL0pGAo7vCjs9cDqfxmMJW0Bx49UR88+KV2Jidem7g2OkNSMR5twjRwm/WV1LqDJKUQG7xkyQDXXUxYtW+8pHzsaWk0stTamAcoTiT5mAT+5QPGKo9C8zU+ZZ+uDawmeXYLOGBYF1hJKmENSA9IGSFV7yuH12SsC61bM+RXrhBan6U41K1C09L1rEaBa7nGNTjA3XuF1PGuS5nGTbcyjaueFYJLHuUaBXCHFJ9yzYO+lVpb/av1NviX62wMrhDqB1cKF4VV670jklGPImuMFu6uNzbeXWe6eX+96cYD9aYR++vNU6IbLYuiG6yvIFXcimu0/nNCk+3nzBkyWh0pu92RMlscKeOy42OHAWmCKgBDedfO/5Z0Bvjzh2PAmCi/T05SPvqDh2u/GJJeB1eXjxWNy3BvTFDbN3zi2pjYh9mYNOiTko/+UGL13kFnW1nqWzpjlWfJ1bVBddzd12zsB4WdtdyAIOhR3AEUyQq/YSwmtwr1ce4V6nNdS1Vl2bJbW8s15mH5RGeVS7xgOTX+vNXahPO2Gw+et9uPNFGc0mzfknJhw8dpFxx+ONy5jY5cc6ac1q0oINmPVL8fhpLOQKp9N4yqbgR/cLYj+FevLJOUj3HBF/RHKdY+A7Rbr+AMCok/TlgTM+jYmK9Ir43ZzBEz4AZ4MYsRPR70WgY2wMZytzPJa/xraCW77ZsDoQ7uUP4XOETyWv+S+7ozL2qkn98glXJ+g3ra+Y3+6c2bjmZe3nIZzvDp0c7tlN/lSsfanenwVeh3wHD2WhCd+yCCyjp2NtbciRh0yGDuCy0ffYH7srIGv7ftuqUQRwDnL5JroxfzL70/JBX2q6EW+OUhNnR5qmLioMPqrHA7Y7TCu/zTlexWfL8qOEPpL2t8SovQo9DlV/nDRkaT04ysZieTrItb9uVc2Vqbc9npE3YtQ8EtD+6aht8KQ0VXMNXeCaOKayGRwTT4L8VSCtGmSBc//Zo7SCvA/eWjL05STBz8ym7WRcFKf2cNPtBGRLVCzC8oQERX0w4QS93PTF7meubcqoB6Wu3PjS3w0Wrv0oBlvtX3V61/8Mhu3iydc3GrVt7VbQFHLjufhjN8WnQHjd7lBRA8HgmGMqj+vQgGw4flN0LX8m9xX7AfnVBMNv0qDIooHuVjDs1a3ucHqntjwtp90wFDA0fOfRtheYYrGltZscm/5L5YuaPQbSW7Ld+7nFZ4FpWu8ih6ZpfTP09xosVx9OHLLjpHrziHHW/Zce54izuVvedPZzq9HhqG8us7qenDKKroDMmDUwxytRS9Iq0YbYx2+mWwL/UkpVSSlj/gwr9g4GA5R1o+JlGadTvu2whgYEStjd422DUMq9lYAi4F11Z4lv2wdMeZhJVuJS/WkPhPKY60ucw+1upudrrTM/lki/s/zt7yo5Ib/lQICH4Vhms7qeZ2ONXdifxP5bVQA35z98Uk9QPjkMrrRDDck/JZzaeY8N2EddHa/OqDB4hyYuT02wAkzblC7E0JxQOD5ZlXlmwv8F3qUvDzUucCP3bbHv/8yxgkiosdh528tGNtQZt7cEGHdycD4uyNAO4M5GAwVFwPoQsf76XK6+FHiluCB7kohl6ZqBBjy84F9Sn4Re3IzkXIx7wr/mvFY3dIrovRkFSI/7b/RmKxkUSSXhMbOkSxfsBZUZa6Fsos3X4mG86wZZZz2dO5V+APEuzSt/w2D7nTnV5bCzt8Ws8CirIbgezs44Aw1N6CO9yO/KryeuigBfkExZhpkmtjOkQ9iz4wMNdfE30GMDx4HI0Ja6LnoRpt63e+QWQ3/5VUjJXnV7svFjudUlqyrcCd//OJBJvYRHt/0xLt/ef1NPc2blI/0GivFdPspRXbnKoT35yklXApSYfpoEh6yVegq0l6KVBaq0jpTC0pwoz2WP30VndhRpuDXka7vWF6u5Iwq32RVtblZzr4aFGHx/SiDm8nuEP72S4AcCOYylAr9IWhqiuMLny4h6qYO9wexB2WpL4+cfX+XexL3DdVTFJKYQ6/+6GuXZVUTBVH//NY3/MNbIOSa2NPSqkkDNojWOhROXy5c95vnwea6BV2d9cy3wIx5cjGhcphNdaqETXhqpF1Gcq7zjWpRdXfVN1z7kP1PQ1/0djb+C+N/U1faB44/7kguulbwEA6cWzWmYsQP99T92xxbBY8bjpBXmktBCCYftZPb/tGmN72BYD4XD+j/e/6mW2fGGa1v2eQ3XlDP7uz3CC7Pdkw77qrQW6HgM29LYi7+2bfU+VPMtjvESWd/jtKOgP+XnFjJ1XeDAYIvTDU3oyEQ+z6b/X1qEFPHLEvL9rvm95Ckjn8QZow2JnH+wP5Rj4moG/dIL0umeWZTfwKjyVMUIQuCW4ZttK/RFohsNRUMah897qdldVKIVWfKIXW/FM5rPor5fDaH1Qj6rjrI9UPXCLBgYvchBuC6IuiaY5iL7E5p4jBwOZ20gUMumxWuINXSC/pKukmo/EBgjAVAKSxKQuhQ63c5KNwBm5mWjaFsmH2dW7qYqO8m9xMtWxqZeO8Lvyv/Rf97Pb/GmR3/Mcw59qnWN41yGzPFWa2bRVmXl0gyLs0it36x3+kxx5Ewa+WdfnJwRVyznYGfV19O5SqboZxMFR3hdP5D/dSzY2IA5UdHgOOkzEFqQC9w6pul2dLpI5PJsofUORXeXBIr401AkU/c3WDiKpPpRRiVvH//s3BbpyVd86XWOVdunq1b2mAvH9Z1drAiv9TCCj/ViGw4ic2uLVyOJsr4RypRJ4jVYgt2VwK3E/c7Eoo7jpJdgEMm6oHOsDmomKTj5znJv7SiQMY8b0OwU0ZyLkEAIFLMDi6XYLNSstcgk1ZzAARQSKSQVYHYAAsOSJQ2NTL3ATsWQyi9u+Mcq59YZDZ1qWf2RoHRxGqZ16ZvD7rw95rCR9j1H8YPLSsLdAYaeJa9c3QX9Cb4GCovxNFtTcir527saf3Jph+Qa9Irol27XZ50e8R0RWSa2IfftglAPAOnOAaI4ltgKWNX0sRD4q3Xc+MWb695O2V3iV+KzxL2lZ6lfzAzkrKs9PUgdW0lg0gzga25n/a7p1WoM+VUNx1kg8CQjQTXF8geuaQvDdt8FAIu6FgrjEIGH2lnwlImKMAEm5idtFzP+oeavkrq0NQd6wzyep6InVHZUf4dKSK1OobYV823N2FNBFJje/tYWBYDTb5+qS1MQr4Yn/NvtSTlNLQCYg+MGTII9zrIrZ6z0gQlSmNVDGJXbOgEOvB/+uRYoVL0YRlLqcNlrkV5i7dUfjtSu8ybrRTNjQxJ98yWsMGtfbv/kWznBR3sqHw+wMhmnREdNGsCrsaqg8Q6mxCr/1N/YFgUyTeA8RALtEPCg4ICGmEqRuMXgEGHpK+YumGAdKrTqSitga91FZz3cRm1g1/rOM1pKY6vl7dFeaInsTHje/tpqYP9lL1jcis6pbdA85mN14+egYKxgauF6GY+ANcwYH/18OH1NoDXpOU02Av0d9Iro1T559+qFjiWD168TZA4FJYvNSl4JcVnmWiUWO5EUmLuXGL2Q9Yq3xKaY0v+0WzTDSiPHe9A2DovhKKmzzjHiDYxbOAQRUwqLP7LBgQzCHYDG8AQgAgBH2AYC7BgOhxCVZc9oUihc222wtFPzD6agBIup/ru47+IUCSASgyOrHNli70Ztx0Ylse+2h4VddDNapuhHdc+Ggf1d+O+nN9164Bz//MEsS9KSUfEzVJJRN1X/TNCfIxK/h/PXxMVIjRRHr4EhtqkVSMf+ClV93xjuPJpYu3njq0dPvpH5a7l/GjkBbSUrdCbohaBgMbtxipQvSLJg8Eu96BAcHmYFgXJLoaqi8QPeniV4Dgpvw7ABiYQ0DcJKpQb9q4p5a41ym6oegDRg8gbHJzNPh9YsXpPeuKtoH/pXeSPptnO/lqpU7SFSO13I7HOiBaxa3w1XCF1it/iaHarl16/NP3xaS10VaTVbNYvXBq0soDj37T7yz5OAm8uAkwnJKQ+5WrbPhY6Zb/1mLHY45Lt566s8K1lJY6n+EGnYQz9A5NCyCW9wGiZ2RzwMDSBQdDd7rgZk7pvVZSaRAg2I03PSmDAcGlDADB3Z53r0tgeS8U/cDgi0wODB6OvoAMJn49tj57Hfd6bEukq0gn19jya92Ey9Hayc2P9RR99c1dq2pv7Gqv74qKGGwMCKQGdDHj/gO3j+SfevQACIeYxfB/DhqrNxSOfNvx+L7Fm0/+d5lzMRs1lht0Eu5Ay3gglvNALOUHsO6GodcdIK5+EM2UIrpWsqKnfui5eJaljG4guMvr+fstdgMM3h24iVW5wlLkEJrRbOZYUW+jGwpummFAoR3PUocofegc5IvNHokaVC+ZFZ6Dq9tdROv3vl6bbY+lpQS2Xhsn7bgLR1Rjmx5r2qi/FbWu9kZUTM21yAn8U/1CanWMDLqUeagdRCO0/JaQUozVkVYc/GoYFuxE00KHY4nvbD7JjQ+5ePMJWroF6h6BlAHBuQOAYDD0OISohljJQQEgAMUadkUU3EE+AFCwKXv46yVZylBmUHT3MAYCovv2vD2NnEv09jSYS4iKS5Y+uqFgKQQN05M+tDmh8dBwrPG0WWNyPRE4SA8cg4ut1934bBuc2Ou7t4+lbiIDpgVu1ZSsnfRrM8g9etR0RSyv/3RgB2ennqUUYvTYKWr+qUePqYrBQ1kBwv95X7D/ve1wdB8bdxC1Ai3iB5rkgHA62TMk7TIAIRq4ujdlrAAQK/iUwYBYzaeMNehh9C0o1/UBgnMJljLYVdV82lCJ4O/IYl3PvnUEdzNOI9fb4KDonl+62yn48xIMCC59MMdgDQcxt2BwcEUnD0h/DfwcBxS/DdF2Lop6NWz7LFXhPXXYROvxl7/WPNBkyx/GJx5ycsFviK1OHznkSU7ussA2T2+B3eHvF208yQ0yuWgjG3kUMAAIbihaANHjEDwMLF10F5Td9YPIHUpEQLDZagBET0HZnTL6AtEnbbCp+tjl9iKXAAxRAIFpN2oIuIQ6dy/Gee7GHM39F7jJxhkM7Awmk2i2fiY0IDdDPRMalqWPeHzr0dAi8d9yTn0f94qlHi3u9aJeDDfLPQ8BOynGFbYAUjepg6WxMsHu+l+9BP6FiYUeucPnr89rYAOELtxwlBMHBHMHblzi+91hGYBgKaOnfuB7GCxdrGJAwBlEGhwI1u1UZtMchgCEUIAQBhDC2ZyXDaQWCe0CBFFNgAF1wx42L2c1rYsqIsWoQlLaDe0p4qS8t5iUIOV9TCWkvL+EVA6UclLmpRJ9llcpqcdUkC4gEQlw9DwWiQHEpAWomDjAYpoBHoOOwccGIBENQiKa3LzxC9U95wftAbxQMd8mR3G+zeH/LrQ/TgvsjvTCsJENJyxKFYMBcW8PowcIL7gEgwEFpWhCrb5AAIZA9C6C4A47a9DLqKSVwadpQVAqyQTtp+kBITQlwJck/XeQmN8mEvOHAhxpXIADjQ5YT6MD7Wh0kD2nMUEbaOzODSS204HGBW/kJBayicRDHUmCKWQzpwlhUOgWmghJhm2lSeFuNJmTO03BckaEN8ntCqeFu/bQgl276e1d+2lFVBqtisqk1ZDyvkIetrNcmmJ3l6uz4hbSTuxAb6jRmT+cL3AEB7863/aw3zzrvJ8X2B0VwWDfFwhRqhABwaeLbb3pYiAgWP0wEBBrfNn0ihUAopzWBJTSPL8Ukvb2JjFPWxrjaUojPA1omKceDfXUoTc9teh1LwG95qXO6VVvDXrVR0Cv+mpCWpA2vQK95q9Dr/np0OsBuvSnQD16gylIn94MZDKgoYGG9FaQIQ3nZEQjgoxpZLd2GtOonSY0GhoTbEbiwdY0PtiGJIJtofU0EWBJBm8i6WBHmhy6naZAU0NdaFqIG80M8SK50BCaHxpJi3alkn3mgdJLHzupF7R6rspv85Mou+v8Zn198J/YD1T8kX4BgsFgnRsxzyb3J26I4fVsCOH+QHTXDhwQDIZ7gOjpbvJAsIKS62H063Ky09bltMznFE31jKSxbutplJseDd8hoKE7VGmoG+SuBmkABAEHw1AmL4ABveGtS29Cb/igsX2F9Dr0hi8a3E+fhvoZ0Fv+hvRmgCENDTCitwJNOA0LNEWjizQiyIzTqJ3mkAUAsISjMFlxGrfTGu7CC0CI7+yVxE5bGo/leG5pSxMCbWli4HqShjNJBzrQWO9NtPW484/lXR7/OdXm8dnpds+/nmnzvgOVFnX4HCxq9/Mu7gxSKWr1nVV2KXgUA4U/+s9ZsAEorfL85axyf+4eb3oBG4OYTxeL+HTR3bPomy4GAoIVlD1AwB0YEKu9ymiFdzHN9ogjMRcLGukioBEuajTcVZVGuKrTCADBoBjmBrkzAQIPBoM25xKcvHRpKAcEnAN600cI6YuA8IUDAIih/gCBCUAMC2BAAAJoOAeFGS9zpBYLXoABGhcEGCCxIGsSD2IA2HIav3M9/l5P44PsaAIne5KEJgZuIElICpqI1DXRZwN5nd5OVbd9qPi6D5Xe8IPYJW/sOkjfX4o7/H4obvf/uqQz4POSzqCbpZ2BmeUdO20qWoNnFZ73Gsm3xPMRc63yVspZ5XzLBqNm4xD3cwcGAwdEb1dzoPqhn0MwIFi6gFZ6nKWl7qdIytWLRm3XptHbVWi0sxqNctagUS4aAEMDQEB9gXDT4oB4y4PBwAPBYODEw+AtxBICEEN94AwA4k0/I0ABEKDh/iY0HECMDAAI0AhOZqg34A6BcAZoTKAlp7GBcAcGQyBcIRAwBCFNMMEBJOAA4znZAQImBgOgCAAQAEHc14EWhznS/rMuVHKNv1S+zYu7OppdDFtyDWBcD6CyLnav5U6q4K92wvKn8ms7/1NxPfRoTXuo0mA/Tj31YBOPwBnKFtjl84NSDwBEn67mYED062EwZ3AroSVuJ2iiszON2KpKo7cxadCY7RqAAjAMAIQIChEMw9y1Ob3lwdyhF4a3GBBePAzeDAa4A4AY6ov6ABrmZwwhTTAg/AEBNIoTQGAKMEchChigsQGAARoXACACAAMkHgAgoPEBcAgUrOOhCZzgDv4Awh8w+MMZoLEeG0iY4ERHmt2poL0/DP2vjvYnOAPBFXgYQqjqVhjV3IqgyuthP9bejMyqvBW1hG+SZxvz1metkbXK/XiB/UmRO/RNF/bdxeQ9QPD1QzcQ3BlKHoiVO4poyY4CktzuRsOdlGmUkxqN3qoOAYQ+QIzuA8RIADHSlQGhScPhDpw4IHRoGIAYBiCY3kKR+RZgYBrmpY8l5A0YfAADNMzXmIZzMqERgGIkJziEH0DgBBj8AQMnuAM01h+pwt+aF2CAJPzhDNB4fwABTfQDCNAEP3uS8ttA4t72NDNgIwWfceZcoecmmgfAILoodieV85e91dwMp8b3oqj2ZsTHlV1hds9F0TnPOldXzvrw3fkbTsIZ2DwHeT1AvG3fJ130c4j+QHQ7xHLXYpqxPYpGbNGikVtUAIM6p75AcDB0A8FDMQr1xEhXTUgLUEBu2oACAhDDPXQ5DfPQ43odwzxFMIiEVAEghnmj1+CDVOEDd/CBMzAgoFG+cAZOgMEXMACIMX5wBk6AgROA8IM7+AEGXuP94A5+gAGSgCb4AghIAiCM97Sn9Yec2HB/dKqtzx1VjwBD5fXQnkvfzr27m6pvRnxV27XrYa9rfLKBYnLtPKu8cuYOCzcWEDejDXMHdDvf3tAHCAbDIEAsdy6i+duzSXyLLY10VKRRWwACEw/EKAZDHyD6pw0BLwABGEbu0AYUEIAYwYBwZ0CgF8KA8BDScAAx3BMwMHnBFZgAxAhvYxoBIEYAiJGc4AzQKB/A4IMeBQPCF87ACSBA4xgMvnAGXxsSg8QhCV84AyThCxigiT52JO5lR2Pd7UkvZjNlN7rS6XZ3Otn39rrfCEP1jQhquBtFNV0Rn1ZdixCNDv+sY775oQlyNnnu82yOVKHL+cuizcX0NneaWjTvVXcPo/uEFKduIJxOwR1KabZTJI3chNTgiGLRkYehGwi2ZDAwp2BAsMc8EGMYENs1ORhGwx1GumpzQIzigNDBY10aCSBGuAMIdyGNABAjPPQBB5MBHsMdvIxohBdAYPKGM0CjOAEGaKS3GY0BEExjfeAM0DgfwOCLItKHCUBA4j5wBk4AwhtAeK+n0R6AwsOO9OMdKbnWhQo63Ci/5fHBUIsaovHubqq7GZnJrpfkm+TZxwKrtEly1rn2822Ppy5Yf/gq9M07m4voHSdocwF0ilMPEIBhmdNpNk8mTdnsRiM3rgUM6jSGwdAXiL5g9DiFCIwxXD0hgACDM5MWjXYBDICCE4MBGrFDD0vITSiSuz6NBBAMhhEeSBUe6FF4AgZeozwBgxccwsuURgOG0V4AwgswcAIQTN4Awhvu4AUYIHFOcAdIzMMW721Lc1BAbsreTFnnnQECuwN7x2OFoYa5wx3AcGvX3+sHu4/iWYacyYk3FtgdXrDA5rBwgf3hbQvsj+yDypE2OpEy/rHYiZ2JPAtHKKYVzmW0YGsejd+4gUZvWEejHdRoDOcQaHSmzbwGhYIBIYJBJMDAA8HJVQdQ6IrEAQEQoFFu+jSKAeFuABmKBCBGehj3iAExkkHhCRB6BBigcZ6AgclLBIOYJ4CAxrjbYPvWNAXOoB/nQOElWwCAM+W3stvxXZ8MDHCG2pu7vim66DfgNQ3PVQQPCX5VziZnynyHowsX2x1b+7bjEf1Fm/LXv+N4PHTJpsKYxS7J56a7Wvx7vIsqjUXDD7dT4zRiAx478NoEAY4R0EisMwJQjOTAYEAI4BJMcIZtAIEBwUEBZ3ABDC4AgclVj9NIV8DAoHADCJwAAiekCyZ3wMAJIHgwwR084A7QGA+kC2iUuwWnke6WeJ0VurpWJOlhTStC15NV6kYKKnSkzKatdLKNDdKxnY5eedIwRH5d2RE86B3yz31wN9PoFA+zOOimaHtU+4rNKU0yy9Mgkyx1MsxQJ/V4DVKK1qA1uzXo7VABLYRmBwhovIcGTfDUIDF3dC3hDCM2Y7kFvQonFJFMW1E7QKO2on7YpkMjOCFVbGfSoxHOkAtqB1fUDZyQJqBhnNCzgIa7oqvJCT0MV1OkGSYz/M8M729O8wKtaHmoFanusSGTRDvakruBAgs30oFKR8q64ETHW7fRkZZtPcP4PFkYWDcz8pPBb8Z9gaKehgz1qlHLCbygTV5VGuRVrUGeWLIh/ti4j9uLNWhLoYA2nxHQxtMCsj2hQeshG8jqmIBsjmiS7VFNWn9Mm6zytMkgVYeEyTpY6kJ6ZJgqJKNUfTI5pI/HBqQRa0jr9hmQ0n4jUoZUDhhjaULCg6ZknWFONpnmZJtpwWl9liVkRVuPWpFvsQ35FNlSUOl6iiy3o32VGyiu1oFSGjdR9qXNdPjqFsqDcq6IJh7JvfzkYWD3T9TfjsLfkYc+fJ4KyN8T28s1XLzqtbhxHl35cR25MR8hNzb4Z7cqNbgxIZk8Ia8qAfmwEWGrNcm/Rpv8q7XJjw0EWqFLAZW6FFglpKAqfQqGQqsNKKzakIIroQojCqk0plAovMqUIqrMaU+tOR2ot6Doc2zsRzYYqBXFN1pTQqMNJZ+3pUOX1lP6RTvKuGRP6VDGJQfKuLwRy02QaKS3zItbKOvS04PhHNe1jPzi3O3QZfyhfPHDrUL9bddyjTYGRDcMD6MdZQJyL9PsGRXWG/Kr0iH/KsAABVazUWEBQ41oVNjwWkOKrDOkXfVGFHXOmHZDextM6UADQOAEGNhAoGyY4EbA0AQY2OiwgCGxaX3PgKDJ0EBjQD5NGOpu76L6O7uQKsLDUp/6XJpPMNhssc4l6jt2VAp+ZAOADtTwA2kgGHqHCGZAiJyBARHCnIEbItiQImrZMMHGtAsabJjgGDhDHJyBjQyb0PR8wVB/G+nhDtLDjfCC+q7gZzeUABtZVE730KxJK/Pf4p96LOGWv/ItNPB+wPCDR+3DAfG/CMO5d3cxV/ge7pBfcT38iY5/+cBY4uj4uoxBqslsYZo/O6fAP/1YIjhLcajLWfW97jWan7MhgN0qBQNC0K3/FRjOdu7kbslveD8KdcKuf1fdCN/13PyMPVM/ZdUcYdrnMnopXo8bCDZ8sPNZ1Y0uZeqtHjWiMaP7Fpb/azCwn7AbPoikyhuhbMCOq5XXwqwHu/P6mQSbzmiOXur7MvoZ387VS3Nn4y/w/3psgaJylvNZ9YM7KgR3ucHCOSj6O8UfGQY2mHjd++FU824YGxT0RkVXyJ7qruDHfiPv7w5JndRhc7STk2WNcmmOfsZXs/VT/dhFL/y/H2u4lAnkXUrVE9lA4swpvBq0yQ1dyj8qDOU3A6n2/TCquMUuatnZXtIZFF/cFvR8dx1n6SbpyOilkaxhNs0Rpv8wRz8tZaburwxD+zsDUCxzLVPf6VohqHY9q/6F7wVd8qrTJs9KuMYLDMOZdi8que5PlXeDqPbDUDb836dIEaUlnf4+ZR2Bj3V23CcWM4UHJ8/RTbnLJkmdq8+m1c1mE6A24O8nOk60S7HqFBSZRu5VGtE7yjQa3Mo0vww8L6SARiH51+mSXzX0nMNQ0OFJxTd8qOLdACq/E8AmLfsnnKGsqN03tPSav/YL8aNT3+DmYNZJSpgrzKQ5uqkkI4RLGOXRXIOMv8roH9o91yDlweMN/s7YdlZzDlKFrluplpdnhVY23KHNp1Ln59ALhhTSZEDBDVjWMRlQCJuKqPYpwXAZMFzZBhCc6VibC53scKOC6wDglg+V3PalEy3uX5xscW+AMyQUtHptAQwaZ664P9tu4u+NOVqJAhmd1B/ZLKpwCZLRS+XSBpuKV0Y/vRHpw4Zf9YmHT7XqaI9K7fnelTqa0Ga/Ct29AZV6hUFVwutB1cLPo5pNaPcFNg2RCcSWgADa1wQIGgHAeQBw3kqkRiuKZSA08SCcBwjnRSCkNG+gtEsOlH55E2VccaTMK5spuwWN37qV8tgPVB0AoNOVTt1wAwiulHdl292jV5ybjl1xyTnRssM3//KO9fktO5TzW91mPb/3RPyGkFFNkJqjlXxuLpsFVztF5BAAAiDQXFZcGqR/Nlc/9bCsUcajDyHzO8O5TPCmV5WeVGC57rygav1VgEIjrEbfOqza0Cui2mgPXCEf7nAiqs708t56s7v7zpnd2gvBGf4Vd8GaEi/ZUtKl9ZR8yY5SLsMJLm+g9JaNAMLuazhDV/J5h1tpzQ63Dl3YdDet2fEsnOFIRvPmjOzLWwKRJtyQHjTzLruoHG11WnjsqvPM/C63Rx85ZZC4dDd4VHOz22M96ff7w+TEa7O1Eu3m6hwiGQYDm163GwgmwyzUElmA49BHcwwy0PtIf+YFETv1HVy/fuj+egvxyDJjiah6s2n7G83m7DlnMZsp6pzlggMNFstjGq1XdCuRV8pF+xVwiUWJzQ6zki9unp0JpV3eOCfr8taJCZe3iaW2OI4+QY9n9vvBou56hEbNjShrdrcV/9TzE9O0EqfO0Uyql9HNoNlaySSjcw8QcAlZoxykjnQo7c9zDA8lywnTFikOMhb1yxg8KjvDFWpv7LrKYHhe78t8ZZYgcYOMduovSBk0G+4go9MnZTDx0/TPNcqGUxz6RcYw/Z9zjdKLIfW3hVlj+O28jF+J6hvhqjU3Iz6svRlZUXVrjxT/9PMXMhox02YLDtbO1c3k3IFBwaUNQNEDBDQHUKC3AacAFEYoMg0zvgYQV+aaZDvKmCVPe1Inrl7kKCtzfrP6epht7e2Iv7LrF6q6IgedDei5iTkaCRvnaB36gc24z8HAoGA1xIAugRqDSx+ZgAJ1hVHGzzJGhz6DY2TLGWcJZA3Tp74EY8iQkjsR0tU3QndXXg/79srfotllbqcrOwafDei5CdazmKmecHqOdjo3NT+XMngguLTR1yUABHMJERSHkDrgFsYAA5I1Ya6RcVvGKDNmrnGWtpzxoVkL1fb9T4HB7oEovRqkVNkVUnXubiSd/5ANDRzxRVVn2Isz4st0jaS1M9QPfjJHG8UkAwLiisp7XaLbKbqhMAAQTIasrmBgZJGsaQ6USzLGGdfnGB+KlTPNspIxSl8qY57+/ObLxxCFVwJlzl4P2l12bee3tbfDuQlHmj7Y82P19fCEsruDD7r2XMZ01YSwmZrpP8zSTKFZgoMcEP1coruW6JM6elwCQHDioBClEeYUcmZ5JGd+mADD3+eYZhTJmmV74n9COZOsReyOroeaUOM5j9OXvCeVdvpvLbsedJVNblp5M4QqrgfThY/ZZCOh7aXXw2T5VV+cmKm+f/J0tYTSWZppNFPjIICAOzyESzAg5nSnjb5Q8G4x1xgyYY6RR/Mt80nWLJfmmmZ2yZpknppjmrkXj7fONc82kLPIXi5nfWiWzIbCkb82tfKjxBLH4mGshpExPyolZ5UhJ2uePU/WMlthvkWOlpx1rgCPNRdY5akssMxcIOdw6JFOLp1q8Ztb2OGzobjDr7TqTghV3wkVXd3UuZPq7rKLXiM/r74RtoFf/cWLaWqJK6arxX80S/MQzVBP5IBg6gai1yV4MHrSBqBgSwDBwOCgYIAYshQCcW7BwMAS9YUcgJCzOEJyVvk03+o4g+O/0E1Zs6w6GfPs3LlmmfFyFjm+cuZZHnIWWVbzLLKM5MwzjOUsc03mWeYYzrPMWoN1VWQtc8zkrLKNmeZZYx2bXBM5yxwPNLSPnFVekKxVXqasVU4WVCxrldssZ5l9Sc4q90Ns5z9YfobX/3ueZfbf8Jor+Ps4e8+5pnm/OjHYyYueC8+0+XgUX/M9f7aL/WoZQqXXeq9uqrwRQrV3wn+u6AxJrqcX/JzMNPV42xkaSZ/PFKRxQKCWoFlwitkMCt4tOJdgbsHA0IVT8GmDcwoODkDB/SraxzEABdJFDxQcIJxroAA1zSZZ8zyaZ3GU5gGOedaAZP1pmm9zkmTMs74HHF+g8b+UNc+Bsj+HbsNNPoK+xuMv4SpMX6Bxv1pgd5oWbjhDC+wLaL7dKYgNPXCC5tliu0w2eA/rIyJZHeaW822OidaxOY79yO6Qscyy4w8HF/ltzhInWtytTrV6JJ5u82opveFPVXd3UvE1Pyrqd3VTENW9G8HmprpYei14Bv/yFzmCX52uHBc+XT35uxkayf2A6IZitpbILRgQ3fUEB0WfekLkGP17H+xsJnMKzjE4MERQ9KQTXkghvJBezFCQmueSrAVzE9QgTFZwFcvDEB5zYo9FkrVg6zO4HkZs3V6xbc+zBoCmef9cty3Ztei2s/DoVZe9J9rcK0+2un9edjeAzt4OoMLO3ota+sLAaoaz13b+tfha0O+eBei5iRmqqaOnqMQfmaaeBBCSaLoaA6IPFCgwOSi6geChEBWYDIp7wGBAwClkhGh4fTgBkyETGp91TxkMfSTqrorAYJIx6QsIZMrcBDJjsNwv9nyv0OW9RyhkIQDACZCh0IX70GzTGJplFkKTDD1p5TanL7MvbP9bYZcXld7xpYJOLzrZ6klwBjrT7n0fDJW3gtkYTv+EI5jyh/GPE5OUk6Unq8SfnKp6kKapHewDRC8UPUDwUHA1RbdbcIUmgwMg6AECQDFLuJtm6AfRNH1/mq4fSDMMdtEcgySSZWAYMDhEEp3UEonrmTDx5zN6xFxjMJkyocEHVA5eizRmEkezTaJopqkfTTPZTpNNNtEkE1uSNjYnCX19mudgTrtPO9PpTnc60eLGrmUYFAY2qBfqhe9QO/wBBg0dJKYq7p04VSXhxLQeIBL6QTGTQcGAGAAKUe8DNYROAk3RdaMJQmOSEOqQmFBA4kINHHABSRjo0ngDQ5pgYEZSBhtoioEzTTfwoRmGO2mW4R6aaXgAdUZSP9focQ8ekn6A9Cid5hjHQAdolnEEzTTeSdOMvWmKyTaabOxAk4xZo1tzDS9lbAQJSdJYj6SM9CHsj74RyViZkW/GFjrdwUAYHIazN4Ko5HrAjyUdgUFdXcGP94rz5y2maiVOnKwUf3KKaiIHxDRVBkQvFKwb2tMV7QdFKs3UjiFJHUsap6tCY3TXYrmWxuopQIo0VqhIY4R4rI/n9RUgJRIzUCVxA4BioMmBImGgR+MN0TiGRpAxTTQ0I2lDO5I2cqRJ0GROmzlJGVmRpJE5ZMFpopEJZAoZ4W8DLPUhXZpgpA3pcI8ljQABDwCTJLeuMY0XimAIyPp1GNjUx0Udfj+he7kz/7m7TuEJhQQcYpJyfP5UADFVNYngFj1Q9E0dDAoOCAHcQZBIkto2JKaDBtdRBAhKPRLjNU5PCVAwKXNLBkS3xuqvAxwMEPzNSRmPVQCLGokbqkOAhhMcxhDw4LG4kej58XhuPJ4bb6gFiND4nHQgPQAlhAAGJMnJgJMUoJOGS0kbGJGEjiEttDen/YXb6FTbwDCwHkVRp993xe1+gVl/lDupHzZmqO0bD4c4NFn54HdT1ZI5IDgo7kkdIigAjKY/iWurkJi2AoSG1VlH43TQqDwQY/llNxTj9JQ5iQEMMSFeB4nrwyk4AQBO6gACDQ5JcA7CxNINGt9Ai5c2LzR+j+AI0EQ4jSQ00QBAGAAEToCBE5wBkgIMYlqGtNLJkrLPu9CJVjaeUy8MBTwIhR3en51p83ZgY0fzh+h/KyYs3Dd8smK87xSVpH9PVUuhKTwQU+ESvVAc5KCQ0nSgcVoAQEtRBENfDQqGCIhxeiqcRFCoQgABkhACAkhcHxBA41ndwQnOwEkLggv0CCD0CEDoAwROgAFFIpMkt0QagaT0AYQegNA1IrPQ9XSqg10VzSSC4UynNxV3+TJnuFvQ4WfIH5b/7ZBSijadpJzw3hSVgwAB6gMFA4JposCSxDSRHiAxTQaFSANCwYPBYOgVnAFAiOvBGTipAQo4Ay9WhIpzxShgECIl9AipQQgQOAGCHgEGaKIQ7iAEDJwAQ4/gDpCElgHJWprS3gInOtHWCwO7RL6gw+vnU62etYWtXs/HkH3PS0grxy6UXhdXMEkp8bspqswl4nmnYHVFAk0QWHEgjO2GAeoLRX8wAEI3FDpwBojBIBKcARLnBIfQAwiQhB7cgRNg4ARn4IRUwQmpQk/nHgEIaKIeQOgRnIGTAU3QgTQNyCjQmk60i+6ZYGmi6CYKxmten+Vf9Ygta3OW4A/By+gbUxVjxkgqxvpKr4t/b4pqKmBIoinKDIp4klJ3pnECNLqAucM6QMHDwC/7uYUWYGBAcAIIkDiAENcBDDqAoUeAQRcgcAIIkDi3RM2gC1fgBGfoEdyBE5yBE2CAJuoiVegCBF6SuoBBR5/EBfr0jq0pxZ51omMtLnSmCwVjpwe7iaYl/4qbNf+xX8avBZsxT1oh9uikdfFfMihQZNJklT0koS6kcRroOgIKMQ4MERQ9LtH3MYBg4sDQAggMCK4ARarQhitwAgwMCB3AoAMIegRn0IErcIIr9Aju0CM4g44upwk6gIETYIAmAISxGkKahprBN2MjnbruSgU3PSm/w+3jY5d3xBy77D6H/6gv42Fi1iznNycrxthNWhdXP1kpkaaoppGUagCJq2sCCHkS0xAB0a1uMHrhAATQOE5wB17imoBBEyBowRkYDJCENlIFE0BgYjCM5wRnAAQTegRX6BGcgQMBzsDDMEFbSOO1hDRGXY9kTIzIKX4DFd/1oGOtzv89fGX74SMtrhr8x3sZvyWmrI2fLqkQ4zJpXULdZKVkklbbCSB0aKz6GhqnjvpBHQ3PxKAAIFwq4YHgoBAABiaAIIIC7tANhCZggCQgMcAgpgUYIAktgNAjAKEFV+AER+gnuIMW3AGaoK2HtKBLY1X1aOUmMwo7tYUN+/fT0RbnUznN2yxzK61fXuT7uGKS4oFZkxTit05WPNggpRJGE9VtOBjGqSNtqLElEwBgjtFHHAic4ArQOAG6mZCYAM7QBwhxTTgDJKEJGDSRJnqEVMEJ3UxNbU7joQncEu4ASQCCMSo6JGtmRHYH7Gj3aYf/O9a5Lefota2mGS8LxCcXkxQTZ02STzWfpLTr1ARllx/GaxjDGRQABMSA4MAABLzGaiBdcIIrQOM0GAg8DJzgCpzgDJC4ADBA4gJ0MznBGXoEIKDxAoAASUBjVbVJ1tyQhAHW5JZu15lxfnNAyYfb1mW1u768D+RpxVTF0olS6xJVJBX9QqRUnLsmapgDCjQywGBpowcGNSUSh8TUmQAEWwdAcFBowBk4wRk0umGAOzAgNOAKkLgGXKFbPADiGtokiRSx0NqYdHyt/7Y92TZ7d5GDYdlHznL87r2MZxFLltDrMxVzZ0kr7VCW1nCJmKHj2CmpZvbTODV82wFDDwD8chwkzv3NBGfoEWAAEOIaIleQ4MQA4J1AXYsmYilraPiTvKPDXYG3Q6xllKnq7pNb531Ovo91XuuX8RhCIPjlzaVm+ydPVXWQFVNw1J2q7ZIyQ8+pdYqOzd8lVPS/E1PR/m6cqvL3YqoqP4irqf4I/STWI/WfxNQ18Jw6/qf+vYSq1nfSAuNvZIyt/7HYdvOV5fbbk9+x3aS3wsZMdsO+gKmVf395c88LFY6O9PrqDekjF1j6jpVUtBCXVHefK6XgryulFGw6W9c/ap6p50k5E69jcmZex2RNvE+9Y+cdJWPgazJ+dbDeBMX10+bq24jJO/mO3eC1Z2RqC/1xRl8dMIYM+X+E+LQKRPImTgAAAABJRU5ErkJggg==;imageBackground=default;" parent="CCUyxIGd_fQrxWlsNQA1-49" vertex="1">
          <mxGeometry x="27.766075752871725" y="36.499999999999794" width="22.064389941012063" height="21.39999999999988" as="geometry" />
        </mxCell>
        <mxCell id="CCUyxIGd_fQrxWlsNQA1-52" style="edgeStyle=orthogonalEdgeStyle;rounded=0;orthogonalLoop=1;jettySize=auto;html=1;exitX=0.5;exitY=0.98;exitDx=0;exitDy=0;exitPerimeter=0;entryX=0.5;entryY=0;entryDx=0;entryDy=0;entryPerimeter=0;" parent="1" source="CCUyxIGd_fQrxWlsNQA1-41" target="CCUyxIGd_fQrxWlsNQA1-45" edge="1">
          <mxGeometry relative="1" as="geometry" />
        </mxCell>
        <mxCell id="CCUyxIGd_fQrxWlsNQA1-53" style="edgeStyle=orthogonalEdgeStyle;rounded=0;orthogonalLoop=1;jettySize=auto;html=1;exitX=0.5;exitY=0.98;exitDx=0;exitDy=0;exitPerimeter=0;" parent="1" source="CCUyxIGd_fQrxWlsNQA1-40" target="CCUyxIGd_fQrxWlsNQA1-50" edge="1">
          <mxGeometry relative="1" as="geometry">
            <Array as="points">
              <mxPoint x="6660" y="7200" />
              <mxPoint x="6660" y="7200" />
            </Array>
          </mxGeometry>
        </mxCell>
        <mxCell id="CCUyxIGd_fQrxWlsNQA1-14" value="13-14楼POE交换机" style="shape=mxgraph.cisco.switches.workgroup_switch;sketch=0;html=1;pointerEvents=1;dashed=0;fillColor=#036897;strokeColor=#ffffff;strokeWidth=2;verticalLabelPosition=bottom;verticalAlign=top;align=center;outlineConnect=0;fontSize=13;fontColor=#FF0000;textShadow=1;" parent="1" vertex="1">
          <mxGeometry x="6272.2429556038505" y="7089.999999999999" width="95.95947531822395" height="36.0599999999998" as="geometry" />
        </mxCell>
        <mxCell id="IgskItTwagF8Hw9iGol8-2" style="edgeStyle=elbowEdgeStyle;rounded=0;orthogonalLoop=1;jettySize=auto;elbow=vertical;html=1;entryX=0.5;entryY=0;entryDx=0;entryDy=0;entryPerimeter=0;" edge="1" parent="1" source="CCUyxIGd_fQrxWlsNQA1-19" target="CCUyxIGd_fQrxWlsNQA1-21">
          <mxGeometry relative="1" as="geometry" />
        </mxCell>
        <mxCell id="SccVvb-rEeI0xyhP3Zdu-1" value="10.10.10.0/24" style="edgeLabel;html=1;align=center;verticalAlign=middle;resizable=0;points=[];" vertex="1" connectable="0" parent="IgskItTwagF8Hw9iGol8-2">
          <mxGeometry x="0.7175" y="-3" relative="1" as="geometry">
            <mxPoint as="offset" />
          </mxGeometry>
        </mxCell>
        <mxCell id="IgskItTwagF8Hw9iGol8-4" style="edgeStyle=elbowEdgeStyle;rounded=0;orthogonalLoop=1;jettySize=auto;elbow=vertical;html=1;entryX=0.5;entryY=0;entryDx=0;entryDy=0;entryPerimeter=0;" edge="1" parent="1" source="CCUyxIGd_fQrxWlsNQA1-19" target="CCUyxIGd_fQrxWlsNQA1-41">
          <mxGeometry relative="1" as="geometry" />
        </mxCell>
        <mxCell id="IgskItTwagF8Hw9iGol8-7" value="172.16.13.0/24" style="edgeLabel;html=1;align=center;verticalAlign=middle;resizable=0;points=[];" vertex="1" connectable="0" parent="IgskItTwagF8Hw9iGol8-4">
          <mxGeometry x="0.5147" relative="1" as="geometry">
            <mxPoint as="offset" />
          </mxGeometry>
        </mxCell>
        <mxCell id="IgskItTwagF8Hw9iGol8-5" style="edgeStyle=elbowEdgeStyle;rounded=0;orthogonalLoop=1;jettySize=auto;elbow=vertical;html=1;entryX=0.5;entryY=0;entryDx=0;entryDy=0;entryPerimeter=0;" edge="1" parent="1" source="CCUyxIGd_fQrxWlsNQA1-19" target="CCUyxIGd_fQrxWlsNQA1-40">
          <mxGeometry relative="1" as="geometry" />
        </mxCell>
        <mxCell id="IgskItTwagF8Hw9iGol8-8" value="172.16.14.0/24" style="edgeLabel;html=1;align=center;verticalAlign=middle;resizable=0;points=[];" vertex="1" connectable="0" parent="IgskItTwagF8Hw9iGol8-5">
          <mxGeometry x="0.6366" y="-1" relative="1" as="geometry">
            <mxPoint as="offset" />
          </mxGeometry>
        </mxCell>
      </root>
    </mxGraphModel>
  </diagram>
  <diagram id="KWv2MoadXoKoav8yaQeT" name="越豪大厦">
    <mxGraphModel dx="-5045" dy="-4057" grid="1" gridSize="10" guides="1" tooltips="1" connect="1" arrows="1" fold="1" page="1" pageScale="1" pageWidth="1169" pageHeight="1654" math="0" shadow="0">
      <root>
        <mxCell id="0" />
        <mxCell id="1" parent="0" />
        <mxCell id="ZOry-paT58BERrc_AvSt-3" value="" style="sketch=0;pointerEvents=1;shadow=0;dashed=0;html=1;strokeColor=#006EAF;fillColor=#1ba1e2;labelPosition=center;verticalLabelPosition=bottom;outlineConnect=0;verticalAlign=top;align=center;shape=mxgraph.office.clouds.private_cloud;fontColor=#ffffff;" vertex="1" parent="1">
          <mxGeometry x="7220" y="6608" width="109.03" height="67" as="geometry" />
        </mxCell>
        <mxCell id="ZOry-paT58BERrc_AvSt-4" value="&lt;font style=&quot;font-size: 15px;&quot;&gt;深信服防火墙&lt;/font&gt;&lt;div&gt;&lt;font style=&quot;font-size: 15px;&quot;&gt;172.16.11.1/29&lt;/font&gt;&lt;/div&gt;" style="sketch=0;points=[[0.015,0.015,0],[0.985,0.015,0],[0.985,0.985,0],[0.015,0.985,0],[0.25,0,0],[0.5,0,0],[0.75,0,0],[1,0.25,0],[1,0.5,0],[1,0.75,0],[0.75,1,0],[0.5,1,0],[0.25,1,0],[0,0.75,0],[0,0.5,0],[0,0.25,0]];verticalLabelPosition=bottom;html=1;verticalAlign=top;aspect=fixed;align=center;pointerEvents=1;shape=mxgraph.cisco19.rect;prIcon=firewall;fillColor=#FAFAFA;strokeColor=#005073;fontSize=15;fontColor=#FF0000;labelBackgroundColor=none;labelBorderColor=none;textShadow=1;" vertex="1" parent="1">
          <mxGeometry x="7460" y="6600" width="106.25" height="83" as="geometry" />
        </mxCell>
        <mxCell id="ZOry-paT58BERrc_AvSt-5" style="edgeStyle=orthogonalEdgeStyle;rounded=0;orthogonalLoop=1;jettySize=auto;html=1;entryX=0;entryY=0.5;entryDx=0;entryDy=0;entryPerimeter=0;" edge="1" parent="1" source="ZOry-paT58BERrc_AvSt-3" target="ZOry-paT58BERrc_AvSt-4">
          <mxGeometry relative="1" as="geometry" />
        </mxCell>
        <mxCell id="ZOry-paT58BERrc_AvSt-6" value="电信拨号宽带1000M *1" style="text;strokeColor=none;align=center;fillColor=none;html=1;verticalAlign=middle;whiteSpace=wrap;rounded=0;fontColor=#FF0000;" vertex="1" parent="1">
          <mxGeometry x="7226.77" y="6681" width="95.49" height="30" as="geometry" />
        </mxCell>
        <mxCell id="ZOry-paT58BERrc_AvSt-7" style="edgeStyle=orthogonalEdgeStyle;rounded=0;orthogonalLoop=1;jettySize=auto;html=1;entryX=1;entryY=0.5;entryDx=0;entryDy=0;entryPerimeter=0;shape=link;exitX=0;exitY=0.5;exitDx=0;exitDy=0;exitPerimeter=0;" edge="1" parent="1" source="ZOry-paT58BERrc_AvSt-11" target="ZOry-paT58BERrc_AvSt-4">
          <mxGeometry relative="1" as="geometry">
            <mxPoint x="7630" y="6641.5" as="sourcePoint" />
          </mxGeometry>
        </mxCell>
        <mxCell id="ZX-uZPZNzGa8gvqMFOjR-11" style="edgeStyle=elbowEdgeStyle;rounded=0;orthogonalLoop=1;jettySize=auto;elbow=vertical;html=1;" edge="1" parent="1" source="ZOry-paT58BERrc_AvSt-11" target="ZX-uZPZNzGa8gvqMFOjR-9">
          <mxGeometry relative="1" as="geometry" />
        </mxCell>
        <mxCell id="ZX-uZPZNzGa8gvqMFOjR-13" style="edgeStyle=elbowEdgeStyle;rounded=0;orthogonalLoop=1;jettySize=auto;elbow=vertical;html=1;" edge="1" parent="1" target="ZOry-paT58BERrc_AvSt-28">
          <mxGeometry relative="1" as="geometry">
            <mxPoint x="7990" y="6700" as="sourcePoint" />
            <mxPoint x="8197.46" y="6660.03" as="targetPoint" />
            <Array as="points">
              <mxPoint x="8080" y="6700" />
            </Array>
          </mxGeometry>
        </mxCell>
        <mxCell id="ZOry-paT58BERrc_AvSt-11" value="17楼核心交换机&lt;div&gt;172.16.11.2/29&lt;/div&gt;" style="shape=mxgraph.cisco.misc.route_switch_processor;html=1;dashed=0;fillColor=#036897;strokeColor=#ffffff;strokeWidth=2;verticalLabelPosition=bottom;verticalAlign=top;rounded=0;shadow=0;comic=0;fontFamily=Verdana;fontSize=14;fontColor=#FF0000;textShadow=1;" vertex="1" parent="1">
          <mxGeometry x="7877.43" y="6600.25" width="102.57" height="89.75" as="geometry" />
        </mxCell>
        <mxCell id="JmqVqXpPbBqmW-JNHgzn-11" style="edgeStyle=elbowEdgeStyle;rounded=0;orthogonalLoop=1;jettySize=auto;elbow=vertical;html=1;" edge="1" parent="1" target="ZOry-paT58BERrc_AvSt-48">
          <mxGeometry relative="1" as="geometry">
            <mxPoint x="7930" y="6730" as="sourcePoint" />
            <Array as="points">
              <mxPoint x="8060" y="6820" />
            </Array>
          </mxGeometry>
        </mxCell>
        <mxCell id="q0xWw9Avtfxq15R-YrVf-4" style="edgeStyle=elbowEdgeStyle;rounded=0;orthogonalLoop=1;jettySize=auto;elbow=horizontal;html=1;" edge="1" parent="1" source="ZOry-paT58BERrc_AvSt-12" target="ZOry-paT58BERrc_AvSt-26">
          <mxGeometry relative="1" as="geometry" />
        </mxCell>
        <mxCell id="oWqjnQT-LbrAj3U69QYy-11" value="10.10.11.0/24" style="edgeLabel;html=1;align=center;verticalAlign=middle;resizable=0;points=[];" vertex="1" connectable="0" parent="q0xWw9Avtfxq15R-YrVf-4">
          <mxGeometry x="-0.1588" y="-2" relative="1" as="geometry">
            <mxPoint as="offset" />
          </mxGeometry>
        </mxCell>
        <mxCell id="ZOry-paT58BERrc_AvSt-12" value="16楼POE交换机" style="shape=mxgraph.cisco.switches.workgroup_switch;sketch=0;html=1;pointerEvents=1;dashed=0;fillColor=#036897;strokeColor=#ffffff;strokeWidth=2;verticalLabelPosition=bottom;verticalAlign=top;align=center;outlineConnect=0;fontSize=13;fontColor=#FF0000;textShadow=1;" vertex="1" parent="1">
          <mxGeometry x="8160.28" y="7023" width="80" height="36.06" as="geometry" />
        </mxCell>
        <mxCell id="ZOry-paT58BERrc_AvSt-14" value="" style="group" vertex="1" connectable="0" parent="1">
          <mxGeometry x="8396.41" y="6590" width="69.72999999999956" height="57.9" as="geometry" />
        </mxCell>
        <mxCell id="ZOry-paT58BERrc_AvSt-15" value="" style="shape=image;verticalLabelPosition=bottom;labelBackgroundColor=default;verticalAlign=top;aspect=fixed;imageAspect=0;image=data:image/png,iVBORw0KGgoAAAANSUhEUgAAACUAAAAlCAYAAADFniADAAAKbklEQVRYCe2Yd1RUVx6As2dPYkVBwI4DGrsx5ZhkE10R6diwQGQtSYyxrFFjjtF1FbOaAgxFOkix4RILKNhQUSMSEMWyogYpImVohiodlG/PvTijwJh1/9hz8sfOOXfmvvvuu++7v37nFX6Hn1d+h0z8V1AVtc1cuFEAra0vtZf6phbqG5upa2x+qfnqSS8F9XOais9cTvH+yoMMcQhjjvNxslUV6jU6/TY1P+bvOy8xaXU0U9dFY7o2ir8FJ1BV29RprraB34TKK6liuftZjOYG08NciY65K11MXdG382VLaKK29eRYbGIGb332T7pN9eS1yS70slDS1cwd242xnEy+/8Ln1DdeCFVUXs+fV0XSdYoSfWsPupm5YeIQJCWQraokI7+SM1fusy08gY+cj+L0TQwb/M8RfzWHa+nF1NS3kJSWj+OWaPRsdqBn5U6PqW4MnrOTkym56vdr/dUKlV9azSznM3Q3c0XfxgMDO2/W+cZzv7CKX3IrWK6Mw3iOP/1mBmI43Y/uZm6y9bH1pv+sIIbM9mf61wc5npQtXxp59g6jF4TSY6qS3pZKBs0OIuriPa1AYrAT1H1VBZNX/Ug3M1cMbD3RsfRkb1waWQXlLHM7jeE0H7pPVdLH2oN+07y0NgMbDymVPna+mK2OJKeoioz8ciatjEDP2hNdSyWD5wQT9ZN2sE5Qn7qcpoupG/o27vS28uTwhXTu5ZVhZO9D1yluGNh60P8pTF87L3pbtqlFqEbYTl87Tw2o6OuYKxloH0hA9HVaW1uZviFKmoKY++7KKPJLqjpJrB1UTMI9+s8MkCrTs/EiIi6NzPxyxizchY6FG/2nt0lGSLCnuRI92x18uGIP85yjcXCOxmxNBANm+dPb2gtdK3cNnJ61O3q2vgTH3ORBURXjFoW12Zi5krW+P70Yqra+iRmbjsmdvTrZlc07L6J6+IihDkHomLcBCQnpWXkw0N6fzz3juJZdSuWjp27eCnUNT7iVW4bPsZuMXhAiwdUqFirVtfUj6VY+t7JKMJjuL9X49tJIcgor24FpJFVaUcu7yw/Q1fQHPlwRQUNTC/O3HpEhQMCIpmPhzthFO7mWWUxlVjkXXJM54LibIx/tJMphJ1GOYSR6XKYouYCy+maWeZ6V3qtWqa6VB+MXhSLetcrjtITubeNN0JFr2qEeSqiDdJ/qwfGfM7iT8xDhTc8v+PZne8gvr+H2/jvsnuLP2WGO3FZ8QO6gUTwYPIbswW9wfvh8Qia4cNnvCk01jSzzPCNtU0hMqP81UyXbd10iLbsUAzsfepi747g5WjtU5aMGLNfH0n+mr9zJou2x0oXFYsK4B88J4BdVBWn7bhH11kbSTd6jUqHgofHrlBiPlK3UZARl+oY8MDBh1/D1xG9PoLqlRapS76m3Cs97Y1EoVTWNMob1tQ+T8e55Ko36xOCVuyq27Ukh5U4hBnY7ZEgQUCK+rA08R82DSsIm+pJh8g4VQxQUmYx+1oaOQWVgxK+zP6J64SLyDYw58N52VFeKiLuZK7OAtC87L/rPCpTvOnzhF7wPXX+eR/bbQYkRkbdiEjLQtfGRdmRo54nhdB9u3n/ImS3xXDSZSbnC+BnMU7BCQyPKFi6htaVFLtywbi1X9Sdw6PPDlFfV8+7S3TJwCrCe5u6s8oiTyboTkbbgKSY5hyWia71DurSIQ2Zr91NZ08iRWYHkGI2jxHhEJyiV/iAqVqzWvKPh0GEKeg8g/E1niq8XMXfbURlQBVS3Ka4ywWsmd+h0kpS4P9f5hEwx6gWE6irv/UrkZDcKFaMoNhnZCapI0TZWsWodlWvXU/LOB5QNMuLcmysoSC1l5+k0DKb5yo2KQLt4e2wHlGeXWqEcth7T7KrrFFfWBJ8n53Qm4W/+g0KTsdqhho6hSDEKld5AVLoDKBw8nHJjExLeXkHxzTJ+uqvCcIZ/G5S5EqetR55RdOhphXLadkIT+HqYubHE7SSNNU3ETPdBNXiEdqjnjd5kNMUmoyg1GU7U2DXkJqlYHXgeXeu2jCAS+JLvj3dAeXapFWr/mdsy4gr16dt4MswxkLziag457eW24k+UKYZ2Vl8HqFLj4WQq3iHcwp+K3ArsNh7SmISQ/sffnXhG0aHXDqr1yROSbhdyLDGT7lPbcpdMulZeHEi8R/qxDA6N+ZJi4xEyLrULCe2gRlGlMCJu2AIuB6WSX13HkLmBMt6Jjfax8yH46HWZbkRu7fhpByVKVouvolGVPmL8ohBNUhUZfeKqCJrrm9m3IIpLw2bKOFUqvXBUO6mJscohQ0gwmc6P8yJprG7kC9+zGtWJQKyYF0xxWS3fhF1k7tZTPHnSvubXQCXcyGXYX/bRzUwpq8eQ2OuyL3Ymmp6NN99FptBSWsuP8/ZxdPhS8ozH8avx65QPUcjYVaEwJlfxBvEjnAizDKckKY/42wX0sfXB0LatpBGeZ7/xIA8r6xjptJM+0/w5lZzVTlgaqNMp2Rg7htHF9AfmbY7mUV0jo52CNNISO+xt7c23kZdpKqkhwSWRsImeHB25gsSxC7k0djHnRn1ChKknh1cdo7WsgeTMEgbZ+2kKQmEK3c09iE/Nwe/wVbqJStTGh72nbmmHqm9swfzLKHpZKqWoL1x/ICe/avqscBN1lPCgT91OkppVQm3eI7LO5JAel8Pd49lkxefSUFBHcXktysPXeH1+qCz8RCIWVUaXKUrW+8XT0Ngs86EojQfMDiYuua1sVpNpJCUGvgm9SFczpVzow+X7eFhRx4aAC1KN6mpBqFKUwwNn+eL0fSwRCemkZJdwOauEmNQcPnE7wbjFIfQw95CFnBqop4U7HyzbS01dI5tDEmQcFGeAec7HePwimxJQucWVTFx16OmRyA2bryIl/Hr/83KX4hAhdizAhI10neKCvp03A2cHydZvZoA8QKgrArU9/nHSD0xauV9WBtt3J9HNzB19a3dM5ocTd7m9PYkXtpOUGAiNvUEfO2EH7vSydGdTcAKP6prYGHCeAfaBiBgj1Kh+Yd9pXghbUTfNuJ0oCpWyXlrjHY+o17aFX0LHyhtDWw9em+IuKxK56w5fnaDEff8jN9Cz9ZFgr052wfSvEeSWVJOeVyETab8ZvvS0eHpisfZADSYkKbxLx8JDPm+5NpKTSVk0Nj9hc8gleSAVQD0tvXBwjqWsqrYDTtulVihxK/xUOvrT/NCzUkqJiXNbZHw6j1vh7oMyvt2TxIyvDzJh6T6M5oWgcAhl/Cd7mb0pmg0B50i+XYg40IYev8X4xWGyXBEqEydlx2+OS+/WSqRNfc9PDDj6L0zm75I2JirGXlZeTFiyi01BFzgv/ugACkqrSb5dQModlTwbirGbmSV4HUzlrY/DpMH3tlDKckXhEMZX/hepbfjtPzxeKCk13I3MUqZtjJFS07HawR8nKzG0D8PzwFVaHj9RT2v3m5RWwPtfHOUPE13oZemJ4YwAZm85yamUvHbzXnTxH6HEgy2PWzl0IYOAqFT8DqcSl5LzovU04yKnfa48wwr308QkdvYwzUQtnZeC0vLc/3To/1AvK95/A9GoclphejwTAAAAAElFTkSuQmCC;" vertex="1" parent="ZOry-paT58BERrc_AvSt-14">
          <mxGeometry x="48.32999999999993" y="36.5" width="21.4" height="21.4" as="geometry" />
        </mxCell>
        <mxCell id="ZOry-paT58BERrc_AvSt-16" value="" style="group" vertex="1" connectable="0" parent="ZOry-paT58BERrc_AvSt-14">
          <mxGeometry width="69.73" height="57.9" as="geometry" />
        </mxCell>
        <mxCell id="ZOry-paT58BERrc_AvSt-17" value="PC" style="points=[[0.03,0.03,0],[0.5,0,0],[0.97,0.03,0],[1,0.4,0],[0.97,0.745,0],[0.5,1,0],[0.03,0.745,0],[0,0.4,0]];verticalLabelPosition=bottom;sketch=0;html=1;verticalAlign=top;aspect=fixed;align=center;pointerEvents=1;shape=mxgraph.cisco19.workstation;fillColor=#005073;strokeColor=none;textShadow=1;" vertex="1" parent="ZOry-paT58BERrc_AvSt-16">
          <mxGeometry width="69.73" height="55.79" as="geometry" />
        </mxCell>
        <mxCell id="oWqjnQT-LbrAj3U69QYy-9" style="edgeStyle=elbowEdgeStyle;rounded=0;orthogonalLoop=1;jettySize=auto;elbow=vertical;html=1;" edge="1" parent="1" source="ZOry-paT58BERrc_AvSt-26" target="evnr2yAesDjcKKSdun86-1">
          <mxGeometry relative="1" as="geometry">
            <mxPoint x="8610" y="7050" as="targetPoint" />
          </mxGeometry>
        </mxCell>
        <mxCell id="oWqjnQT-LbrAj3U69QYy-10" value="192.168.20.0/24" style="edgeLabel;html=1;align=center;verticalAlign=middle;resizable=0;points=[];" vertex="1" connectable="0" parent="oWqjnQT-LbrAj3U69QYy-9">
          <mxGeometry x="-0.3" relative="1" as="geometry">
            <mxPoint as="offset" />
          </mxGeometry>
        </mxCell>
        <mxCell id="ZOry-paT58BERrc_AvSt-26" value="无线AP*3" style="points=[[0.03,0.36,0],[0.18,0,0],[0.5,0.34,0],[0.82,0,0],[0.97,0.36,0],[1,0.67,0],[0.975,0.975,0],[0.5,1,0],[0.025,0.975,0],[0,0.67,0]];verticalLabelPosition=bottom;sketch=0;html=1;verticalAlign=top;aspect=fixed;align=center;pointerEvents=1;shape=mxgraph.cisco19.wireless_access_point;fillColor=#005073;strokeColor=none;labelBorderColor=none;textShadow=1;fontColor=#FF0000;" vertex="1" parent="1">
          <mxGeometry x="8400" y="7009.530000000001" width="63" height="63" as="geometry" />
        </mxCell>
        <mxCell id="JmqVqXpPbBqmW-JNHgzn-19" style="edgeStyle=elbowEdgeStyle;rounded=0;orthogonalLoop=1;jettySize=auto;elbow=vertical;html=1;" edge="1" parent="1" source="ZOry-paT58BERrc_AvSt-28" target="JmqVqXpPbBqmW-JNHgzn-18">
          <mxGeometry relative="1" as="geometry" />
        </mxCell>
        <mxCell id="oWqjnQT-LbrAj3U69QYy-4" value="172.16.17.0/24" style="edgeLabel;html=1;align=center;verticalAlign=middle;resizable=0;points=[];" vertex="1" connectable="0" parent="JmqVqXpPbBqmW-JNHgzn-19">
          <mxGeometry x="-0.1206" y="-1" relative="1" as="geometry">
            <mxPoint as="offset" />
          </mxGeometry>
        </mxCell>
        <mxCell id="ZOry-paT58BERrc_AvSt-28" value="17楼层交换机" style="shape=mxgraph.cisco.switches.workgroup_switch;sketch=0;html=1;pointerEvents=1;dashed=0;fillColor=#036897;strokeColor=#ffffff;strokeWidth=2;verticalLabelPosition=bottom;verticalAlign=top;align=center;outlineConnect=0;fontSize=13;fontColor=#FF0000;textShadow=1;" vertex="1" parent="1">
          <mxGeometry x="8154.639999999999" y="6681" width="85.64" height="40" as="geometry" />
        </mxCell>
        <mxCell id="ZOry-paT58BERrc_AvSt-47" value="网络准入&lt;div&gt;172.16.11.4/29&lt;/div&gt;" style="sketch=0;points=[[0.015,0.015,0],[0.985,0.015,0],[0.985,0.985,0],[0.015,0.985,0],[0.25,0,0],[0.5,0,0],[0.75,0,0],[1,0.25,0],[1,0.5,0],[1,0.75,0],[0.75,1,0],[0.5,1,0],[0.25,1,0],[0,0.75,0],[0,0.5,0],[0,0.25,0]];verticalLabelPosition=bottom;html=1;verticalAlign=top;aspect=fixed;align=center;pointerEvents=1;shape=mxgraph.cisco19.rect;prIcon=asa_5500;fillColor=#FAFAFA;strokeColor=#005073;fontColor=#FF0000;textShadow=1;" vertex="1" parent="1">
          <mxGeometry x="7675.6" y="6603" width="102.4" height="80" as="geometry" />
        </mxCell>
        <mxCell id="JmqVqXpPbBqmW-JNHgzn-12" style="edgeStyle=elbowEdgeStyle;rounded=0;orthogonalLoop=1;jettySize=auto;elbow=vertical;html=1;" edge="1" parent="1" source="ZOry-paT58BERrc_AvSt-48" target="ZOry-paT58BERrc_AvSt-49">
          <mxGeometry relative="1" as="geometry" />
        </mxCell>
        <mxCell id="oWqjnQT-LbrAj3U69QYy-2" value="192.168.100.0/24" style="edgeLabel;html=1;align=center;verticalAlign=middle;resizable=0;points=[];" vertex="1" connectable="0" parent="JmqVqXpPbBqmW-JNHgzn-12">
          <mxGeometry x="-0.2271" y="-1" relative="1" as="geometry">
            <mxPoint as="offset" />
          </mxGeometry>
        </mxCell>
        <mxCell id="DBPMjnGHVAKKjfrN9TNZ-29" style="edgeStyle=elbowEdgeStyle;rounded=0;orthogonalLoop=1;jettySize=auto;elbow=vertical;html=1;" edge="1" parent="1" source="ZOry-paT58BERrc_AvSt-48" target="DBPMjnGHVAKKjfrN9TNZ-26">
          <mxGeometry relative="1" as="geometry">
            <Array as="points">
              <mxPoint x="8290" y="6940" />
            </Array>
          </mxGeometry>
        </mxCell>
        <mxCell id="oWqjnQT-LbrAj3U69QYy-3" value="192.168.100.0/24" style="edgeLabel;html=1;align=center;verticalAlign=middle;resizable=0;points=[];" vertex="1" connectable="0" parent="DBPMjnGHVAKKjfrN9TNZ-29">
          <mxGeometry x="0.234" y="-1" relative="1" as="geometry">
            <mxPoint as="offset" />
          </mxGeometry>
        </mxCell>
        <mxCell id="ZOry-paT58BERrc_AvSt-48" value="17楼服务器交换机" style="shape=mxgraph.cisco.switches.workgroup_switch;sketch=0;html=1;pointerEvents=1;dashed=0;fillColor=#036897;strokeColor=#ffffff;strokeWidth=2;verticalLabelPosition=bottom;verticalAlign=top;align=center;outlineConnect=0;fontSize=13;fontColor=#FF0000;textShadow=1;" vertex="1" parent="1">
          <mxGeometry x="8160.279999999999" y="6790" width="80" height="40" as="geometry" />
        </mxCell>
        <mxCell id="ZOry-paT58BERrc_AvSt-49" value="打印机" style="points=[[0.22,0.185,0],[0.5,0,0],[0.78,0.185,0],[0.975,0.49,0],[1,0.73,0],[0.975,0.97,0],[0.5,1,0],[0.025,0.97,0],[0,0.73,0],[0.025,0.49,0]];verticalLabelPosition=bottom;sketch=0;html=1;verticalAlign=top;aspect=fixed;align=center;pointerEvents=1;shape=mxgraph.cisco19.printer;fillColor=#005073;strokeColor=none;textShadow=1;" vertex="1" parent="1">
          <mxGeometry x="8399.56" y="6790" width="63.44" height="57.1" as="geometry" />
        </mxCell>
        <mxCell id="ZOry-paT58BERrc_AvSt-51" value="1楼层交换机" style="shape=mxgraph.cisco.switches.workgroup_switch;sketch=0;html=1;pointerEvents=1;dashed=0;fillColor=#036897;strokeColor=#ffffff;strokeWidth=2;verticalLabelPosition=bottom;verticalAlign=top;align=center;outlineConnect=0;fontSize=13;fontColor=#FF0000;textShadow=1;" vertex="1" parent="1">
          <mxGeometry x="8154.64" y="6510" width="81" height="36.06" as="geometry" />
        </mxCell>
        <mxCell id="ZX-uZPZNzGa8gvqMFOjR-20" value="&#xa;&lt;span style=&quot;color: rgb(0, 0, 0); font-family: Helvetica; font-size: 11px; font-style: normal; font-variant-ligatures: normal; font-variant-caps: normal; font-weight: 400; letter-spacing: normal; orphans: 2; text-align: center; text-indent: 0px; text-transform: none; widows: 2; word-spacing: 0px; -webkit-text-stroke-width: 0px; white-space: nowrap; background-color: rgb(255, 255, 255); text-decoration-thickness: initial; text-decoration-style: initial; text-decoration-color: initial; display: inline !important; float: none;&quot;&gt;172.16.16.0/24&lt;/span&gt;&#xa;&#xa;" style="edgeStyle=elbowEdgeStyle;rounded=0;orthogonalLoop=1;jettySize=auto;elbow=vertical;html=1;" edge="1" parent="1" source="ZX-uZPZNzGa8gvqMFOjR-9" target="ZOry-paT58BERrc_AvSt-17">
          <mxGeometry relative="1" as="geometry" />
        </mxCell>
        <mxCell id="ZX-uZPZNzGa8gvqMFOjR-9" value="16楼层交换机" style="shape=mxgraph.cisco.switches.workgroup_switch;sketch=0;html=1;pointerEvents=1;dashed=0;fillColor=#036897;strokeColor=#ffffff;strokeWidth=2;verticalLabelPosition=bottom;verticalAlign=top;align=center;outlineConnect=0;fontSize=13;fontColor=#FF0000;textShadow=1;" vertex="1" parent="1">
          <mxGeometry x="8149.999999999999" y="6590" width="85.64" height="40" as="geometry" />
        </mxCell>
        <mxCell id="ZX-uZPZNzGa8gvqMFOjR-12" style="edgeStyle=elbowEdgeStyle;rounded=0;orthogonalLoop=1;jettySize=auto;elbow=vertical;html=1;" edge="1" parent="1" target="ZOry-paT58BERrc_AvSt-12">
          <mxGeometry relative="1" as="geometry">
            <mxPoint x="7910" y="6730" as="sourcePoint" />
            <mxPoint x="7917.429999999999" y="6910" as="targetPoint" />
            <Array as="points">
              <mxPoint x="8060" y="7050" />
              <mxPoint x="7910" y="6830" />
              <mxPoint x="7907" y="6800" />
            </Array>
          </mxGeometry>
        </mxCell>
        <mxCell id="ZX-uZPZNzGa8gvqMFOjR-15" style="edgeStyle=elbowEdgeStyle;rounded=0;orthogonalLoop=1;jettySize=auto;elbow=vertical;html=1;" edge="1" parent="1" source="ZOry-paT58BERrc_AvSt-11" target="ZOry-paT58BERrc_AvSt-51">
          <mxGeometry relative="1" as="geometry">
            <mxPoint x="8120" y="6530" as="targetPoint" />
            <Array as="points">
              <mxPoint x="8030" y="6530" />
            </Array>
          </mxGeometry>
        </mxCell>
        <mxCell id="JmqVqXpPbBqmW-JNHgzn-15" value="" style="group" vertex="1" connectable="0" parent="1">
          <mxGeometry x="8393.27" y="6675" width="69.72999999999956" height="57.9" as="geometry" />
        </mxCell>
        <mxCell id="JmqVqXpPbBqmW-JNHgzn-16" value="" style="shape=image;verticalLabelPosition=bottom;labelBackgroundColor=default;verticalAlign=top;aspect=fixed;imageAspect=0;image=data:image/png,iVBORw0KGgoAAAANSUhEUgAAACUAAAAlCAYAAADFniADAAAKbklEQVRYCe2Yd1RUVx6As2dPYkVBwI4DGrsx5ZhkE10R6diwQGQtSYyxrFFjjtF1FbOaAgxFOkix4RILKNhQUSMSEMWyogYpImVohiodlG/PvTijwJh1/9hz8sfOOXfmvvvuu++7v37nFX6Hn1d+h0z8V1AVtc1cuFEAra0vtZf6phbqG5upa2x+qfnqSS8F9XOais9cTvH+yoMMcQhjjvNxslUV6jU6/TY1P+bvOy8xaXU0U9dFY7o2ir8FJ1BV29RprraB34TKK6liuftZjOYG08NciY65K11MXdG382VLaKK29eRYbGIGb332T7pN9eS1yS70slDS1cwd242xnEy+/8Ln1DdeCFVUXs+fV0XSdYoSfWsPupm5YeIQJCWQraokI7+SM1fusy08gY+cj+L0TQwb/M8RfzWHa+nF1NS3kJSWj+OWaPRsdqBn5U6PqW4MnrOTkym56vdr/dUKlV9azSznM3Q3c0XfxgMDO2/W+cZzv7CKX3IrWK6Mw3iOP/1mBmI43Y/uZm6y9bH1pv+sIIbM9mf61wc5npQtXxp59g6jF4TSY6qS3pZKBs0OIuriPa1AYrAT1H1VBZNX/Ug3M1cMbD3RsfRkb1waWQXlLHM7jeE0H7pPVdLH2oN+07y0NgMbDymVPna+mK2OJKeoioz8ciatjEDP2hNdSyWD5wQT9ZN2sE5Qn7qcpoupG/o27vS28uTwhXTu5ZVhZO9D1yluGNh60P8pTF87L3pbtqlFqEbYTl87Tw2o6OuYKxloH0hA9HVaW1uZviFKmoKY++7KKPJLqjpJrB1UTMI9+s8MkCrTs/EiIi6NzPxyxizchY6FG/2nt0lGSLCnuRI92x18uGIP85yjcXCOxmxNBANm+dPb2gtdK3cNnJ61O3q2vgTH3ORBURXjFoW12Zi5krW+P70Yqra+iRmbjsmdvTrZlc07L6J6+IihDkHomLcBCQnpWXkw0N6fzz3juJZdSuWjp27eCnUNT7iVW4bPsZuMXhAiwdUqFirVtfUj6VY+t7JKMJjuL9X49tJIcgor24FpJFVaUcu7yw/Q1fQHPlwRQUNTC/O3HpEhQMCIpmPhzthFO7mWWUxlVjkXXJM54LibIx/tJMphJ1GOYSR6XKYouYCy+maWeZ6V3qtWqa6VB+MXhSLetcrjtITubeNN0JFr2qEeSqiDdJ/qwfGfM7iT8xDhTc8v+PZne8gvr+H2/jvsnuLP2WGO3FZ8QO6gUTwYPIbswW9wfvh8Qia4cNnvCk01jSzzPCNtU0hMqP81UyXbd10iLbsUAzsfepi747g5WjtU5aMGLNfH0n+mr9zJou2x0oXFYsK4B88J4BdVBWn7bhH11kbSTd6jUqHgofHrlBiPlK3UZARl+oY8MDBh1/D1xG9PoLqlRapS76m3Cs97Y1EoVTWNMob1tQ+T8e55Ko36xOCVuyq27Ukh5U4hBnY7ZEgQUCK+rA08R82DSsIm+pJh8g4VQxQUmYx+1oaOQWVgxK+zP6J64SLyDYw58N52VFeKiLuZK7OAtC87L/rPCpTvOnzhF7wPXX+eR/bbQYkRkbdiEjLQtfGRdmRo54nhdB9u3n/ImS3xXDSZSbnC+BnMU7BCQyPKFi6htaVFLtywbi1X9Sdw6PPDlFfV8+7S3TJwCrCe5u6s8oiTyboTkbbgKSY5hyWia71DurSIQ2Zr91NZ08iRWYHkGI2jxHhEJyiV/iAqVqzWvKPh0GEKeg8g/E1niq8XMXfbURlQBVS3Ka4ywWsmd+h0kpS4P9f5hEwx6gWE6irv/UrkZDcKFaMoNhnZCapI0TZWsWodlWvXU/LOB5QNMuLcmysoSC1l5+k0DKb5yo2KQLt4e2wHlGeXWqEcth7T7KrrFFfWBJ8n53Qm4W/+g0KTsdqhho6hSDEKld5AVLoDKBw8nHJjExLeXkHxzTJ+uqvCcIZ/G5S5EqetR55RdOhphXLadkIT+HqYubHE7SSNNU3ETPdBNXiEdqjnjd5kNMUmoyg1GU7U2DXkJqlYHXgeXeu2jCAS+JLvj3dAeXapFWr/mdsy4gr16dt4MswxkLziag457eW24k+UKYZ2Vl8HqFLj4WQq3iHcwp+K3ArsNh7SmISQ/sffnXhG0aHXDqr1yROSbhdyLDGT7lPbcpdMulZeHEi8R/qxDA6N+ZJi4xEyLrULCe2gRlGlMCJu2AIuB6WSX13HkLmBMt6Jjfax8yH46HWZbkRu7fhpByVKVouvolGVPmL8ohBNUhUZfeKqCJrrm9m3IIpLw2bKOFUqvXBUO6mJscohQ0gwmc6P8yJprG7kC9+zGtWJQKyYF0xxWS3fhF1k7tZTPHnSvubXQCXcyGXYX/bRzUwpq8eQ2OuyL3Ymmp6NN99FptBSWsuP8/ZxdPhS8ozH8avx65QPUcjYVaEwJlfxBvEjnAizDKckKY/42wX0sfXB0LatpBGeZ7/xIA8r6xjptJM+0/w5lZzVTlgaqNMp2Rg7htHF9AfmbY7mUV0jo52CNNISO+xt7c23kZdpKqkhwSWRsImeHB25gsSxC7k0djHnRn1ChKknh1cdo7WsgeTMEgbZ+2kKQmEK3c09iE/Nwe/wVbqJStTGh72nbmmHqm9swfzLKHpZKqWoL1x/ICe/avqscBN1lPCgT91OkppVQm3eI7LO5JAel8Pd49lkxefSUFBHcXktysPXeH1+qCz8RCIWVUaXKUrW+8XT0Ngs86EojQfMDiYuua1sVpNpJCUGvgm9SFczpVzow+X7eFhRx4aAC1KN6mpBqFKUwwNn+eL0fSwRCemkZJdwOauEmNQcPnE7wbjFIfQw95CFnBqop4U7HyzbS01dI5tDEmQcFGeAec7HePwimxJQucWVTFx16OmRyA2bryIl/Hr/83KX4hAhdizAhI10neKCvp03A2cHydZvZoA8QKgrArU9/nHSD0xauV9WBtt3J9HNzB19a3dM5ocTd7m9PYkXtpOUGAiNvUEfO2EH7vSydGdTcAKP6prYGHCeAfaBiBgj1Kh+Yd9pXghbUTfNuJ0oCpWyXlrjHY+o17aFX0LHyhtDWw9em+IuKxK56w5fnaDEff8jN9Cz9ZFgr052wfSvEeSWVJOeVyETab8ZvvS0eHpisfZADSYkKbxLx8JDPm+5NpKTSVk0Nj9hc8gleSAVQD0tvXBwjqWsqrYDTtulVihxK/xUOvrT/NCzUkqJiXNbZHw6j1vh7oMyvt2TxIyvDzJh6T6M5oWgcAhl/Cd7mb0pmg0B50i+XYg40IYev8X4xWGyXBEqEydlx2+OS+/WSqRNfc9PDDj6L0zm75I2JirGXlZeTFiyi01BFzgv/ugACkqrSb5dQModlTwbirGbmSV4HUzlrY/DpMH3tlDKckXhEMZX/hepbfjtPzxeKCk13I3MUqZtjJFS07HawR8nKzG0D8PzwFVaHj9RT2v3m5RWwPtfHOUPE13oZemJ4YwAZm85yamUvHbzXnTxH6HEgy2PWzl0IYOAqFT8DqcSl5LzovU04yKnfa48wwr308QkdvYwzUQtnZeC0vLc/3To/1AvK95/A9GoclphejwTAAAAAElFTkSuQmCC;" vertex="1" parent="JmqVqXpPbBqmW-JNHgzn-15">
          <mxGeometry x="48.32999999999993" y="36.5" width="21.4" height="21.4" as="geometry" />
        </mxCell>
        <mxCell id="JmqVqXpPbBqmW-JNHgzn-17" value="" style="group" vertex="1" connectable="0" parent="JmqVqXpPbBqmW-JNHgzn-15">
          <mxGeometry width="69.73" height="57.9" as="geometry" />
        </mxCell>
        <mxCell id="JmqVqXpPbBqmW-JNHgzn-18" value="PC" style="points=[[0.03,0.03,0],[0.5,0,0],[0.97,0.03,0],[1,0.4,0],[0.97,0.745,0],[0.5,1,0],[0.03,0.745,0],[0,0.4,0]];verticalLabelPosition=bottom;sketch=0;html=1;verticalAlign=top;aspect=fixed;align=center;pointerEvents=1;shape=mxgraph.cisco19.workstation;fillColor=#005073;strokeColor=none;textShadow=1;" vertex="1" parent="JmqVqXpPbBqmW-JNHgzn-17">
          <mxGeometry width="69.73" height="55.79" as="geometry" />
        </mxCell>
        <mxCell id="DBPMjnGHVAKKjfrN9TNZ-1" value="" style="group" vertex="1" connectable="0" parent="1">
          <mxGeometry x="7380" y="7150" width="360" height="276" as="geometry" />
        </mxCell>
        <mxCell id="DBPMjnGHVAKKjfrN9TNZ-2" value="DHCP:192.168.100.0/24" style="shape=note;whiteSpace=wrap;html=1;backgroundOutline=1;darkOpacity=0.05;size=14;fillColor=#fff2cc;strokeColor=#d6b656;" vertex="1" parent="DBPMjnGHVAKKjfrN9TNZ-1">
          <mxGeometry width="360" height="276" as="geometry" />
        </mxCell>
        <mxCell id="DBPMjnGHVAKKjfrN9TNZ-3" value="16楼层交换机-1" style="shape=mxgraph.cisco.switches.workgroup_switch;sketch=0;html=1;pointerEvents=1;dashed=0;fillColor=#036897;strokeColor=#ffffff;strokeWidth=2;verticalLabelPosition=bottom;verticalAlign=top;align=center;outlineConnect=0;fontSize=13;fontColor=#FF0000;textShadow=1;" vertex="1" parent="DBPMjnGHVAKKjfrN9TNZ-1">
          <mxGeometry x="50.5" y="32.349999999998545" width="93.07" height="36.06" as="geometry" />
        </mxCell>
        <mxCell id="DBPMjnGHVAKKjfrN9TNZ-4" value="16楼层交换机-2" style="shape=mxgraph.cisco.switches.workgroup_switch;sketch=0;html=1;pointerEvents=1;dashed=0;fillColor=#036897;strokeColor=#ffffff;strokeWidth=2;verticalLabelPosition=bottom;verticalAlign=top;align=center;outlineConnect=0;fontSize=13;fontColor=#FF0000;textShadow=1;" vertex="1" parent="DBPMjnGHVAKKjfrN9TNZ-1">
          <mxGeometry x="230.5" y="32.349999999998545" width="93.07" height="36.06" as="geometry" />
        </mxCell>
        <mxCell id="DBPMjnGHVAKKjfrN9TNZ-5" value="&lt;font color=&quot;#ff0000&quot; style=&quot;font-size: 13px;&quot;&gt;隔离网&lt;/font&gt;" style="text;strokeColor=none;align=center;fillColor=none;html=1;verticalAlign=middle;whiteSpace=wrap;rounded=0;shadow=0;glass=0;textShadow=1;fontSize=13;" vertex="1" parent="DBPMjnGHVAKKjfrN9TNZ-1">
          <mxGeometry width="50" height="30" as="geometry" />
        </mxCell>
        <mxCell id="DBPMjnGHVAKKjfrN9TNZ-6" value="" style="group" vertex="1" connectable="0" parent="DBPMjnGHVAKKjfrN9TNZ-1">
          <mxGeometry x="61.5" y="182.76999999999862" width="69.72999999999956" height="57.9" as="geometry" />
        </mxCell>
        <mxCell id="DBPMjnGHVAKKjfrN9TNZ-7" value="" style="shape=image;verticalLabelPosition=bottom;labelBackgroundColor=default;verticalAlign=top;aspect=fixed;imageAspect=0;image=data:image/png,iVBORw0KGgoAAAANSUhEUgAAACUAAAAlCAYAAADFniADAAAKbklEQVRYCe2Yd1RUVx6As2dPYkVBwI4DGrsx5ZhkE10R6diwQGQtSYyxrFFjjtF1FbOaAgxFOkix4RILKNhQUSMSEMWyogYpImVohiodlG/PvTijwJh1/9hz8sfOOXfmvvvuu++7v37nFX6Hn1d+h0z8V1AVtc1cuFEAra0vtZf6phbqG5upa2x+qfnqSS8F9XOais9cTvH+yoMMcQhjjvNxslUV6jU6/TY1P+bvOy8xaXU0U9dFY7o2ir8FJ1BV29RprraB34TKK6liuftZjOYG08NciY65K11MXdG382VLaKK29eRYbGIGb332T7pN9eS1yS70slDS1cwd242xnEy+/8Ln1DdeCFVUXs+fV0XSdYoSfWsPupm5YeIQJCWQraokI7+SM1fusy08gY+cj+L0TQwb/M8RfzWHa+nF1NS3kJSWj+OWaPRsdqBn5U6PqW4MnrOTkym56vdr/dUKlV9azSznM3Q3c0XfxgMDO2/W+cZzv7CKX3IrWK6Mw3iOP/1mBmI43Y/uZm6y9bH1pv+sIIbM9mf61wc5npQtXxp59g6jF4TSY6qS3pZKBs0OIuriPa1AYrAT1H1VBZNX/Ug3M1cMbD3RsfRkb1waWQXlLHM7jeE0H7pPVdLH2oN+07y0NgMbDymVPna+mK2OJKeoioz8ciatjEDP2hNdSyWD5wQT9ZN2sE5Qn7qcpoupG/o27vS28uTwhXTu5ZVhZO9D1yluGNh60P8pTF87L3pbtqlFqEbYTl87Tw2o6OuYKxloH0hA9HVaW1uZviFKmoKY++7KKPJLqjpJrB1UTMI9+s8MkCrTs/EiIi6NzPxyxizchY6FG/2nt0lGSLCnuRI92x18uGIP85yjcXCOxmxNBANm+dPb2gtdK3cNnJ61O3q2vgTH3ORBURXjFoW12Zi5krW+P70Yqra+iRmbjsmdvTrZlc07L6J6+IihDkHomLcBCQnpWXkw0N6fzz3juJZdSuWjp27eCnUNT7iVW4bPsZuMXhAiwdUqFirVtfUj6VY+t7JKMJjuL9X49tJIcgor24FpJFVaUcu7yw/Q1fQHPlwRQUNTC/O3HpEhQMCIpmPhzthFO7mWWUxlVjkXXJM54LibIx/tJMphJ1GOYSR6XKYouYCy+maWeZ6V3qtWqa6VB+MXhSLetcrjtITubeNN0JFr2qEeSqiDdJ/qwfGfM7iT8xDhTc8v+PZne8gvr+H2/jvsnuLP2WGO3FZ8QO6gUTwYPIbswW9wfvh8Qia4cNnvCk01jSzzPCNtU0hMqP81UyXbd10iLbsUAzsfepi747g5WjtU5aMGLNfH0n+mr9zJou2x0oXFYsK4B88J4BdVBWn7bhH11kbSTd6jUqHgofHrlBiPlK3UZARl+oY8MDBh1/D1xG9PoLqlRapS76m3Cs97Y1EoVTWNMob1tQ+T8e55Ko36xOCVuyq27Ukh5U4hBnY7ZEgQUCK+rA08R82DSsIm+pJh8g4VQxQUmYx+1oaOQWVgxK+zP6J64SLyDYw58N52VFeKiLuZK7OAtC87L/rPCpTvOnzhF7wPXX+eR/bbQYkRkbdiEjLQtfGRdmRo54nhdB9u3n/ImS3xXDSZSbnC+BnMU7BCQyPKFi6htaVFLtywbi1X9Sdw6PPDlFfV8+7S3TJwCrCe5u6s8oiTyboTkbbgKSY5hyWia71DurSIQ2Zr91NZ08iRWYHkGI2jxHhEJyiV/iAqVqzWvKPh0GEKeg8g/E1niq8XMXfbURlQBVS3Ka4ywWsmd+h0kpS4P9f5hEwx6gWE6irv/UrkZDcKFaMoNhnZCapI0TZWsWodlWvXU/LOB5QNMuLcmysoSC1l5+k0DKb5yo2KQLt4e2wHlGeXWqEcth7T7KrrFFfWBJ8n53Qm4W/+g0KTsdqhho6hSDEKld5AVLoDKBw8nHJjExLeXkHxzTJ+uqvCcIZ/G5S5EqetR55RdOhphXLadkIT+HqYubHE7SSNNU3ETPdBNXiEdqjnjd5kNMUmoyg1GU7U2DXkJqlYHXgeXeu2jCAS+JLvj3dAeXapFWr/mdsy4gr16dt4MswxkLziag457eW24k+UKYZ2Vl8HqFLj4WQq3iHcwp+K3ArsNh7SmISQ/sffnXhG0aHXDqr1yROSbhdyLDGT7lPbcpdMulZeHEi8R/qxDA6N+ZJi4xEyLrULCe2gRlGlMCJu2AIuB6WSX13HkLmBMt6Jjfax8yH46HWZbkRu7fhpByVKVouvolGVPmL8ohBNUhUZfeKqCJrrm9m3IIpLw2bKOFUqvXBUO6mJscohQ0gwmc6P8yJprG7kC9+zGtWJQKyYF0xxWS3fhF1k7tZTPHnSvubXQCXcyGXYX/bRzUwpq8eQ2OuyL3Ymmp6NN99FptBSWsuP8/ZxdPhS8ozH8avx65QPUcjYVaEwJlfxBvEjnAizDKckKY/42wX0sfXB0LatpBGeZ7/xIA8r6xjptJM+0/w5lZzVTlgaqNMp2Rg7htHF9AfmbY7mUV0jo52CNNISO+xt7c23kZdpKqkhwSWRsImeHB25gsSxC7k0djHnRn1ChKknh1cdo7WsgeTMEgbZ+2kKQmEK3c09iE/Nwe/wVbqJStTGh72nbmmHqm9swfzLKHpZKqWoL1x/ICe/avqscBN1lPCgT91OkppVQm3eI7LO5JAel8Pd49lkxefSUFBHcXktysPXeH1+qCz8RCIWVUaXKUrW+8XT0Ngs86EojQfMDiYuua1sVpNpJCUGvgm9SFczpVzow+X7eFhRx4aAC1KN6mpBqFKUwwNn+eL0fSwRCemkZJdwOauEmNQcPnE7wbjFIfQw95CFnBqop4U7HyzbS01dI5tDEmQcFGeAec7HePwimxJQucWVTFx16OmRyA2bryIl/Hr/83KX4hAhdizAhI10neKCvp03A2cHydZvZoA8QKgrArU9/nHSD0xauV9WBtt3J9HNzB19a3dM5ocTd7m9PYkXtpOUGAiNvUEfO2EH7vSydGdTcAKP6prYGHCeAfaBiBgj1Kh+Yd9pXghbUTfNuJ0oCpWyXlrjHY+o17aFX0LHyhtDWw9em+IuKxK56w5fnaDEff8jN9Cz9ZFgr052wfSvEeSWVJOeVyETab8ZvvS0eHpisfZADSYkKbxLx8JDPm+5NpKTSVk0Nj9hc8gleSAVQD0tvXBwjqWsqrYDTtulVihxK/xUOvrT/NCzUkqJiXNbZHw6j1vh7oMyvt2TxIyvDzJh6T6M5oWgcAhl/Cd7mb0pmg0B50i+XYg40IYev8X4xWGyXBEqEydlx2+OS+/WSqRNfc9PDDj6L0zm75I2JirGXlZeTFiyi01BFzgv/ugACkqrSb5dQModlTwbirGbmSV4HUzlrY/DpMH3tlDKckXhEMZX/hepbfjtPzxeKCk13I3MUqZtjJFS07HawR8nKzG0D8PzwFVaHj9RT2v3m5RWwPtfHOUPE13oZemJ4YwAZm85yamUvHbzXnTxH6HEgy2PWzl0IYOAqFT8DqcSl5LzovU04yKnfa48wwr308QkdvYwzUQtnZeC0vLc/3To/1AvK95/A9GoclphejwTAAAAAElFTkSuQmCC;" vertex="1" parent="DBPMjnGHVAKKjfrN9TNZ-6">
          <mxGeometry x="48.32999999999993" y="36.5" width="21.4" height="21.4" as="geometry" />
        </mxCell>
        <mxCell id="DBPMjnGHVAKKjfrN9TNZ-8" value="" style="group" vertex="1" connectable="0" parent="DBPMjnGHVAKKjfrN9TNZ-6">
          <mxGeometry width="69.73" height="57.9" as="geometry" />
        </mxCell>
        <mxCell id="DBPMjnGHVAKKjfrN9TNZ-9" value="PC" style="points=[[0.03,0.03,0],[0.5,0,0],[0.97,0.03,0],[1,0.4,0],[0.97,0.745,0],[0.5,1,0],[0.03,0.745,0],[0,0.4,0]];verticalLabelPosition=bottom;sketch=0;html=1;verticalAlign=top;aspect=fixed;align=center;pointerEvents=1;shape=mxgraph.cisco19.workstation;fillColor=#005073;strokeColor=none;textShadow=1;" vertex="1" parent="DBPMjnGHVAKKjfrN9TNZ-8">
          <mxGeometry width="69.73" height="55.79" as="geometry" />
        </mxCell>
        <mxCell id="DBPMjnGHVAKKjfrN9TNZ-10" value="" style="shape=image;verticalLabelPosition=bottom;labelBackgroundColor=default;verticalAlign=top;imageAspect=0;image=data:image/png,iVBORw0KGgoAAAANSUhEUgAAAIMAAACMCAYAAABfyxqzAAAAAXNSR0IArs4c6QAAAARnQU1BAACxjwv8YQUAAAAJcEhZcwAAFxEAABcRAcom8z8AAE3/SURBVHhe7Z0HWBTX+sZNcpMYuwIqYG8Ilhh7QZC+1KV3EERRVEB6ly5WujTp2LAgTXoRUGxUxZp+c1vuzf3f9Jv+/d8zOzSFqIk11+953meWZXZ2ds5v3+87szPnDPlfDpMuemND6QcK9qUfWpgXvT+Bf/pl/C+FVdndUfaFH6xYX/x+9vqid7/aUP7JD+uL3+uyL/rA0f7UnRnOZXff5Fd9GX/UMD96bYLNqXc1bE/fybAtuPuNXcmHtL7ogx7ZlXxEtmfe/cT2zPuhdvm3FjimtrzOv/Rl/FHC7sy7k21Pv2dgffpuoc3pO2RX9CEa/T2yKbhL7G+R7pJtwbvc83YlH5P16TsfQ6EWBbflNxT+ayS/qZfxoobFkRuzLfNvbrI+ebfC+tQdfPs/QiPfJfbY+iTT7X6y4pZ4Hv+3KXgfUPwZz9352urEnWTr/Jtq1qffG89v+mW8KGF+9MYK8+M3vC3ybzVaF3xANoUfkUX+bbI4fvMRdYssAYdN4cdkcezmt9jGSdPj16zMjl2fzL/Vy3gew+QEvWZ65LoGFG127MYtK0BgCeExmR7t+p26QeaAyerMR4Tt/2Kef6cMzzub5VyX5d/+ZTwPYZNzU8w495q9Sd61HJPD1/9qfQbf4hPvkunhLsLfEFs+DrFtXQcYNwHFx4DsFoOk2TTv2j68vxq/Oy/jWYRxXqeMcW6nt+mRG+VYfmNZ8BGZHb9NJrnXCI3DLZ+U8H4cIBYn3wd477G/P4RyjXPbrazyLo3id/FlPOnQyWlTNMjqSDXM6Wg1zG7/xfzUB2R8+Abh72cjBsax22R+6kMyyOn4t2HOtVr9zA53/ezrM/ldfhmPM6xzO4brZ7db62W0FgqzOt43PHyTjI/eIYPsayTMbIPan7FE+2CYi3Ry/D32+Fu9zPYOvcy2eMOs9jVE9Ar/UV7Gbw1h2uVFuumtUcL01iv6me3/NsyDA+TeIGEGDn5663Mrg6xOMjp8i7DPbF8/Fqa1VOmlt2xSA9T8R3sZDw56xSSxa4Qw+aqWMOVqgTC97RPhodYfDXNu4ADDBQ7hYKe1vDDST28jw+wu7Pt1PG7/Qi+1pV0/rWWP7qHWhYr19Cf+Q7+MvmF8oPktrYOtsropV4N0U65c1jvU9h+9tDZ8s64RW+L5F1qAAI7RwX0enZSrP+G5f+qktJzVTb4q1E5qGvs/D8aS1JbXBXFtEtqJF7V0ky6f0Tl4+f90k678qJfKvv0AIPkK4fknrCtoKPZ+7aKGG3Cdxyu9FOYa7dxSL/nqN3pJl9/VSbyyRzPh8lJhTPsY/vD8b4ROaou4fnzzcp3E5mCthIsdgOBHnYNo+OQW0kHj6CReIu0nqovce+iltAGEdsI+fKWVcOkf7H/CtE7sw9UBXvP4hc/NfWYm7rl47Ef8xQqt5KsWgrjzM3GchvGH7I8VJon1I/TiLslpx13YoJ1woVgnvvlrvUQcDF46CWig+OanoIskTIYTJLcBiCufacdfuKgdd9FJJ7ZRRTvufIpuwqVb2vHNPwtT8M0FoANv4/EL79tzLJiwD3/TTbgYrRPfpCk8eGWyYnD9i51GTE6ceE0jumme5v5Gfa2YCwnQX3QTcIAT8GHjLpJ2bDN0gfD8Exd7L72DsOWDrXhvuEDMhWLNA82W6geax/G7y4XWvgtTtWOao7Rimjuwzn/1kpA+EuAUA2zzcYu9B3dMcGx04hgccAwcH82YC42a0U1Bgj2NitoHaqT5XX0xQm1fw3SN/Q0aOKBhgv2N17Vj2Te/hbSim0nzwHmR9jc9FWlFXxC9N/ZBc//597X2n88R7G0yCQ6mV/ndHTAEcVdnau674CHY31SH132me7ADjXTlKe47f5wOMEDgFvgMeP5Lwb6mEsHeRmf13Q2rVXdXj+Z39/kKjegGSfW9jQKNAxdC1Pecq1Xf1/i9zsF2EgAAjX1NUOPT094GErCDmNCK5XnCvrThud3Yj3X87j506ATXi2vsabQQ7G3Ix7b/qh3fSpqAQvReDf3f9wlLAEC0Yq9wYKvvbfiL+r6mLBzzTRrR59aq7at8tucvBJFlEqq76zTUdp/zVttzrhD6TDuRAXAJO9tI+PupS50dsIR2Ut1d/43a3nMVqnsbfNX21i/id/k3B8vZalHndFX3NMSp7jnXqRkDp0HDcJ9z98D78uTUwH1Ozbir3LHGZ/0A+5SlEVW3TbC7Sd4kuOsNfrefbKgGV0kp7arVUoqsDVSOrCtR3VX/F0H0ZezUZexkI6nuqnsGqkej4ODEtJBKZN2ncIFMPGehuqdKit/txxrqUXVLVCPqfNR2AbbIul80Y64CiIYB9uspKEr02QXYB7ZU2VV/VyWiLk9lV527ani1/JDHfRpc3q9RQimsylAlvDZWJfJcrXJ4zSdqey6AzsugsomUI+qg2qesOjR8PantbQaEzaQUUXsTDRSuHHlObUlw8VPpkimF105dF15thffMVg6v/UJ9H76lUY3cvj2LY8Idj93nSePAFYByjj13C/t4TDm8zlslvH6dmsdvTCXYyEyViNoNSqE12SrhdY3KYTV/ZwddfR8AYB84HB82rObpKhwfGlKJwIfGvvAHvQj/26gSVv0Ov+tPPVR9qkcrh9aoKYcBxrCaW6pRTWiMJuwn9o/tcxjTAJ/nCYo7RgCDtRf+/kUprPZ97GM1vsi7sF/a8lFNY/ndHyBQXa8LOrtGKaTSSym4slA5pKZDKaTqP2q7zmOjzdg4SAupJjwHseXTE3tffBB8qHpuP/Dcp0phNXEKoZWaLG3xn+CZB1dXRNbPVwmpXo/9LVkXUvUdvpHYb8DA9v+ez/XkJWor9v6qkay2wRcotJrWBVf9RTm09qJScEU69tVKJbh6Bv8RROcD1u2s8lgXVPUxlt+qhCP/RcD+Q+oIf9O6oMqnL7yvUjA+UHANPhCEx+t2VtYp7axyUgg8u+A3W95TCsXg0on4Uilgf+Pwef6pzD5Ht3biswz0mZ+C2HFkXyrVyPNo31pSCqr+t+LOytsKQZWa/I7XD10bUF6gFHaOFLGzCoEVhL9J4VkosJIUcbAUgqrwd8XPawMq/qUQUHZIMaB8naJn6URuh1+gYNAqBZbLrPUv3yLvX1Yr71/+zVocX/YZFdlnxOMBj8MTFte+ONbr2Bce7S4fUGHP7TBgGCHvW9aoEFBJa/2wol/Z05U/2zEcmKBqwgFjz325xu9sw1r/s9sVfStmPa2C8AnHK/K+pWOhFfi80Wt9yz5a61/x3Vocc/a52fK+4/IUpOCPLz6OP/bHittLBsMqn9Lzq/0qaJVPGXT2iWs1E95vTUA1t1zlW/7VKu+z76/yPZu02rN4Fdunx94tek5CLvjEG6u9qqTkvUptVnmXVq72PfspjskP7FisCaii1b7lAx6zJyHuvXzLaIVPqR23c4rBJ0as8io5v5qB4FUKlTwxMQjW+FVyWulV8t9VnsV/XuFVUrzSs8RW3vfIWFbIcjv1PxJLHFNfl/crlFvpWRy8yqu4BcfnUwBCa/zxJWENhccDHcfHJmx/tfdZWulxNoI7Rb8EXaMVnsV3VuJJLB+70NCgsJxW4wOu8Cj6GR/8k5UexXUAwXe1a+nvPjv4R4klji2vr/QsEuAYZaz0KOzEsftilW8FnLOKnlTb4IuIL2UprXQvimO9oSFL3IvFl7kVfb/cs5SWuRf9frkV0XJ39kZwGl8A4FVOS92K/7HUo/jiUreiqMVepUrsg/PH4GUMECvd8sct3VHkuNSt8OhS96KOZW6F369kx9K7gpZ7lAx83H+LPIpF23Mriu2BYanrme+WuxXTMtczv107CmmFO7MekOxVwZ771wq3osZlroWpy12LTFgBxX/Wl/EIsdi5YCaOpQ+OYQGO8a1lLmd+XuUDMDzLaTm+eP3a4FGFNlu+g9sGD4PjEfEl209/t8y1iJY6FzyCTnNL9rqVHhVIBxW0dPvp/yx1LaoBXAlLXU6bL3LOl+A/08t4DLHY+fTKpdsLvHBs85c6n7m5zKUQX7xKQAFXdznT0yYPLbyGbWOJ8+leGJZuPfXdMudCWroNG3sonULDFyDXAICtp75e5lxQvWTrqZjlWwssFm86Lcnv+8t4QhEcHPwqYFi9bNspd7TDkSXbTt9e7oL07FrS2z73tdkAQhsu2w4gtvaBYYnTyR+X4kk06MNpWwEtdjr17eItJw8s3nzSVM7xxBR+P1/GUw7F9VlDFzmdXL146ykntGMz9MuSracHbrd7xUFRgMcnRTAscDoydvHm/D8vdcIGNp94KC3ddoYWO5741MTkxNP57fxlPFQsccz3WbzlxA9LndDQA7TbfdpykpZuOUXvbOFhkNt6YsQ7G49fWOx4kt7ZlA8df6AWbzlN7zgc/3Shde4Lc4dQfL3fXK+inSZOZ3y3mud7Rxkf35xonu+UwGR10inB5rRzwnqmAueDbsU+gSGVAZtjzvlrlrevn8Zv4rmPRRuOeb6z8dj3+KIO2G73yRHtjXXf3nhc1LVkMLy98VjToo359LbDcejYA7XI8RRbfipncmIEvx/PVWw+c3GaZf7BLRpZPqmLk22LxWIMKqUSja9PS7L6x8wUq69mptnSnCwbmptlS7LZ62l+DpRnTwsOb6C3jzjQ2zn2Py7Odfji7Ry7T+bl2LSvPGpTZ1qwvcC3wntv4jk3rU8/NXkuP/fbDke9oe9FbTlw2/XTRrQ31l3kcHT3EJMTrw1hDbrA/sj5hRuO0QL7o9CRB2qhwwmab3f0/+ZuOD6f349nGkT0qmley0qV9IMJMnHbm8dFm9+aEGP2pVSiJU1INafRKaY0KsmYRiQa06hEExqdaERjsRx70JTEksxIIhlKtSCJNKx/yJKkMqxIOtuWJuWupylHN9Cck5towaktAGXTLwuOOfxt3UmHDpezW4tiGre75Lc6zOJ345nHgvXHvBbYH/5e1JYDt10/sfWY7PI2chtgMMy3PXxhwfqjNN/2CHT4gVpgd5wtv5CzzlXmNvIMIvgEvWGc/f5ytdTy1AVxEdfH7Vv/19H7TH4ZnWBOw+IMaFi0Lg0/oIelkEbGGNCoWEMaHQcIEoxJDBIHDOKAYTxgmJgCAYaJqZYkfciKpmRY0+RMG5oCTYZ7TIJzSOfYkRTcQ/rYRpp9ajO9fXIzLTq26WuTYsePwqscC5ObNttW37QRIxryzH5TkbM+7DPfNu97UVsO3Hb9xNZbDyhsDltyG1hoXTlcziavgYEwzybvoTR//TEsc586DCyv2Wf8TUI/tX27xsHqi/Njdn82do81DTtgSm/sF9Lre7Xozb06NGwfQNivRyMPCGlEtP79MMAhxA/2wjABMEimWZAkXEE6vRcGDgTmEIBhUq4dTQYMU/I20CSmww40+dhmkjnpRO/kbyHTwk1f7avbdOvwZcfQUxftZqe2OD7ls6z0yjybw6lon1/moaHvbbMBxdqcW/ewDbcJ9mPJPKvsRFBFctZ5JGeV+0DNszlKcpY5X8ha5qhyG3nCwcZjNExum22UeC1CM7Hh46Wxqd+L7d1Ib+4xoNeitCBNemO3Nr25W4fe2qv78DAk9YdBGjBM4mFgrjAJMEjnMMEZAMIkJtQVHAioLaYc3kRT8zbRtLzNNPvoFlI4uZW8Kjf/eKh589/yrmzen3PRSTauzPnpDDAaHPwq2uYE14YP2Y7d686zzjXntqGoWP8nOfOsWFmLXJK1yCFZ8+wHSs4yj+aaZ30rY5Yu+unzCYVJ8Ik3DOMvzNWNvxwqTGj9i2piFc3YF0h/itSjVyI06bVITfrTLm16PUpbBMOe3wBDsjlXV0immffAMDlTBMNkuEJfGJikjgAGgMBgmHpkE00HEDPyHGl6LpQDp8hzok1lTpR+0YlyLjl9mteydXfm1W0LnjgUgEHWLOsk14YP2Y5cm5vn0Hyb9KXcNthlb3PNMvfPxZNzscJcs6wHim1AxizzexmLLC9uI08gBHtrZwoOnN+pE3vhL8KkDloXV0LiUZtpSKgmDQnTpFcjtAEF9BRgYIVkPxiO3g/DDMAwEzDMyNlCs7O20KZiJ8q7uo2OtTlT3uVt/zx8dXvokSan3usNH3cE06uyplnnZM1z0UYP146szWWx7hyLrLn8VoYMkTHKcJE1zSROJhkPlJwp3sw44wdZ0/RAfhOPLQTBZaPU9zZZCmKar2rHXyG9hBZSi6umcREONCREHTBo0ath2gPD8JjSRDcMg6YJliKgaQPAMBswzAIMstlbKLTaiY4wIFpdKL9jBx276tJ25Iqb+aFmh373eD6OCB4CGIwzPpxnfnjANhtIcqb4YhtlfCtrmDmb38yQIbMN0mznGmUQJ8P0B4tb79AvMgbpqXj5Y6ue1fbVz1ffdz5FfX/jz9rsHsmYZqiJpkX60ZBgAWCAQgHCPTCIgNB5dGd4QAHJYLi3gJyM4nEygJiCumEqQJiOmoGlCAbDLMAwJxsCDLMzt5DWcSfKvrSVjl7ZDii208lrbnSsxZVOtrllHb3g/Fgv71+oljtcxiDtI1kTOPxAbTaAZI0yScbgUNcCq7xJ/GbgDMJDunP0D9Ecg3Tilg8S1gMI7HEBy1X8Zn5zoJcwVCWq1lJ9X1ObZjy7R/ICd5+kTsxlWrYng/4Uok9DdsIVQrR6YQgHBP3cQQTDUMDwFmAY8Qgw9HQt0+7vTbBUMRkwTGYw5IpgYD2KqXlwBuYKuUwMBEeaw2oGwCADGGYChrfhDklNIhgOMyCuONPxVlcquuVDp9o9b+Rf2WFz4oTJa/xh+F0xT+uQ7Bxh6t9ljLLub69BJGOQQbOFaZ2zDOJ6YZhrkD4fQGAFNLAw7cHSSyMZfbah1KvcmavfEYr768WVIur3q+1u+EoQe4W7TY/drMvuQmZ3UU8MdxWBEAwQeBheGRQGbREM0Ih9/WEYHQsxGOKNaRyA6HeeIbkPDHCHyRwQovMMUwHElCzAkGNHU3LQtcwFDNC0XAfOFWbkbkSd4EizszfBERwBgsgZZmaIYIg9h1TRB4ajV12QLnZQ0U1fOIT7l3CJPUda3MX5w/GbY45+hvxsvZR/yRhkDtxmA0gG7S2jm1Y2SxDXe6nBTN1Ds+bopnw9lzWybspDaa5+Flt+xG/iN4VKcOkMpfDaArXdjdy9gqIbS0UwaB24SCv3HKahIWaAQa0fDEN4GF67p264F4ZR+wHDAX0aFQ0QOCBEMIjcwYQkeBjGA4YJKUgTqZYk1V03pItgmAIYpgKGqVk8DNn2NDV7A1KDA2qEjTQrG8rZhDphEwpHuAODIXMzzUrfQityt9Ch5q0DwnDsijsVXPOi4i5vOnnVvbig1ft3DT0so5Nkifb4Yq4ea+CB26y/0mguDEBGJyUNMPQOZDpDJ3XKHO3k23N1UgnLh5KMLlxEK+mvC3XTpvObeaRYF1q5Rim0plp970VS23WO2A203B3Ne0W3oOseuELTI0LolZ3oPexErfAwMKCIHLpHBMNw5gwDwcC7g1gCnCHRFO5gRhJc3SA6AykFd5h0yApAAARoagZgyFxP0zLtaBqAmJZlTzOyNtDMbMDAQOAgYK4gcgYGwuwMCDBYnmTdy60cCPfCcPyqO51odafT7Z5UcTeACtq8zhe2eynxh+eRY65m0ja0xzdzdfCtH6C97hcDAtlAKzlyqmLWUH4zgMEgafxszaSaOVqphOVDaY52Gs0SJH0mo5XyyB9AIahCaV1o1S12PyC7J1E1UnRXsTq7q3hPAwngDDoHLpFEGFJEoDJgAAQMBiYGA183cDD0BQK9iTcBg8gd9FBIClFI6nNAjAAQw2OMaCSAGBVnTGPiTWhMgimNSTSjsQBCLNmCxJPZbxmWKCat4BCoGzggkCYABAcDJx4GaFaWA7QRxSIT3CET6SLDkaanb6bl6FXsrXMCBFvRtRwchlOtHnS6zZPKbgfQmXaf9ws6vUV3Nz1izNE4uH+2IOmnOVopA7bX/WJApNFMjaRt/CZEMUM1dfQMtaScWRopNFM9CTr4QM0SpNIM9YNfztBIfqQTT4rB1euUdgKEKIDAbqSFGAwqgEGNh0EDKUN1byWNDd4EGFT6w9BdNzDBHZhDsJ7FKwDiVQDxp9269AaAeGOPHknF6tG0BCFNT9CnRWn6tCLDkFZlQllGtCbLmNZmm5BCjimtyzUl5cPmpHLYgpZkWdD8TCtamG1N0wCD1CH0JqDJ6UgT0NR0e5rOgMgEEJlwB4AwMwMOAc3I2ETTDjnSYqSKgConyr3sBBAeDoYzHd5UfieIAfFBcZv/IwMxQz3pxCyNZNa4A7bX/UqiWZr4Qqsn6PCbEAWziWmq8btmYEPT1RKhhAcLG5umFv8DHofwm3lgKPhVKCkGVd5mN4KKbqat4WDgbrHnxxtgg1EwGJT3lAIGB8CgSkOCAAADohuKEFGq+BNAGIc6QSZOi5amapFipiZpHdYms5NaZFugRZsKdcipmEmXdpTqkcdZIXmX6ZNPuT75lRuQf4UhBVQaUWClMe2sNqGQalM0ohn5V1pgaUHelZbkVWlFLmetaVORLVmftiW9fDtae9ie5qNumJa+AQAAiHQ4A2BYi4LS7rQjRdVtppzLWzgYch8ShoJ2bwDhQxW3A6m4w/fDM22+Wvxhe6iYpppweSa+oA/ffok0A1/+6crxy/lN9MQrU1Xit05TS6apKolQwoOl2rNeOr+NXw12a5mif1kXu7GX3R28LqSKg4ETN76AyBk4GPaxnkQzSYS70JAAFXoFMLwGCMbt0qL5aHj5NE3SOyKg9WcEtAHaXKRB20o00Gga5F4mIJ9KAflXaZJflTYaVZsCq3UosEqXgqr00OBCCq0RUniNPkXUGlBkrSHtqjWi3fUmtAfa32BKMQ3mFNNoTvGNFpTQZImlJcU2WFN0gw3tr7fBerYUWWdHYbX2WNrTrjoHiqrfiNdtotQLDITNlA0Ysi89IgztPlQEICrhEEVtfh8+rENMkU8aO0U57s409dT+bfQrmqaaxNrwfSmVhDn8Znpjikq86hSVJJqsFA/FPZTY+pOUYs/zmxg0FH3OTFvjX9bQc2c3U3AVKYWyu4JF7sAVkHubUC9c4IbH0dx76dvpEf5fzI0WkEqGJpkfF+DbqUFb+UZ3K9cgzwoN8oDc8Zj9vQNiMHiUC8izXJO8KrTJB/Kt1CG/Sl184/UAhBAuIAQU+oDCgMJqDAGGERrVBI1qAihMaW+9Oe07Z077z1nQgQZLQCCCIb7JhhKhlPO2lHbBDj0Fe8q4aE+ZFx0o69JGyrq4iTIvbcZzm/H3b4OhECru9KOqd4PhEAE3K24H954qHiSkFOLemaQU92dR+w3cVvdqinIiW16appQ4ld9Mb0gpxiySVoz9ftK6OJqkGPtQmqyURFKKsXX8JgaMlW7Nb632OZu/lt1gGlRJioEV/C33IhhUwuEIbGCJ3U2kElX/DQrJD9X3nDumEnVJaJrntMypRK3Zq16bvGo0yaOyt9F3lGmQ6wBy42HwqtAk7yod8oUCavUosFZIQbX6FFIPABoMKaIBADQa065GE4pqNKU95wHABQCA5QG4QfR5CMuYJiu4BJaAIbbRBi7BgLClg012lHTenlIu2MMNHCiteSPg2ETpAOH3wlDU4Usl1/yp8nYIloENZZ3evSeFBohJinECaYWYTycrJQ7YTgOJrSutGHNESmWXGL+Z3pgiHz1Dcm3sNUnFBJJUiH2gpETr/XuiQowhv4n7gg0JvNK7JGqNX9kvawOquFvBORgAhXJIDQrHRt4VGv+GVFGvGlm7SXXPeSk2xRC/iSG+lepL0PjlblWC/3Ov1iTPei3yqINq75cnnvephws06JBPDQDinQH6yrdS9wu/Sr0vgir1PkO6+ATp4pPQav1PwqoNPwmvNvokotbkk111xn+OqjP99946sy/31pt9sa/e/AfmDPEXbSj5qj0lXbGn5Mt2lHLJjpIBQRL0pGAo7vCjs9cDqfxmMJW0Bx49UR88+KV2Jidem7g2OkNSMR5twjRwm/WV1LqDJKUQG7xkyQDXXUxYtW+8pHzsaWk0stTamAcoTiT5mAT+5QPGKo9C8zU+ZZ+uDawmeXYLOGBYF1hJKmENSA9IGSFV7yuH12SsC61bM+RXrhBan6U41K1C09L1rEaBa7nGNTjA3XuF1PGuS5nGTbcyjaueFYJLHuUaBXCHFJ9yzYO+lVpb/av1NviX62wMrhDqB1cKF4VV670jklGPImuMFu6uNzbeXWe6eX+96cYD9aYR++vNU6IbLYuiG6yvIFXcimu0/nNCk+3nzBkyWh0pu92RMlscKeOy42OHAWmCKgBDedfO/5Z0Bvjzh2PAmCi/T05SPvqDh2u/GJJeB1eXjxWNy3BvTFDbN3zi2pjYh9mYNOiTko/+UGL13kFnW1nqWzpjlWfJ1bVBddzd12zsB4WdtdyAIOhR3AEUyQq/YSwmtwr1ce4V6nNdS1Vl2bJbW8s15mH5RGeVS7xgOTX+vNXahPO2Gw+et9uPNFGc0mzfknJhw8dpFxx+ONy5jY5cc6ac1q0oINmPVL8fhpLOQKp9N4yqbgR/cLYj+FevLJOUj3HBF/RHKdY+A7Rbr+AMCok/TlgTM+jYmK9Ir43ZzBEz4AZ4MYsRPR70WgY2wMZytzPJa/xraCW77ZsDoQ7uUP4XOETyWv+S+7ozL2qkn98glXJ+g3ra+Y3+6c2bjmZe3nIZzvDp0c7tlN/lSsfanenwVeh3wHD2WhCd+yCCyjp2NtbciRh0yGDuCy0ffYH7srIGv7ftuqUQRwDnL5JroxfzL70/JBX2q6EW+OUhNnR5qmLioMPqrHA7Y7TCu/zTlexWfL8qOEPpL2t8SovQo9DlV/nDRkaT04ysZieTrItb9uVc2Vqbc9npE3YtQ8EtD+6aht8KQ0VXMNXeCaOKayGRwTT4L8VSCtGmSBc//Zo7SCvA/eWjL05STBz8ym7WRcFKf2cNPtBGRLVCzC8oQERX0w4QS93PTF7meubcqoB6Wu3PjS3w0Wrv0oBlvtX3V61/8Mhu3iydc3GrVt7VbQFHLjufhjN8WnQHjd7lBRA8HgmGMqj+vQgGw4flN0LX8m9xX7AfnVBMNv0qDIooHuVjDs1a3ucHqntjwtp90wFDA0fOfRtheYYrGltZscm/5L5YuaPQbSW7Ld+7nFZ4FpWu8ih6ZpfTP09xosVx9OHLLjpHrziHHW/Zce54izuVvedPZzq9HhqG8us7qenDKKroDMmDUwxytRS9Iq0YbYx2+mWwL/UkpVSSlj/gwr9g4GA5R1o+JlGadTvu2whgYEStjd422DUMq9lYAi4F11Z4lv2wdMeZhJVuJS/WkPhPKY60ucw+1upudrrTM/lki/s/zt7yo5Ib/lQICH4Vhms7qeZ2ONXdifxP5bVQA35z98Uk9QPjkMrrRDDck/JZzaeY8N2EddHa/OqDB4hyYuT02wAkzblC7E0JxQOD5ZlXlmwv8F3qUvDzUucCP3bbHv/8yxgkiosdh528tGNtQZt7cEGHdycD4uyNAO4M5GAwVFwPoQsf76XK6+FHiluCB7kohl6ZqBBjy84F9Sn4Re3IzkXIx7wr/mvFY3dIrovRkFSI/7b/RmKxkUSSXhMbOkSxfsBZUZa6Fsos3X4mG86wZZZz2dO5V+APEuzSt/w2D7nTnV5bCzt8Ws8CirIbgezs44Aw1N6CO9yO/KryeuigBfkExZhpkmtjOkQ9iz4wMNdfE30GMDx4HI0Ja6LnoRpt63e+QWQ3/5VUjJXnV7svFjudUlqyrcCd//OJBJvYRHt/0xLt/ef1NPc2blI/0GivFdPspRXbnKoT35yklXApSYfpoEh6yVegq0l6KVBaq0jpTC0pwoz2WP30VndhRpuDXka7vWF6u5Iwq32RVtblZzr4aFGHx/SiDm8nuEP72S4AcCOYylAr9IWhqiuMLny4h6qYO9wexB2WpL4+cfX+XexL3DdVTFJKYQ6/+6GuXZVUTBVH//NY3/MNbIOSa2NPSqkkDNojWOhROXy5c95vnwea6BV2d9cy3wIx5cjGhcphNdaqETXhqpF1Gcq7zjWpRdXfVN1z7kP1PQ1/0djb+C+N/U1faB44/7kguulbwEA6cWzWmYsQP99T92xxbBY8bjpBXmktBCCYftZPb/tGmN72BYD4XD+j/e/6mW2fGGa1v2eQ3XlDP7uz3CC7Pdkw77qrQW6HgM29LYi7+2bfU+VPMtjvESWd/jtKOgP+XnFjJ1XeDAYIvTDU3oyEQ+z6b/X1qEFPHLEvL9rvm95Ckjn8QZow2JnH+wP5Rj4moG/dIL0umeWZTfwKjyVMUIQuCW4ZttK/RFohsNRUMah897qdldVKIVWfKIXW/FM5rPor5fDaH1Qj6rjrI9UPXCLBgYvchBuC6IuiaY5iL7E5p4jBwOZ20gUMumxWuINXSC/pKukmo/EBgjAVAKSxKQuhQ63c5KNwBm5mWjaFsmH2dW7qYqO8m9xMtWxqZeO8Lvyv/Rf97Pb/GmR3/Mcw59qnWN41yGzPFWa2bRVmXl0gyLs0it36x3+kxx5Ewa+WdfnJwRVyznYGfV19O5SqboZxMFR3hdP5D/dSzY2IA5UdHgOOkzEFqQC9w6pul2dLpI5PJsofUORXeXBIr401AkU/c3WDiKpPpRRiVvH//s3BbpyVd86XWOVdunq1b2mAvH9Z1drAiv9TCCj/ViGw4ic2uLVyOJsr4RypRJ4jVYgt2VwK3E/c7Eoo7jpJdgEMm6oHOsDmomKTj5znJv7SiQMY8b0OwU0ZyLkEAIFLMDi6XYLNSstcgk1ZzAARQSKSQVYHYAAsOSJQ2NTL3ATsWQyi9u+Mcq59YZDZ1qWf2RoHRxGqZ16ZvD7rw95rCR9j1H8YPLSsLdAYaeJa9c3QX9Cb4GCovxNFtTcir527saf3Jph+Qa9Irol27XZ50e8R0RWSa2IfftglAPAOnOAaI4ltgKWNX0sRD4q3Xc+MWb695O2V3iV+KzxL2lZ6lfzAzkrKs9PUgdW0lg0gzga25n/a7p1WoM+VUNx1kg8CQjQTXF8geuaQvDdt8FAIu6FgrjEIGH2lnwlImKMAEm5idtFzP+oeavkrq0NQd6wzyep6InVHZUf4dKSK1OobYV823N2FNBFJje/tYWBYDTb5+qS1MQr4Yn/NvtSTlNLQCYg+MGTII9zrIrZ6z0gQlSmNVDGJXbOgEOvB/+uRYoVL0YRlLqcNlrkV5i7dUfjtSu8ybrRTNjQxJ98yWsMGtfbv/kWznBR3sqHw+wMhmnREdNGsCrsaqg8Q6mxCr/1N/YFgUyTeA8RALtEPCg4ICGmEqRuMXgEGHpK+YumGAdKrTqSitga91FZz3cRm1g1/rOM1pKY6vl7dFeaInsTHje/tpqYP9lL1jcis6pbdA85mN14+egYKxgauF6GY+ANcwYH/18OH1NoDXpOU02Av0d9Iro1T559+qFjiWD168TZA4FJYvNSl4JcVnmWiUWO5EUmLuXGL2Q9Yq3xKaY0v+0WzTDSiPHe9A2DovhKKmzzjHiDYxbOAQRUwqLP7LBgQzCHYDG8AQgAgBH2AYC7BgOhxCVZc9oUihc222wtFPzD6agBIup/ru47+IUCSASgyOrHNli70Ztx0Ylse+2h4VddDNapuhHdc+Ggf1d+O+nN9164Bz//MEsS9KSUfEzVJJRN1X/TNCfIxK/h/PXxMVIjRRHr4EhtqkVSMf+ClV93xjuPJpYu3njq0dPvpH5a7l/GjkBbSUrdCbohaBgMbtxipQvSLJg8Eu96BAcHmYFgXJLoaqi8QPeniV4Dgpvw7ABiYQ0DcJKpQb9q4p5a41ym6oegDRg8gbHJzNPh9YsXpPeuKtoH/pXeSPptnO/lqpU7SFSO13I7HOiBaxa3w1XCF1it/iaHarl16/NP3xaS10VaTVbNYvXBq0soDj37T7yz5OAm8uAkwnJKQ+5WrbPhY6Zb/1mLHY45Lt566s8K1lJY6n+EGnYQz9A5NCyCW9wGiZ2RzwMDSBQdDd7rgZk7pvVZSaRAg2I03PSmDAcGlDADB3Z53r0tgeS8U/cDgi0wODB6OvoAMJn49tj57Hfd6bEukq0gn19jya92Ey9Hayc2P9RR99c1dq2pv7Gqv74qKGGwMCKQGdDHj/gO3j+SfevQACIeYxfB/DhqrNxSOfNvx+L7Fm0/+d5lzMRs1lht0Eu5Ay3gglvNALOUHsO6GodcdIK5+EM2UIrpWsqKnfui5eJaljG4guMvr+fstdgMM3h24iVW5wlLkEJrRbOZYUW+jGwpummFAoR3PUocofegc5IvNHokaVC+ZFZ6Dq9tdROv3vl6bbY+lpQS2Xhsn7bgLR1Rjmx5r2qi/FbWu9kZUTM21yAn8U/1CanWMDLqUeagdRCO0/JaQUozVkVYc/GoYFuxE00KHY4nvbD7JjQ+5ePMJWroF6h6BlAHBuQOAYDD0OISohljJQQEgAMUadkUU3EE+AFCwKXv46yVZylBmUHT3MAYCovv2vD2NnEv09jSYS4iKS5Y+uqFgKQQN05M+tDmh8dBwrPG0WWNyPRE4SA8cg4ut1934bBuc2Ou7t4+lbiIDpgVu1ZSsnfRrM8g9etR0RSyv/3RgB2ennqUUYvTYKWr+qUePqYrBQ1kBwv95X7D/ve1wdB8bdxC1Ai3iB5rkgHA62TMk7TIAIRq4ujdlrAAQK/iUwYBYzaeMNehh9C0o1/UBgnMJljLYVdV82lCJ4O/IYl3PvnUEdzNOI9fb4KDonl+62yn48xIMCC59MMdgDQcxt2BwcEUnD0h/DfwcBxS/DdF2Lop6NWz7LFXhPXXYROvxl7/WPNBkyx/GJx5ycsFviK1OHznkSU7ussA2T2+B3eHvF208yQ0yuWgjG3kUMAAIbihaANHjEDwMLF10F5Td9YPIHUpEQLDZagBET0HZnTL6AtEnbbCp+tjl9iKXAAxRAIFpN2oIuIQ6dy/Gee7GHM39F7jJxhkM7Awmk2i2fiY0IDdDPRMalqWPeHzr0dAi8d9yTn0f94qlHi3u9aJeDDfLPQ8BOynGFbYAUjepg6WxMsHu+l+9BP6FiYUeucPnr89rYAOELtxwlBMHBHMHblzi+91hGYBgKaOnfuB7GCxdrGJAwBlEGhwI1u1UZtMchgCEUIAQBhDC2ZyXDaQWCe0CBFFNgAF1wx42L2c1rYsqIsWoQlLaDe0p4qS8t5iUIOV9TCWkvL+EVA6UclLmpRJ9llcpqcdUkC4gEQlw9DwWiQHEpAWomDjAYpoBHoOOwccGIBENQiKa3LzxC9U95wftAbxQMd8mR3G+zeH/LrQ/TgvsjvTCsJENJyxKFYMBcW8PowcIL7gEgwEFpWhCrb5AAIZA9C6C4A47a9DLqKSVwadpQVAqyQTtp+kBITQlwJck/XeQmN8mEvOHAhxpXIADjQ5YT6MD7Wh0kD2nMUEbaOzODSS204HGBW/kJBayicRDHUmCKWQzpwlhUOgWmghJhm2lSeFuNJmTO03BckaEN8ntCqeFu/bQgl276e1d+2lFVBqtisqk1ZDyvkIetrNcmmJ3l6uz4hbSTuxAb6jRmT+cL3AEB7863/aw3zzrvJ8X2B0VwWDfFwhRqhABwaeLbb3pYiAgWP0wEBBrfNn0ihUAopzWBJTSPL8Ukvb2JjFPWxrjaUojPA1omKceDfXUoTc9teh1LwG95qXO6VVvDXrVR0Cv+mpCWpA2vQK95q9Dr/np0OsBuvSnQD16gylIn94MZDKgoYGG9FaQIQ3nZEQjgoxpZLd2GtOonSY0GhoTbEbiwdY0PtiGJIJtofU0EWBJBm8i6WBHmhy6naZAU0NdaFqIG80M8SK50BCaHxpJi3alkn3mgdJLHzupF7R6rspv85Mou+v8Zn198J/YD1T8kX4BgsFgnRsxzyb3J26I4fVsCOH+QHTXDhwQDIZ7gOjpbvJAsIKS62H063Ky09bltMznFE31jKSxbutplJseDd8hoKE7VGmoG+SuBmkABAEHw1AmL4ABveGtS29Cb/igsX2F9Dr0hi8a3E+fhvoZ0Fv+hvRmgCENDTCitwJNOA0LNEWjizQiyIzTqJ3mkAUAsISjMFlxGrfTGu7CC0CI7+yVxE5bGo/leG5pSxMCbWli4HqShjNJBzrQWO9NtPW484/lXR7/OdXm8dnpds+/nmnzvgOVFnX4HCxq9/Mu7gxSKWr1nVV2KXgUA4U/+s9ZsAEorfL85axyf+4eb3oBG4OYTxeL+HTR3bPomy4GAoIVlD1AwB0YEKu9ymiFdzHN9ogjMRcLGukioBEuajTcVZVGuKrTCADBoBjmBrkzAQIPBoM25xKcvHRpKAcEnAN600cI6YuA8IUDAIih/gCBCUAMC2BAAAJoOAeFGS9zpBYLXoABGhcEGCCxIGsSD2IA2HIav3M9/l5P44PsaAIne5KEJgZuIElICpqI1DXRZwN5nd5OVbd9qPi6D5Xe8IPYJW/sOkjfX4o7/H4obvf/uqQz4POSzqCbpZ2BmeUdO20qWoNnFZ73Gsm3xPMRc63yVspZ5XzLBqNm4xD3cwcGAwdEb1dzoPqhn0MwIFi6gFZ6nKWl7qdIytWLRm3XptHbVWi0sxqNctagUS4aAEMDQEB9gXDT4oB4y4PBwAPBYODEw+AtxBICEEN94AwA4k0/I0ABEKDh/iY0HECMDAAI0AhOZqg34A6BcAZoTKAlp7GBcAcGQyBcIRAwBCFNMMEBJOAA4znZAQImBgOgCAAQAEHc14EWhznS/rMuVHKNv1S+zYu7OppdDFtyDWBcD6CyLnav5U6q4K92wvKn8ms7/1NxPfRoTXuo0mA/Tj31YBOPwBnKFtjl84NSDwBEn67mYED062EwZ3AroSVuJ2iiszON2KpKo7cxadCY7RqAAjAMAIQIChEMw9y1Ob3lwdyhF4a3GBBePAzeDAa4A4AY6ov6ABrmZwwhTTAg/AEBNIoTQGAKMEchChigsQGAARoXACACAAMkHgAgoPEBcAgUrOOhCZzgDv4Awh8w+MMZoLEeG0iY4ERHmt2poL0/DP2vjvYnOAPBFXgYQqjqVhjV3IqgyuthP9bejMyqvBW1hG+SZxvz1metkbXK/XiB/UmRO/RNF/bdxeQ9QPD1QzcQ3BlKHoiVO4poyY4CktzuRsOdlGmUkxqN3qoOAYQ+QIzuA8RIADHSlQGhScPhDpw4IHRoGIAYBiCY3kKR+RZgYBrmpY8l5A0YfAADNMzXmIZzMqERgGIkJziEH0DgBBj8AQMnuAM01h+pwt+aF2CAJPzhDNB4fwABTfQDCNAEP3uS8ttA4t72NDNgIwWfceZcoecmmgfAILoodieV85e91dwMp8b3oqj2ZsTHlV1hds9F0TnPOldXzvrw3fkbTsIZ2DwHeT1AvG3fJ130c4j+QHQ7xHLXYpqxPYpGbNGikVtUAIM6p75AcDB0A8FDMQr1xEhXTUgLUEBu2oACAhDDPXQ5DfPQ43odwzxFMIiEVAEghnmj1+CDVOEDd/CBMzAgoFG+cAZOgMEXMACIMX5wBk6AgROA8IM7+AEGXuP94A5+gAGSgCb4AghIAiCM97Sn9Yec2HB/dKqtzx1VjwBD5fXQnkvfzr27m6pvRnxV27XrYa9rfLKBYnLtPKu8cuYOCzcWEDejDXMHdDvf3tAHCAbDIEAsdy6i+duzSXyLLY10VKRRWwACEw/EKAZDHyD6pw0BLwABGEbu0AYUEIAYwYBwZ0CgF8KA8BDScAAx3BMwMHnBFZgAxAhvYxoBIEYAiJGc4AzQKB/A4IMeBQPCF87ACSBA4xgMvnAGXxsSg8QhCV84AyThCxigiT52JO5lR2Pd7UkvZjNlN7rS6XZ3Otn39rrfCEP1jQhquBtFNV0Rn1ZdixCNDv+sY775oQlyNnnu82yOVKHL+cuizcX0NneaWjTvVXcPo/uEFKduIJxOwR1KabZTJI3chNTgiGLRkYehGwi2ZDAwp2BAsMc8EGMYENs1ORhGwx1GumpzQIzigNDBY10aCSBGuAMIdyGNABAjPPQBB5MBHsMdvIxohBdAYPKGM0CjOAEGaKS3GY0BEExjfeAM0DgfwOCLItKHCUBA4j5wBk4AwhtAeK+n0R6AwsOO9OMdKbnWhQo63Ci/5fHBUIsaovHubqq7GZnJrpfkm+TZxwKrtEly1rn2822Ppy5Yf/gq9M07m4voHSdocwF0ilMPEIBhmdNpNk8mTdnsRiM3rgUM6jSGwdAXiL5g9DiFCIwxXD0hgACDM5MWjXYBDICCE4MBGrFDD0vITSiSuz6NBBAMhhEeSBUe6FF4AgZeozwBgxccwsuURgOG0V4AwgswcAIQTN4Awhvu4AUYIHFOcAdIzMMW721Lc1BAbsreTFnnnQECuwN7x2OFoYa5wx3AcGvX3+sHu4/iWYacyYk3FtgdXrDA5rBwgf3hbQvsj+yDypE2OpEy/rHYiZ2JPAtHKKYVzmW0YGsejd+4gUZvWEejHdRoDOcQaHSmzbwGhYIBIYJBJMDAA8HJVQdQ6IrEAQEQoFFu+jSKAeFuABmKBCBGehj3iAExkkHhCRB6BBigcZ6AgclLBIOYJ4CAxrjbYPvWNAXOoB/nQOElWwCAM+W3stvxXZ8MDHCG2pu7vim66DfgNQ3PVQQPCX5VziZnynyHowsX2x1b+7bjEf1Fm/LXv+N4PHTJpsKYxS7J56a7Wvx7vIsqjUXDD7dT4zRiAx478NoEAY4R0EisMwJQjOTAYEAI4BJMcIZtAIEBwUEBZ3ABDC4AgclVj9NIV8DAoHADCJwAAiekCyZ3wMAJIHgwwR084A7QGA+kC2iUuwWnke6WeJ0VurpWJOlhTStC15NV6kYKKnSkzKatdLKNDdKxnY5eedIwRH5d2RE86B3yz31wN9PoFA+zOOimaHtU+4rNKU0yy9Mgkyx1MsxQJ/V4DVKK1qA1uzXo7VABLYRmBwhovIcGTfDUIDF3dC3hDCM2Y7kFvQonFJFMW1E7QKO2on7YpkMjOCFVbGfSoxHOkAtqB1fUDZyQJqBhnNCzgIa7oqvJCT0MV1OkGSYz/M8M729O8wKtaHmoFanusSGTRDvakruBAgs30oFKR8q64ETHW7fRkZZtPcP4PFkYWDcz8pPBb8Z9gaKehgz1qlHLCbygTV5VGuRVrUGeWLIh/ti4j9uLNWhLoYA2nxHQxtMCsj2hQeshG8jqmIBsjmiS7VFNWn9Mm6zytMkgVYeEyTpY6kJ6ZJgqJKNUfTI5pI/HBqQRa0jr9hmQ0n4jUoZUDhhjaULCg6ZknWFONpnmZJtpwWl9liVkRVuPWpFvsQ35FNlSUOl6iiy3o32VGyiu1oFSGjdR9qXNdPjqFsqDcq6IJh7JvfzkYWD3T9TfjsLfkYc+fJ4KyN8T28s1XLzqtbhxHl35cR25MR8hNzb4Z7cqNbgxIZk8Ia8qAfmwEWGrNcm/Rpv8q7XJjw0EWqFLAZW6FFglpKAqfQqGQqsNKKzakIIroQojCqk0plAovMqUIqrMaU+tOR2ot6Doc2zsRzYYqBXFN1pTQqMNJZ+3pUOX1lP6RTvKuGRP6VDGJQfKuLwRy02QaKS3zItbKOvS04PhHNe1jPzi3O3QZfyhfPHDrUL9bddyjTYGRDcMD6MdZQJyL9PsGRXWG/Kr0iH/KsAABVazUWEBQ41oVNjwWkOKrDOkXfVGFHXOmHZDextM6UADQOAEGNhAoGyY4EbA0AQY2OiwgCGxaX3PgKDJ0EBjQD5NGOpu76L6O7uQKsLDUp/6XJpPMNhssc4l6jt2VAp+ZAOADtTwA2kgGHqHCGZAiJyBARHCnIEbItiQImrZMMHGtAsabJjgGDhDHJyBjQyb0PR8wVB/G+nhDtLDjfCC+q7gZzeUABtZVE730KxJK/Pf4p96LOGWv/ItNPB+wPCDR+3DAfG/CMO5d3cxV/ge7pBfcT38iY5/+cBY4uj4uoxBqslsYZo/O6fAP/1YIjhLcajLWfW97jWan7MhgN0qBQNC0K3/FRjOdu7kbslveD8KdcKuf1fdCN/13PyMPVM/ZdUcYdrnMnopXo8bCDZ8sPNZ1Y0uZeqtHjWiMaP7Fpb/azCwn7AbPoikyhuhbMCOq5XXwqwHu/P6mQSbzmiOXur7MvoZ387VS3Nn4y/w/3psgaJylvNZ9YM7KgR3ucHCOSj6O8UfGQY2mHjd++FU824YGxT0RkVXyJ7qruDHfiPv7w5JndRhc7STk2WNcmmOfsZXs/VT/dhFL/y/H2u4lAnkXUrVE9lA4swpvBq0yQ1dyj8qDOU3A6n2/TCquMUuatnZXtIZFF/cFvR8dx1n6SbpyOilkaxhNs0Rpv8wRz8tZaburwxD+zsDUCxzLVPf6VohqHY9q/6F7wVd8qrTJs9KuMYLDMOZdi8que5PlXeDqPbDUDb836dIEaUlnf4+ZR2Bj3V23CcWM4UHJ8/RTbnLJkmdq8+m1c1mE6A24O8nOk60S7HqFBSZRu5VGtE7yjQa3Mo0vww8L6SARiH51+mSXzX0nMNQ0OFJxTd8qOLdACq/E8AmLfsnnKGsqN03tPSav/YL8aNT3+DmYNZJSpgrzKQ5uqkkI4RLGOXRXIOMv8roH9o91yDlweMN/s7YdlZzDlKFrluplpdnhVY23KHNp1Ln59ALhhTSZEDBDVjWMRlQCJuKqPYpwXAZMFzZBhCc6VibC53scKOC6wDglg+V3PalEy3uX5xscW+AMyQUtHptAQwaZ664P9tu4u+NOVqJAhmd1B/ZLKpwCZLRS+XSBpuKV0Y/vRHpw4Zf9YmHT7XqaI9K7fnelTqa0Ga/Ct29AZV6hUFVwutB1cLPo5pNaPcFNg2RCcSWgADa1wQIGgHAeQBw3kqkRiuKZSA08SCcBwjnRSCkNG+gtEsOlH55E2VccaTMK5spuwWN37qV8tgPVB0AoNOVTt1wAwiulHdl292jV5ybjl1xyTnRssM3//KO9fktO5TzW91mPb/3RPyGkFFNkJqjlXxuLpsFVztF5BAAAiDQXFZcGqR/Nlc/9bCsUcajDyHzO8O5TPCmV5WeVGC57rygav1VgEIjrEbfOqza0Cui2mgPXCEf7nAiqs708t56s7v7zpnd2gvBGf4Vd8GaEi/ZUtKl9ZR8yY5SLsMJLm+g9JaNAMLuazhDV/J5h1tpzQ63Dl3YdDet2fEsnOFIRvPmjOzLWwKRJtyQHjTzLruoHG11WnjsqvPM/C63Rx85ZZC4dDd4VHOz22M96ff7w+TEa7O1Eu3m6hwiGQYDm163GwgmwyzUElmA49BHcwwy0PtIf+YFETv1HVy/fuj+egvxyDJjiah6s2n7G83m7DlnMZsp6pzlggMNFstjGq1XdCuRV8pF+xVwiUWJzQ6zki9unp0JpV3eOCfr8taJCZe3iaW2OI4+QY9n9vvBou56hEbNjShrdrcV/9TzE9O0EqfO0Uyql9HNoNlaySSjcw8QcAlZoxykjnQo7c9zDA8lywnTFikOMhb1yxg8KjvDFWpv7LrKYHhe78t8ZZYgcYOMduovSBk0G+4go9MnZTDx0/TPNcqGUxz6RcYw/Z9zjdKLIfW3hVlj+O28jF+J6hvhqjU3Iz6svRlZUXVrjxT/9PMXMhox02YLDtbO1c3k3IFBwaUNQNEDBDQHUKC3AacAFEYoMg0zvgYQV+aaZDvKmCVPe1Inrl7kKCtzfrP6epht7e2Iv7LrF6q6IgedDei5iTkaCRvnaB36gc24z8HAoGA1xIAugRqDSx+ZgAJ1hVHGzzJGhz6DY2TLGWcJZA3Tp74EY8iQkjsR0tU3QndXXg/79srfotllbqcrOwafDei5CdazmKmecHqOdjo3NT+XMngguLTR1yUABHMJERSHkDrgFsYAA5I1Ya6RcVvGKDNmrnGWtpzxoVkL1fb9T4HB7oEovRqkVNkVUnXubiSd/5ANDRzxRVVn2Isz4st0jaS1M9QPfjJHG8UkAwLiisp7XaLbKbqhMAAQTIasrmBgZJGsaQ6USzLGGdfnGB+KlTPNspIxSl8qY57+/ObLxxCFVwJlzl4P2l12bee3tbfDuQlHmj7Y82P19fCEsruDD7r2XMZ01YSwmZrpP8zSTKFZgoMcEP1coruW6JM6elwCQHDioBClEeYUcmZ5JGd+mADD3+eYZhTJmmV74n9COZOsReyOroeaUOM5j9OXvCeVdvpvLbsedJVNblp5M4QqrgfThY/ZZCOh7aXXw2T5VV+cmKm+f/J0tYTSWZppNFPjIICAOzyESzAg5nSnjb5Q8G4x1xgyYY6RR/Mt80nWLJfmmmZ2yZpknppjmrkXj7fONc82kLPIXi5nfWiWzIbCkb82tfKjxBLH4mGshpExPyolZ5UhJ2uePU/WMlthvkWOlpx1rgCPNRdY5akssMxcIOdw6JFOLp1q8Ztb2OGzobjDr7TqTghV3wkVXd3UuZPq7rKLXiM/r74RtoFf/cWLaWqJK6arxX80S/MQzVBP5IBg6gai1yV4MHrSBqBgSwDBwOCgYIAYshQCcW7BwMAS9YUcgJCzOEJyVvk03+o4g+O/0E1Zs6w6GfPs3LlmmfFyFjm+cuZZHnIWWVbzLLKM5MwzjOUsc03mWeYYzrPMWoN1VWQtc8zkrLKNmeZZYx2bXBM5yxwPNLSPnFVekKxVXqasVU4WVCxrldssZ5l9Sc4q90Ns5z9YfobX/3ueZfbf8Jor+Ps4e8+5pnm/OjHYyYueC8+0+XgUX/M9f7aL/WoZQqXXeq9uqrwRQrV3wn+u6AxJrqcX/JzMNPV42xkaSZ/PFKRxQKCWoFlwitkMCt4tOJdgbsHA0IVT8GmDcwoODkDB/SraxzEABdJFDxQcIJxroAA1zSZZ8zyaZ3GU5gGOedaAZP1pmm9zkmTMs74HHF+g8b+UNc+Bsj+HbsNNPoK+xuMv4SpMX6Bxv1pgd5oWbjhDC+wLaL7dKYgNPXCC5tliu0w2eA/rIyJZHeaW822OidaxOY79yO6Qscyy4w8HF/ltzhInWtytTrV6JJ5u82opveFPVXd3UvE1Pyrqd3VTENW9G8HmprpYei14Bv/yFzmCX52uHBc+XT35uxkayf2A6IZitpbILRgQ3fUEB0WfekLkGP17H+xsJnMKzjE4MERQ9KQTXkghvJBezFCQmueSrAVzE9QgTFZwFcvDEB5zYo9FkrVg6zO4HkZs3V6xbc+zBoCmef9cty3Ztei2s/DoVZe9J9rcK0+2un9edjeAzt4OoMLO3ota+sLAaoaz13b+tfha0O+eBei5iRmqqaOnqMQfmaaeBBCSaLoaA6IPFCgwOSi6geChEBWYDIp7wGBAwClkhGh4fTgBkyETGp91TxkMfSTqrorAYJIx6QsIZMrcBDJjsNwv9nyv0OW9RyhkIQDACZCh0IX70GzTGJplFkKTDD1p5TanL7MvbP9bYZcXld7xpYJOLzrZ6klwBjrT7n0fDJW3gtkYTv+EI5jyh/GPE5OUk6Unq8SfnKp6kKapHewDRC8UPUDwUHA1RbdbcIUmgwMg6AECQDFLuJtm6AfRNH1/mq4fSDMMdtEcgySSZWAYMDhEEp3UEonrmTDx5zN6xFxjMJkyocEHVA5eizRmEkezTaJopqkfTTPZTpNNNtEkE1uSNjYnCX19mudgTrtPO9PpTnc60eLGrmUYFAY2qBfqhe9QO/wBBg0dJKYq7p04VSXhxLQeIBL6QTGTQcGAGAAKUe8DNYROAk3RdaMJQmOSEOqQmFBA4kINHHABSRjo0ngDQ5pgYEZSBhtoioEzTTfwoRmGO2mW4R6aaXgAdUZSP9focQ8ekn6A9Cid5hjHQAdolnEEzTTeSdOMvWmKyTaabOxAk4xZo1tzDS9lbAQJSdJYj6SM9CHsj74RyViZkW/GFjrdwUAYHIazN4Ko5HrAjyUdgUFdXcGP94rz5y2maiVOnKwUf3KKaiIHxDRVBkQvFKwb2tMV7QdFKs3UjiFJHUsap6tCY3TXYrmWxuopQIo0VqhIY4R4rI/n9RUgJRIzUCVxA4BioMmBImGgR+MN0TiGRpAxTTQ0I2lDO5I2cqRJ0GROmzlJGVmRpJE5ZMFpopEJZAoZ4W8DLPUhXZpgpA3pcI8ljQABDwCTJLeuMY0XimAIyPp1GNjUx0Udfj+he7kz/7m7TuEJhQQcYpJyfP5UADFVNYngFj1Q9E0dDAoOCAHcQZBIkto2JKaDBtdRBAhKPRLjNU5PCVAwKXNLBkS3xuqvAxwMEPzNSRmPVQCLGokbqkOAhhMcxhDw4LG4kej58XhuPJ4bb6gFiND4nHQgPQAlhAAGJMnJgJMUoJOGS0kbGJGEjiEttDen/YXb6FTbwDCwHkVRp993xe1+gVl/lDupHzZmqO0bD4c4NFn54HdT1ZI5IDgo7kkdIigAjKY/iWurkJi2AoSG1VlH43TQqDwQY/llNxTj9JQ5iQEMMSFeB4nrwyk4AQBO6gACDQ5JcA7CxNINGt9Ai5c2LzR+j+AI0EQ4jSQ00QBAGAAEToCBE5wBkgIMYlqGtNLJkrLPu9CJVjaeUy8MBTwIhR3en51p83ZgY0fzh+h/KyYs3Dd8smK87xSVpH9PVUuhKTwQU+ESvVAc5KCQ0nSgcVoAQEtRBENfDQqGCIhxeiqcRFCoQgABkhACAkhcHxBA41ndwQnOwEkLggv0CCD0CEDoAwROgAFFIpMkt0QagaT0AYQegNA1IrPQ9XSqg10VzSSC4UynNxV3+TJnuFvQ4WfIH5b/7ZBSijadpJzw3hSVgwAB6gMFA4JposCSxDSRHiAxTQaFSANCwYPBYOgVnAFAiOvBGTipAQo4Ay9WhIpzxShgECIl9AipQQgQOAGCHgEGaKIQ7iAEDJwAQ4/gDpCElgHJWprS3gInOtHWCwO7RL6gw+vnU62etYWtXs/HkH3PS0grxy6UXhdXMEkp8bspqswl4nmnYHVFAk0QWHEgjO2GAeoLRX8wAEI3FDpwBojBIBKcARLnBIfQAwiQhB7cgRNg4ARn4IRUwQmpQk/nHgEIaKIeQOgRnIGTAU3QgTQNyCjQmk60i+6ZYGmi6CYKxmten+Vf9Ygta3OW4A/By+gbUxVjxkgqxvpKr4t/b4pqKmBIoinKDIp4klJ3pnECNLqAucM6QMHDwC/7uYUWYGBAcAIIkDiAENcBDDqAoUeAQRcgcAIIkDi3RM2gC1fgBGfoEdyBE5yBE2CAJuoiVegCBF6SuoBBR5/EBfr0jq0pxZ51omMtLnSmCwVjpwe7iaYl/4qbNf+xX8avBZsxT1oh9uikdfFfMihQZNJklT0koS6kcRroOgIKMQ4MERQ9LtH3MYBg4sDQAggMCK4ARarQhitwAgwMCB3AoAMIegRn0IErcIIr9Aju0CM4g44upwk6gIETYIAmAISxGkKahprBN2MjnbruSgU3PSm/w+3jY5d3xBy77D6H/6gv42Fi1iznNycrxthNWhdXP1kpkaaoppGUagCJq2sCCHkS0xAB0a1uMHrhAATQOE5wB17imoBBEyBowRkYDJCENlIFE0BgYjCM5wRnAAQTegRX6BGcgQMBzsDDMEFbSOO1hDRGXY9kTIzIKX4DFd/1oGOtzv89fGX74SMtrhr8x3sZvyWmrI2fLqkQ4zJpXULdZKVkklbbCSB0aKz6GhqnjvpBHQ3PxKAAIFwq4YHgoBAABiaAIIIC7tANhCZggCQgMcAgpgUYIAktgNAjAKEFV+AER+gnuIMW3AGaoK2HtKBLY1X1aOUmMwo7tYUN+/fT0RbnUznN2yxzK61fXuT7uGKS4oFZkxTit05WPNggpRJGE9VtOBjGqSNtqLElEwBgjtFHHAic4ArQOAG6mZCYAM7QBwhxTTgDJKEJGDSRJnqEVMEJ3UxNbU7joQncEu4ASQCCMSo6JGtmRHYH7Gj3aYf/O9a5Lefota2mGS8LxCcXkxQTZ02STzWfpLTr1ARllx/GaxjDGRQABMSA4MAABLzGaiBdcIIrQOM0GAg8DJzgCpzgDJC4ADBA4gJ0MznBGXoEIKDxAoAASUBjVbVJ1tyQhAHW5JZu15lxfnNAyYfb1mW1u768D+RpxVTF0olS6xJVJBX9QqRUnLsmapgDCjQywGBpowcGNSUSh8TUmQAEWwdAcFBowBk4wRk0umGAOzAgNOAKkLgGXKFbPADiGtokiRSx0NqYdHyt/7Y92TZ7d5GDYdlHznL87r2MZxFLltDrMxVzZ0kr7VCW1nCJmKHj2CmpZvbTODV82wFDDwD8chwkzv3NBGfoEWAAEOIaIleQ4MQA4J1AXYsmYilraPiTvKPDXYG3Q6xllKnq7pNb531Ovo91XuuX8RhCIPjlzaVm+ydPVXWQFVNw1J2q7ZIyQ8+pdYqOzd8lVPS/E1PR/m6cqvL3YqoqP4irqf4I/STWI/WfxNQ18Jw6/qf+vYSq1nfSAuNvZIyt/7HYdvOV5fbbk9+x3aS3wsZMdsO+gKmVf395c88LFY6O9PrqDekjF1j6jpVUtBCXVHefK6XgryulFGw6W9c/ap6p50k5E69jcmZex2RNvE+9Y+cdJWPgazJ+dbDeBMX10+bq24jJO/mO3eC1Z2RqC/1xRl8dMIYM+X+E+LQKRPImTgAAAABJRU5ErkJggg==;imageBackground=default;" vertex="1" parent="DBPMjnGHVAKKjfrN9TNZ-8">
          <mxGeometry x="26.93" y="36.5" width="21.4" height="21.4" as="geometry" />
        </mxCell>
        <mxCell id="DBPMjnGHVAKKjfrN9TNZ-11" value="" style="group" vertex="1" connectable="0" parent="DBPMjnGHVAKKjfrN9TNZ-1">
          <mxGeometry x="241.5" y="182.76999999999862" width="69.72999999999956" height="57.9" as="geometry" />
        </mxCell>
        <mxCell id="DBPMjnGHVAKKjfrN9TNZ-12" value="" style="shape=image;verticalLabelPosition=bottom;labelBackgroundColor=default;verticalAlign=top;aspect=fixed;imageAspect=0;image=data:image/png,iVBORw0KGgoAAAANSUhEUgAAACUAAAAlCAYAAADFniADAAAKbklEQVRYCe2Yd1RUVx6As2dPYkVBwI4DGrsx5ZhkE10R6diwQGQtSYyxrFFjjtF1FbOaAgxFOkix4RILKNhQUSMSEMWyogYpImVohiodlG/PvTijwJh1/9hz8sfOOXfmvvvuu++7v37nFX6Hn1d+h0z8V1AVtc1cuFEAra0vtZf6phbqG5upa2x+qfnqSS8F9XOais9cTvH+yoMMcQhjjvNxslUV6jU6/TY1P+bvOy8xaXU0U9dFY7o2ir8FJ1BV29RprraB34TKK6liuftZjOYG08NciY65K11MXdG382VLaKK29eRYbGIGb332T7pN9eS1yS70slDS1cwd242xnEy+/8Ln1DdeCFVUXs+fV0XSdYoSfWsPupm5YeIQJCWQraokI7+SM1fusy08gY+cj+L0TQwb/M8RfzWHa+nF1NS3kJSWj+OWaPRsdqBn5U6PqW4MnrOTkym56vdr/dUKlV9azSznM3Q3c0XfxgMDO2/W+cZzv7CKX3IrWK6Mw3iOP/1mBmI43Y/uZm6y9bH1pv+sIIbM9mf61wc5npQtXxp59g6jF4TSY6qS3pZKBs0OIuriPa1AYrAT1H1VBZNX/Ug3M1cMbD3RsfRkb1waWQXlLHM7jeE0H7pPVdLH2oN+07y0NgMbDymVPna+mK2OJKeoioz8ciatjEDP2hNdSyWD5wQT9ZN2sE5Qn7qcpoupG/o27vS28uTwhXTu5ZVhZO9D1yluGNh60P8pTF87L3pbtqlFqEbYTl87Tw2o6OuYKxloH0hA9HVaW1uZviFKmoKY++7KKPJLqjpJrB1UTMI9+s8MkCrTs/EiIi6NzPxyxizchY6FG/2nt0lGSLCnuRI92x18uGIP85yjcXCOxmxNBANm+dPb2gtdK3cNnJ61O3q2vgTH3ORBURXjFoW12Zi5krW+P70Yqra+iRmbjsmdvTrZlc07L6J6+IihDkHomLcBCQnpWXkw0N6fzz3juJZdSuWjp27eCnUNT7iVW4bPsZuMXhAiwdUqFirVtfUj6VY+t7JKMJjuL9X49tJIcgor24FpJFVaUcu7yw/Q1fQHPlwRQUNTC/O3HpEhQMCIpmPhzthFO7mWWUxlVjkXXJM54LibIx/tJMphJ1GOYSR6XKYouYCy+maWeZ6V3qtWqa6VB+MXhSLetcrjtITubeNN0JFr2qEeSqiDdJ/qwfGfM7iT8xDhTc8v+PZne8gvr+H2/jvsnuLP2WGO3FZ8QO6gUTwYPIbswW9wfvh8Qia4cNnvCk01jSzzPCNtU0hMqP81UyXbd10iLbsUAzsfepi747g5WjtU5aMGLNfH0n+mr9zJou2x0oXFYsK4B88J4BdVBWn7bhH11kbSTd6jUqHgofHrlBiPlK3UZARl+oY8MDBh1/D1xG9PoLqlRapS76m3Cs97Y1EoVTWNMob1tQ+T8e55Ko36xOCVuyq27Ukh5U4hBnY7ZEgQUCK+rA08R82DSsIm+pJh8g4VQxQUmYx+1oaOQWVgxK+zP6J64SLyDYw58N52VFeKiLuZK7OAtC87L/rPCpTvOnzhF7wPXX+eR/bbQYkRkbdiEjLQtfGRdmRo54nhdB9u3n/ImS3xXDSZSbnC+BnMU7BCQyPKFi6htaVFLtywbi1X9Sdw6PPDlFfV8+7S3TJwCrCe5u6s8oiTyboTkbbgKSY5hyWia71DurSIQ2Zr91NZ08iRWYHkGI2jxHhEJyiV/iAqVqzWvKPh0GEKeg8g/E1niq8XMXfbURlQBVS3Ka4ywWsmd+h0kpS4P9f5hEwx6gWE6irv/UrkZDcKFaMoNhnZCapI0TZWsWodlWvXU/LOB5QNMuLcmysoSC1l5+k0DKb5yo2KQLt4e2wHlGeXWqEcth7T7KrrFFfWBJ8n53Qm4W/+g0KTsdqhho6hSDEKld5AVLoDKBw8nHJjExLeXkHxzTJ+uqvCcIZ/G5S5EqetR55RdOhphXLadkIT+HqYubHE7SSNNU3ETPdBNXiEdqjnjd5kNMUmoyg1GU7U2DXkJqlYHXgeXeu2jCAS+JLvj3dAeXapFWr/mdsy4gr16dt4MswxkLziag457eW24k+UKYZ2Vl8HqFLj4WQq3iHcwp+K3ArsNh7SmISQ/sffnXhG0aHXDqr1yROSbhdyLDGT7lPbcpdMulZeHEi8R/qxDA6N+ZJi4xEyLrULCe2gRlGlMCJu2AIuB6WSX13HkLmBMt6Jjfax8yH46HWZbkRu7fhpByVKVouvolGVPmL8ohBNUhUZfeKqCJrrm9m3IIpLw2bKOFUqvXBUO6mJscohQ0gwmc6P8yJprG7kC9+zGtWJQKyYF0xxWS3fhF1k7tZTPHnSvubXQCXcyGXYX/bRzUwpq8eQ2OuyL3Ymmp6NN99FptBSWsuP8/ZxdPhS8ozH8avx65QPUcjYVaEwJlfxBvEjnAizDKckKY/42wX0sfXB0LatpBGeZ7/xIA8r6xjptJM+0/w5lZzVTlgaqNMp2Rg7htHF9AfmbY7mUV0jo52CNNISO+xt7c23kZdpKqkhwSWRsImeHB25gsSxC7k0djHnRn1ChKknh1cdo7WsgeTMEgbZ+2kKQmEK3c09iE/Nwe/wVbqJStTGh72nbmmHqm9swfzLKHpZKqWoL1x/ICe/avqscBN1lPCgT91OkppVQm3eI7LO5JAel8Pd49lkxefSUFBHcXktysPXeH1+qCz8RCIWVUaXKUrW+8XT0Ngs86EojQfMDiYuua1sVpNpJCUGvgm9SFczpVzow+X7eFhRx4aAC1KN6mpBqFKUwwNn+eL0fSwRCemkZJdwOauEmNQcPnE7wbjFIfQw95CFnBqop4U7HyzbS01dI5tDEmQcFGeAec7HePwimxJQucWVTFx16OmRyA2bryIl/Hr/83KX4hAhdizAhI10neKCvp03A2cHydZvZoA8QKgrArU9/nHSD0xauV9WBtt3J9HNzB19a3dM5ocTd7m9PYkXtpOUGAiNvUEfO2EH7vSydGdTcAKP6prYGHCeAfaBiBgj1Kh+Yd9pXghbUTfNuJ0oCpWyXlrjHY+o17aFX0LHyhtDWw9em+IuKxK56w5fnaDEff8jN9Cz9ZFgr052wfSvEeSWVJOeVyETab8ZvvS0eHpisfZADSYkKbxLx8JDPm+5NpKTSVk0Nj9hc8gleSAVQD0tvXBwjqWsqrYDTtulVihxK/xUOvrT/NCzUkqJiXNbZHw6j1vh7oMyvt2TxIyvDzJh6T6M5oWgcAhl/Cd7mb0pmg0B50i+XYg40IYev8X4xWGyXBEqEydlx2+OS+/WSqRNfc9PDDj6L0zm75I2JirGXlZeTFiyi01BFzgv/ugACkqrSb5dQModlTwbirGbmSV4HUzlrY/DpMH3tlDKckXhEMZX/hepbfjtPzxeKCk13I3MUqZtjJFS07HawR8nKzG0D8PzwFVaHj9RT2v3m5RWwPtfHOUPE13oZemJ4YwAZm85yamUvHbzXnTxH6HEgy2PWzl0IYOAqFT8DqcSl5LzovU04yKnfa48wwr308QkdvYwzUQtnZeC0vLc/3To/1AvK95/A9GoclphejwTAAAAAElFTkSuQmCC;" vertex="1" parent="DBPMjnGHVAKKjfrN9TNZ-11">
          <mxGeometry x="48.32999999999993" y="36.5" width="21.4" height="21.4" as="geometry" />
        </mxCell>
        <mxCell id="DBPMjnGHVAKKjfrN9TNZ-13" value="" style="group" vertex="1" connectable="0" parent="DBPMjnGHVAKKjfrN9TNZ-11">
          <mxGeometry width="69.73" height="57.9" as="geometry" />
        </mxCell>
        <mxCell id="DBPMjnGHVAKKjfrN9TNZ-14" value="PC" style="points=[[0.03,0.03,0],[0.5,0,0],[0.97,0.03,0],[1,0.4,0],[0.97,0.745,0],[0.5,1,0],[0.03,0.745,0],[0,0.4,0]];verticalLabelPosition=bottom;sketch=0;html=1;verticalAlign=top;aspect=fixed;align=center;pointerEvents=1;shape=mxgraph.cisco19.workstation;fillColor=#005073;strokeColor=none;textShadow=1;" vertex="1" parent="DBPMjnGHVAKKjfrN9TNZ-13">
          <mxGeometry width="69.73" height="55.79" as="geometry" />
        </mxCell>
        <mxCell id="DBPMjnGHVAKKjfrN9TNZ-15" value="" style="shape=image;verticalLabelPosition=bottom;labelBackgroundColor=default;verticalAlign=top;imageAspect=0;image=data:image/png,iVBORw0KGgoAAAANSUhEUgAAAIMAAACMCAYAAABfyxqzAAAAAXNSR0IArs4c6QAAAARnQU1BAACxjwv8YQUAAAAJcEhZcwAAFxEAABcRAcom8z8AAE3/SURBVHhe7Z0HWBTX+sZNcpMYuwIqYG8Ilhh7QZC+1KV3EERRVEB6ly5WujTp2LAgTXoRUGxUxZp+c1vuzf3f9Jv+/d8zOzSFqIk11+953meWZXZ2ds5v3+87szPnDPlfDpMuemND6QcK9qUfWpgXvT+Bf/pl/C+FVdndUfaFH6xYX/x+9vqid7/aUP7JD+uL3+uyL/rA0f7UnRnOZXff5Fd9GX/UMD96bYLNqXc1bE/fybAtuPuNXcmHtL7ogx7ZlXxEtmfe/cT2zPuhdvm3FjimtrzOv/Rl/FHC7sy7k21Pv2dgffpuoc3pO2RX9CEa/T2yKbhL7G+R7pJtwbvc83YlH5P16TsfQ6EWBbflNxT+ayS/qZfxoobFkRuzLfNvbrI+ebfC+tQdfPs/QiPfJfbY+iTT7X6y4pZ4Hv+3KXgfUPwZz9352urEnWTr/Jtq1qffG89v+mW8KGF+9MYK8+M3vC3ybzVaF3xANoUfkUX+bbI4fvMRdYssAYdN4cdkcezmt9jGSdPj16zMjl2fzL/Vy3gew+QEvWZ65LoGFG127MYtK0BgCeExmR7t+p26QeaAyerMR4Tt/2Kef6cMzzub5VyX5d/+ZTwPYZNzU8w495q9Sd61HJPD1/9qfQbf4hPvkunhLsLfEFs+DrFtXQcYNwHFx4DsFoOk2TTv2j68vxq/Oy/jWYRxXqeMcW6nt+mRG+VYfmNZ8BGZHb9NJrnXCI3DLZ+U8H4cIBYn3wd477G/P4RyjXPbrazyLo3id/FlPOnQyWlTNMjqSDXM6Wg1zG7/xfzUB2R8+Abh72cjBsax22R+6kMyyOn4t2HOtVr9zA53/ezrM/ldfhmPM6xzO4brZ7db62W0FgqzOt43PHyTjI/eIYPsayTMbIPan7FE+2CYi3Ry/D32+Fu9zPYOvcy2eMOs9jVE9Ar/UV7Gbw1h2uVFuumtUcL01iv6me3/NsyDA+TeIGEGDn5663Mrg6xOMjp8i7DPbF8/Fqa1VOmlt2xSA9T8R3sZDw56xSSxa4Qw+aqWMOVqgTC97RPhodYfDXNu4ADDBQ7hYKe1vDDST28jw+wu7Pt1PG7/Qi+1pV0/rWWP7qHWhYr19Cf+Q7+MvmF8oPktrYOtsropV4N0U65c1jvU9h+9tDZ8s64RW+L5F1qAAI7RwX0enZSrP+G5f+qktJzVTb4q1E5qGvs/D8aS1JbXBXFtEtqJF7V0ky6f0Tl4+f90k678qJfKvv0AIPkK4fknrCtoKPZ+7aKGG3Cdxyu9FOYa7dxSL/nqN3pJl9/VSbyyRzPh8lJhTPsY/vD8b4ROaou4fnzzcp3E5mCthIsdgOBHnYNo+OQW0kHj6CReIu0nqovce+iltAGEdsI+fKWVcOkf7H/CtE7sw9UBXvP4hc/NfWYm7rl47Ef8xQqt5KsWgrjzM3GchvGH7I8VJon1I/TiLslpx13YoJ1woVgnvvlrvUQcDF46CWig+OanoIskTIYTJLcBiCufacdfuKgdd9FJJ7ZRRTvufIpuwqVb2vHNPwtT8M0FoANv4/EL79tzLJiwD3/TTbgYrRPfpCk8eGWyYnD9i51GTE6ceE0jumme5v5Gfa2YCwnQX3QTcIAT8GHjLpJ2bDN0gfD8Exd7L72DsOWDrXhvuEDMhWLNA82W6geax/G7y4XWvgtTtWOao7Rimjuwzn/1kpA+EuAUA2zzcYu9B3dMcGx04hgccAwcH82YC42a0U1Bgj2NitoHaqT5XX0xQm1fw3SN/Q0aOKBhgv2N17Vj2Te/hbSim0nzwHmR9jc9FWlFXxC9N/ZBc//597X2n88R7G0yCQ6mV/ndHTAEcVdnau674CHY31SH132me7ADjXTlKe47f5wOMEDgFvgMeP5Lwb6mEsHeRmf13Q2rVXdXj+Z39/kKjegGSfW9jQKNAxdC1Pecq1Xf1/i9zsF2EgAAjX1NUOPT094GErCDmNCK5XnCvrThud3Yj3X87j506ATXi2vsabQQ7G3Ix7b/qh3fSpqAQvReDf3f9wlLAEC0Yq9wYKvvbfiL+r6mLBzzTRrR59aq7at8tucvBJFlEqq76zTUdp/zVttzrhD6TDuRAXAJO9tI+PupS50dsIR2Ut1d/43a3nMVqnsbfNX21i/id/k3B8vZalHndFX3NMSp7jnXqRkDp0HDcJ9z98D78uTUwH1Ozbir3LHGZ/0A+5SlEVW3TbC7Sd4kuOsNfrefbKgGV0kp7arVUoqsDVSOrCtR3VX/F0H0ZezUZexkI6nuqnsGqkej4ODEtJBKZN2ncIFMPGehuqdKit/txxrqUXVLVCPqfNR2AbbIul80Y64CiIYB9uspKEr02QXYB7ZU2VV/VyWiLk9lV527ani1/JDHfRpc3q9RQimsylAlvDZWJfJcrXJ4zSdqey6AzsugsomUI+qg2qesOjR8PantbQaEzaQUUXsTDRSuHHlObUlw8VPpkimF105dF15thffMVg6v/UJ9H76lUY3cvj2LY8Idj93nSePAFYByjj13C/t4TDm8zlslvH6dmsdvTCXYyEyViNoNSqE12SrhdY3KYTV/ZwddfR8AYB84HB82rObpKhwfGlKJwIfGvvAHvQj/26gSVv0Ov+tPPVR9qkcrh9aoKYcBxrCaW6pRTWiMJuwn9o/tcxjTAJ/nCYo7RgCDtRf+/kUprPZ97GM1vsi7sF/a8lFNY/ndHyBQXa8LOrtGKaTSSym4slA5pKZDKaTqP2q7zmOjzdg4SAupJjwHseXTE3tffBB8qHpuP/Dcp0phNXEKoZWaLG3xn+CZB1dXRNbPVwmpXo/9LVkXUvUdvpHYb8DA9v+ez/XkJWor9v6qkay2wRcotJrWBVf9RTm09qJScEU69tVKJbh6Bv8RROcD1u2s8lgXVPUxlt+qhCP/RcD+Q+oIf9O6oMqnL7yvUjA+UHANPhCEx+t2VtYp7axyUgg8u+A3W95TCsXg0on4Uilgf+Pwef6pzD5Ht3biswz0mZ+C2HFkXyrVyPNo31pSCqr+t+LOytsKQZWa/I7XD10bUF6gFHaOFLGzCoEVhL9J4VkosJIUcbAUgqrwd8XPawMq/qUQUHZIMaB8naJn6URuh1+gYNAqBZbLrPUv3yLvX1Yr71/+zVocX/YZFdlnxOMBj8MTFte+ONbr2Bce7S4fUGHP7TBgGCHvW9aoEFBJa/2wol/Z05U/2zEcmKBqwgFjz325xu9sw1r/s9sVfStmPa2C8AnHK/K+pWOhFfi80Wt9yz5a61/x3Vocc/a52fK+4/IUpOCPLz6OP/bHittLBsMqn9Lzq/0qaJVPGXT2iWs1E95vTUA1t1zlW/7VKu+z76/yPZu02rN4Fdunx94tek5CLvjEG6u9qqTkvUptVnmXVq72PfspjskP7FisCaii1b7lAx6zJyHuvXzLaIVPqR23c4rBJ0as8io5v5qB4FUKlTwxMQjW+FVyWulV8t9VnsV/XuFVUrzSs8RW3vfIWFbIcjv1PxJLHFNfl/crlFvpWRy8yqu4BcfnUwBCa/zxJWENhccDHcfHJmx/tfdZWulxNoI7Rb8EXaMVnsV3VuJJLB+70NCgsJxW4wOu8Cj6GR/8k5UexXUAwXe1a+nvPjv4R4klji2vr/QsEuAYZaz0KOzEsftilW8FnLOKnlTb4IuIL2UprXQvimO9oSFL3IvFl7kVfb/cs5SWuRf9frkV0XJ39kZwGl8A4FVOS92K/7HUo/jiUreiqMVepUrsg/PH4GUMECvd8sct3VHkuNSt8OhS96KOZW6F369kx9K7gpZ7lAx83H+LPIpF23Mriu2BYanrme+WuxXTMtczv107CmmFO7MekOxVwZ771wq3osZlroWpy12LTFgBxX/Wl/EIsdi5YCaOpQ+OYQGO8a1lLmd+XuUDMDzLaTm+eP3a4FGFNlu+g9sGD4PjEfEl209/t8y1iJY6FzyCTnNL9rqVHhVIBxW0dPvp/yx1LaoBXAlLXU6bL3LOl+A/08t4DLHY+fTKpdsLvHBs85c6n7m5zKUQX7xKQAFXdznT0yYPLbyGbWOJ8+leGJZuPfXdMudCWroNG3sonULDFyDXAICtp75e5lxQvWTrqZjlWwssFm86Lcnv+8t4QhEcHPwqYFi9bNspd7TDkSXbTt9e7oL07FrS2z73tdkAQhsu2w4gtvaBYYnTyR+X4kk06MNpWwEtdjr17eItJw8s3nzSVM7xxBR+P1/GUw7F9VlDFzmdXL146ykntGMz9MuSracHbrd7xUFRgMcnRTAscDoydvHm/D8vdcIGNp94KC3ddoYWO5741MTkxNP57fxlPFQsccz3WbzlxA9LndDQA7TbfdpykpZuOUXvbOFhkNt6YsQ7G49fWOx4kt7ZlA8df6AWbzlN7zgc/3Shde4Lc4dQfL3fXK+inSZOZ3y3mud7Rxkf35xonu+UwGR10inB5rRzwnqmAueDbsU+gSGVAZtjzvlrlrevn8Zv4rmPRRuOeb6z8dj3+KIO2G73yRHtjXXf3nhc1LVkMLy98VjToo359LbDcejYA7XI8RRbfipncmIEvx/PVWw+c3GaZf7BLRpZPqmLk22LxWIMKqUSja9PS7L6x8wUq69mptnSnCwbmptlS7LZ62l+DpRnTwsOb6C3jzjQ2zn2Py7Odfji7Ry7T+bl2LSvPGpTZ1qwvcC3wntv4jk3rU8/NXkuP/fbDke9oe9FbTlw2/XTRrQ31l3kcHT3EJMTrw1hDbrA/sj5hRuO0QL7o9CRB2qhwwmab3f0/+ZuOD6f349nGkT0qmley0qV9IMJMnHbm8dFm9+aEGP2pVSiJU1INafRKaY0KsmYRiQa06hEExqdaERjsRx70JTEksxIIhlKtSCJNKx/yJKkMqxIOtuWJuWupylHN9Cck5towaktAGXTLwuOOfxt3UmHDpezW4tiGre75Lc6zOJ345nHgvXHvBbYH/5e1JYDt10/sfWY7PI2chtgMMy3PXxhwfqjNN/2CHT4gVpgd5wtv5CzzlXmNvIMIvgEvWGc/f5ytdTy1AVxEdfH7Vv/19H7TH4ZnWBOw+IMaFi0Lg0/oIelkEbGGNCoWEMaHQcIEoxJDBIHDOKAYTxgmJgCAYaJqZYkfciKpmRY0+RMG5oCTYZ7TIJzSOfYkRTcQ/rYRpp9ajO9fXIzLTq26WuTYsePwqscC5ObNttW37QRIxryzH5TkbM+7DPfNu97UVsO3Hb9xNZbDyhsDltyG1hoXTlcziavgYEwzybvoTR//TEsc586DCyv2Wf8TUI/tX27xsHqi/Njdn82do81DTtgSm/sF9Lre7Xozb06NGwfQNivRyMPCGlEtP79MMAhxA/2wjABMEimWZAkXEE6vRcGDgTmEIBhUq4dTQYMU/I20CSmww40+dhmkjnpRO/kbyHTwk1f7avbdOvwZcfQUxftZqe2OD7ls6z0yjybw6lon1/moaHvbbMBxdqcW/ewDbcJ9mPJPKvsRFBFctZ5JGeV+0DNszlKcpY5X8ha5qhyG3nCwcZjNExum22UeC1CM7Hh46Wxqd+L7d1Ib+4xoNeitCBNemO3Nr25W4fe2qv78DAk9YdBGjBM4mFgrjAJMEjnMMEZAMIkJtQVHAioLaYc3kRT8zbRtLzNNPvoFlI4uZW8Kjf/eKh589/yrmzen3PRSTauzPnpDDAaHPwq2uYE14YP2Y7d686zzjXntqGoWP8nOfOsWFmLXJK1yCFZ8+wHSs4yj+aaZ30rY5Yu+unzCYVJ8Ik3DOMvzNWNvxwqTGj9i2piFc3YF0h/itSjVyI06bVITfrTLm16PUpbBMOe3wBDsjlXV0immffAMDlTBMNkuEJfGJikjgAGgMBgmHpkE00HEDPyHGl6LpQDp8hzok1lTpR+0YlyLjl9mteydXfm1W0LnjgUgEHWLOsk14YP2Y5cm5vn0Hyb9KXcNthlb3PNMvfPxZNzscJcs6wHim1AxizzexmLLC9uI08gBHtrZwoOnN+pE3vhL8KkDloXV0LiUZtpSKgmDQnTpFcjtAEF9BRgYIVkPxiO3g/DDMAwEzDMyNlCs7O20KZiJ8q7uo2OtTlT3uVt/zx8dXvokSan3usNH3cE06uyplnnZM1z0UYP146szWWx7hyLrLn8VoYMkTHKcJE1zSROJhkPlJwp3sw44wdZ0/RAfhOPLQTBZaPU9zZZCmKar2rHXyG9hBZSi6umcREONCREHTBo0ath2gPD8JjSRDcMg6YJliKgaQPAMBswzAIMstlbKLTaiY4wIFpdKL9jBx276tJ25Iqb+aFmh373eD6OCB4CGIwzPpxnfnjANhtIcqb4YhtlfCtrmDmb38yQIbMN0mznGmUQJ8P0B4tb79AvMgbpqXj5Y6ue1fbVz1ffdz5FfX/jz9rsHsmYZqiJpkX60ZBgAWCAQgHCPTCIgNB5dGd4QAHJYLi3gJyM4nEygJiCumEqQJiOmoGlCAbDLMAwJxsCDLMzt5DWcSfKvrSVjl7ZDii208lrbnSsxZVOtrllHb3g/Fgv71+oljtcxiDtI1kTOPxAbTaAZI0yScbgUNcCq7xJ/GbgDMJDunP0D9Ecg3Tilg8S1gMI7HEBy1X8Zn5zoJcwVCWq1lJ9X1ObZjy7R/ICd5+kTsxlWrYng/4Uok9DdsIVQrR6YQgHBP3cQQTDUMDwFmAY8Qgw9HQt0+7vTbBUMRkwTGYw5IpgYD2KqXlwBuYKuUwMBEeaw2oGwCADGGYChrfhDklNIhgOMyCuONPxVlcquuVDp9o9b+Rf2WFz4oTJa/xh+F0xT+uQ7Bxh6t9ljLLub69BJGOQQbOFaZ2zDOJ6YZhrkD4fQGAFNLAw7cHSSyMZfbah1KvcmavfEYr768WVIur3q+1u+EoQe4W7TY/drMvuQmZ3UU8MdxWBEAwQeBheGRQGbREM0Ih9/WEYHQsxGOKNaRyA6HeeIbkPDHCHyRwQovMMUwHElCzAkGNHU3LQtcwFDNC0XAfOFWbkbkSd4EizszfBERwBgsgZZmaIYIg9h1TRB4ajV12QLnZQ0U1fOIT7l3CJPUda3MX5w/GbY45+hvxsvZR/yRhkDtxmA0gG7S2jm1Y2SxDXe6nBTN1Ds+bopnw9lzWybspDaa5+Flt+xG/iN4VKcOkMpfDaArXdjdy9gqIbS0UwaB24SCv3HKahIWaAQa0fDEN4GF67p264F4ZR+wHDAX0aFQ0QOCBEMIjcwYQkeBjGA4YJKUgTqZYk1V03pItgmAIYpgKGqVk8DNn2NDV7A1KDA2qEjTQrG8rZhDphEwpHuAODIXMzzUrfQityt9Ch5q0DwnDsijsVXPOi4i5vOnnVvbig1ft3DT0so5Nkifb4Yq4ea+CB26y/0mguDEBGJyUNMPQOZDpDJ3XKHO3k23N1UgnLh5KMLlxEK+mvC3XTpvObeaRYF1q5Rim0plp970VS23WO2A203B3Ne0W3oOseuELTI0LolZ3oPexErfAwMKCIHLpHBMNw5gwDwcC7g1gCnCHRFO5gRhJc3SA6AykFd5h0yApAAARoagZgyFxP0zLtaBqAmJZlTzOyNtDMbMDAQOAgYK4gcgYGwuwMCDBYnmTdy60cCPfCcPyqO51odafT7Z5UcTeACtq8zhe2eynxh+eRY65m0ja0xzdzdfCtH6C97hcDAtlAKzlyqmLWUH4zgMEgafxszaSaOVqphOVDaY52Gs0SJH0mo5XyyB9AIahCaV1o1S12PyC7J1E1UnRXsTq7q3hPAwngDDoHLpFEGFJEoDJgAAQMBiYGA183cDD0BQK9iTcBg8gd9FBIClFI6nNAjAAQw2OMaCSAGBVnTGPiTWhMgimNSTSjsQBCLNmCxJPZbxmWKCat4BCoGzggkCYABAcDJx4GaFaWA7QRxSIT3CET6SLDkaanb6bl6FXsrXMCBFvRtRwchlOtHnS6zZPKbgfQmXaf9ws6vUV3Nz1izNE4uH+2IOmnOVopA7bX/WJApNFMjaRt/CZEMUM1dfQMtaScWRopNFM9CTr4QM0SpNIM9YNfztBIfqQTT4rB1euUdgKEKIDAbqSFGAwqgEGNh0EDKUN1byWNDd4EGFT6w9BdNzDBHZhDsJ7FKwDiVQDxp9269AaAeGOPHknF6tG0BCFNT9CnRWn6tCLDkFZlQllGtCbLmNZmm5BCjimtyzUl5cPmpHLYgpZkWdD8TCtamG1N0wCD1CH0JqDJ6UgT0NR0e5rOgMgEEJlwB4AwMwMOAc3I2ETTDjnSYqSKgConyr3sBBAeDoYzHd5UfieIAfFBcZv/IwMxQz3pxCyNZNa4A7bX/UqiWZr4Qqsn6PCbEAWziWmq8btmYEPT1RKhhAcLG5umFv8DHofwm3lgKPhVKCkGVd5mN4KKbqat4WDgbrHnxxtgg1EwGJT3lAIGB8CgSkOCAAADohuKEFGq+BNAGIc6QSZOi5amapFipiZpHdYms5NaZFugRZsKdcipmEmXdpTqkcdZIXmX6ZNPuT75lRuQf4UhBVQaUWClMe2sNqGQalM0ohn5V1pgaUHelZbkVWlFLmetaVORLVmftiW9fDtae9ie5qNumJa+AQAAiHQ4A2BYi4LS7rQjRdVtppzLWzgYch8ShoJ2bwDhQxW3A6m4w/fDM22+Wvxhe6iYpppweSa+oA/ffok0A1/+6crxy/lN9MQrU1Xit05TS6apKolQwoOl2rNeOr+NXw12a5mif1kXu7GX3R28LqSKg4ETN76AyBk4GPaxnkQzSYS70JAAFXoFMLwGCMbt0qL5aHj5NE3SOyKg9WcEtAHaXKRB20o00Gga5F4mIJ9KAflXaZJflTYaVZsCq3UosEqXgqr00OBCCq0RUniNPkXUGlBkrSHtqjWi3fUmtAfa32BKMQ3mFNNoTvGNFpTQZImlJcU2WFN0gw3tr7fBerYUWWdHYbX2WNrTrjoHiqrfiNdtotQLDITNlA0Ysi89IgztPlQEICrhEEVtfh8+rENMkU8aO0U57s409dT+bfQrmqaaxNrwfSmVhDn8Znpjikq86hSVJJqsFA/FPZTY+pOUYs/zmxg0FH3OTFvjX9bQc2c3U3AVKYWyu4JF7sAVkHubUC9c4IbH0dx76dvpEf5fzI0WkEqGJpkfF+DbqUFb+UZ3K9cgzwoN8oDc8Zj9vQNiMHiUC8izXJO8KrTJB/Kt1CG/Sl184/UAhBAuIAQU+oDCgMJqDAGGERrVBI1qAihMaW+9Oe07Z077z1nQgQZLQCCCIb7JhhKhlPO2lHbBDj0Fe8q4aE+ZFx0o69JGyrq4iTIvbcZzm/H3b4OhECru9KOqd4PhEAE3K24H954qHiSkFOLemaQU92dR+w3cVvdqinIiW16appQ4ld9Mb0gpxiySVoz9ftK6OJqkGPtQmqyURFKKsXX8JgaMlW7Nb632OZu/lt1gGlRJioEV/C33IhhUwuEIbGCJ3U2kElX/DQrJD9X3nDumEnVJaJrntMypRK3Zq16bvGo0yaOyt9F3lGmQ6wBy42HwqtAk7yod8oUCavUosFZIQbX6FFIPABoMKaIBADQa065GE4pqNKU95wHABQCA5QG4QfR5CMuYJiu4BJaAIbbRBi7BgLClg012lHTenlIu2MMNHCiteSPg2ETpAOH3wlDU4Usl1/yp8nYIloENZZ3evSeFBohJinECaYWYTycrJQ7YTgOJrSutGHNESmWXGL+Z3pgiHz1Dcm3sNUnFBJJUiH2gpETr/XuiQowhv4n7gg0JvNK7JGqNX9kvawOquFvBORgAhXJIDQrHRt4VGv+GVFGvGlm7SXXPeSk2xRC/iSG+lepL0PjlblWC/3Ov1iTPei3yqINq75cnnvephws06JBPDQDinQH6yrdS9wu/Sr0vgir1PkO6+ATp4pPQav1PwqoNPwmvNvokotbkk111xn+OqjP99946sy/31pt9sa/e/AfmDPEXbSj5qj0lXbGn5Mt2lHLJjpIBQRL0pGAo7vCjs9cDqfxmMJW0Bx49UR88+KV2Jidem7g2OkNSMR5twjRwm/WV1LqDJKUQG7xkyQDXXUxYtW+8pHzsaWk0stTamAcoTiT5mAT+5QPGKo9C8zU+ZZ+uDawmeXYLOGBYF1hJKmENSA9IGSFV7yuH12SsC61bM+RXrhBan6U41K1C09L1rEaBa7nGNTjA3XuF1PGuS5nGTbcyjaueFYJLHuUaBXCHFJ9yzYO+lVpb/av1NviX62wMrhDqB1cKF4VV670jklGPImuMFu6uNzbeXWe6eX+96cYD9aYR++vNU6IbLYuiG6yvIFXcimu0/nNCk+3nzBkyWh0pu92RMlscKeOy42OHAWmCKgBDedfO/5Z0Bvjzh2PAmCi/T05SPvqDh2u/GJJeB1eXjxWNy3BvTFDbN3zi2pjYh9mYNOiTko/+UGL13kFnW1nqWzpjlWfJ1bVBddzd12zsB4WdtdyAIOhR3AEUyQq/YSwmtwr1ce4V6nNdS1Vl2bJbW8s15mH5RGeVS7xgOTX+vNXahPO2Gw+et9uPNFGc0mzfknJhw8dpFxx+ONy5jY5cc6ac1q0oINmPVL8fhpLOQKp9N4yqbgR/cLYj+FevLJOUj3HBF/RHKdY+A7Rbr+AMCok/TlgTM+jYmK9Ir43ZzBEz4AZ4MYsRPR70WgY2wMZytzPJa/xraCW77ZsDoQ7uUP4XOETyWv+S+7ozL2qkn98glXJ+g3ra+Y3+6c2bjmZe3nIZzvDp0c7tlN/lSsfanenwVeh3wHD2WhCd+yCCyjp2NtbciRh0yGDuCy0ffYH7srIGv7ftuqUQRwDnL5JroxfzL70/JBX2q6EW+OUhNnR5qmLioMPqrHA7Y7TCu/zTlexWfL8qOEPpL2t8SovQo9DlV/nDRkaT04ysZieTrItb9uVc2Vqbc9npE3YtQ8EtD+6aht8KQ0VXMNXeCaOKayGRwTT4L8VSCtGmSBc//Zo7SCvA/eWjL05STBz8ym7WRcFKf2cNPtBGRLVCzC8oQERX0w4QS93PTF7meubcqoB6Wu3PjS3w0Wrv0oBlvtX3V61/8Mhu3iydc3GrVt7VbQFHLjufhjN8WnQHjd7lBRA8HgmGMqj+vQgGw4flN0LX8m9xX7AfnVBMNv0qDIooHuVjDs1a3ucHqntjwtp90wFDA0fOfRtheYYrGltZscm/5L5YuaPQbSW7Ld+7nFZ4FpWu8ih6ZpfTP09xosVx9OHLLjpHrziHHW/Zce54izuVvedPZzq9HhqG8us7qenDKKroDMmDUwxytRS9Iq0YbYx2+mWwL/UkpVSSlj/gwr9g4GA5R1o+JlGadTvu2whgYEStjd422DUMq9lYAi4F11Z4lv2wdMeZhJVuJS/WkPhPKY60ucw+1upudrrTM/lki/s/zt7yo5Ib/lQICH4Vhms7qeZ2ONXdifxP5bVQA35z98Uk9QPjkMrrRDDck/JZzaeY8N2EddHa/OqDB4hyYuT02wAkzblC7E0JxQOD5ZlXlmwv8F3qUvDzUucCP3bbHv/8yxgkiosdh528tGNtQZt7cEGHdycD4uyNAO4M5GAwVFwPoQsf76XK6+FHiluCB7kohl6ZqBBjy84F9Sn4Re3IzkXIx7wr/mvFY3dIrovRkFSI/7b/RmKxkUSSXhMbOkSxfsBZUZa6Fsos3X4mG86wZZZz2dO5V+APEuzSt/w2D7nTnV5bCzt8Ws8CirIbgezs44Aw1N6CO9yO/KryeuigBfkExZhpkmtjOkQ9iz4wMNdfE30GMDx4HI0Ja6LnoRpt63e+QWQ3/5VUjJXnV7svFjudUlqyrcCd//OJBJvYRHt/0xLt/ef1NPc2blI/0GivFdPspRXbnKoT35yklXApSYfpoEh6yVegq0l6KVBaq0jpTC0pwoz2WP30VndhRpuDXka7vWF6u5Iwq32RVtblZzr4aFGHx/SiDm8nuEP72S4AcCOYylAr9IWhqiuMLny4h6qYO9wexB2WpL4+cfX+XexL3DdVTFJKYQ6/+6GuXZVUTBVH//NY3/MNbIOSa2NPSqkkDNojWOhROXy5c95vnwea6BV2d9cy3wIx5cjGhcphNdaqETXhqpF1Gcq7zjWpRdXfVN1z7kP1PQ1/0djb+C+N/U1faB44/7kguulbwEA6cWzWmYsQP99T92xxbBY8bjpBXmktBCCYftZPb/tGmN72BYD4XD+j/e/6mW2fGGa1v2eQ3XlDP7uz3CC7Pdkw77qrQW6HgM29LYi7+2bfU+VPMtjvESWd/jtKOgP+XnFjJ1XeDAYIvTDU3oyEQ+z6b/X1qEFPHLEvL9rvm95Ckjn8QZow2JnH+wP5Rj4moG/dIL0umeWZTfwKjyVMUIQuCW4ZttK/RFohsNRUMah897qdldVKIVWfKIXW/FM5rPor5fDaH1Qj6rjrI9UPXCLBgYvchBuC6IuiaY5iL7E5p4jBwOZ20gUMumxWuINXSC/pKukmo/EBgjAVAKSxKQuhQ63c5KNwBm5mWjaFsmH2dW7qYqO8m9xMtWxqZeO8Lvyv/Rf97Pb/GmR3/Mcw59qnWN41yGzPFWa2bRVmXl0gyLs0it36x3+kxx5Ewa+WdfnJwRVyznYGfV19O5SqboZxMFR3hdP5D/dSzY2IA5UdHgOOkzEFqQC9w6pul2dLpI5PJsofUORXeXBIr401AkU/c3WDiKpPpRRiVvH//s3BbpyVd86XWOVdunq1b2mAvH9Z1drAiv9TCCj/ViGw4ic2uLVyOJsr4RypRJ4jVYgt2VwK3E/c7Eoo7jpJdgEMm6oHOsDmomKTj5znJv7SiQMY8b0OwU0ZyLkEAIFLMDi6XYLNSstcgk1ZzAARQSKSQVYHYAAsOSJQ2NTL3ATsWQyi9u+Mcq59YZDZ1qWf2RoHRxGqZ16ZvD7rw95rCR9j1H8YPLSsLdAYaeJa9c3QX9Cb4GCovxNFtTcir527saf3Jph+Qa9Irol27XZ50e8R0RWSa2IfftglAPAOnOAaI4ltgKWNX0sRD4q3Xc+MWb695O2V3iV+KzxL2lZ6lfzAzkrKs9PUgdW0lg0gzga25n/a7p1WoM+VUNx1kg8CQjQTXF8geuaQvDdt8FAIu6FgrjEIGH2lnwlImKMAEm5idtFzP+oeavkrq0NQd6wzyep6InVHZUf4dKSK1OobYV823N2FNBFJje/tYWBYDTb5+qS1MQr4Yn/NvtSTlNLQCYg+MGTII9zrIrZ6z0gQlSmNVDGJXbOgEOvB/+uRYoVL0YRlLqcNlrkV5i7dUfjtSu8ybrRTNjQxJ98yWsMGtfbv/kWznBR3sqHw+wMhmnREdNGsCrsaqg8Q6mxCr/1N/YFgUyTeA8RALtEPCg4ICGmEqRuMXgEGHpK+YumGAdKrTqSitga91FZz3cRm1g1/rOM1pKY6vl7dFeaInsTHje/tpqYP9lL1jcis6pbdA85mN14+egYKxgauF6GY+ANcwYH/18OH1NoDXpOU02Av0d9Iro1T559+qFjiWD168TZA4FJYvNSl4JcVnmWiUWO5EUmLuXGL2Q9Yq3xKaY0v+0WzTDSiPHe9A2DovhKKmzzjHiDYxbOAQRUwqLP7LBgQzCHYDG8AQgAgBH2AYC7BgOhxCVZc9oUihc222wtFPzD6agBIup/ru47+IUCSASgyOrHNli70Ztx0Ylse+2h4VddDNapuhHdc+Ggf1d+O+nN9164Bz//MEsS9KSUfEzVJJRN1X/TNCfIxK/h/PXxMVIjRRHr4EhtqkVSMf+ClV93xjuPJpYu3njq0dPvpH5a7l/GjkBbSUrdCbohaBgMbtxipQvSLJg8Eu96BAcHmYFgXJLoaqi8QPeniV4Dgpvw7ABiYQ0DcJKpQb9q4p5a41ym6oegDRg8gbHJzNPh9YsXpPeuKtoH/pXeSPptnO/lqpU7SFSO13I7HOiBaxa3w1XCF1it/iaHarl16/NP3xaS10VaTVbNYvXBq0soDj37T7yz5OAm8uAkwnJKQ+5WrbPhY6Zb/1mLHY45Lt566s8K1lJY6n+EGnYQz9A5NCyCW9wGiZ2RzwMDSBQdDd7rgZk7pvVZSaRAg2I03PSmDAcGlDADB3Z53r0tgeS8U/cDgi0wODB6OvoAMJn49tj57Hfd6bEukq0gn19jya92Ey9Hayc2P9RR99c1dq2pv7Gqv74qKGGwMCKQGdDHj/gO3j+SfevQACIeYxfB/DhqrNxSOfNvx+L7Fm0/+d5lzMRs1lht0Eu5Ay3gglvNALOUHsO6GodcdIK5+EM2UIrpWsqKnfui5eJaljG4guMvr+fstdgMM3h24iVW5wlLkEJrRbOZYUW+jGwpummFAoR3PUocofegc5IvNHokaVC+ZFZ6Dq9tdROv3vl6bbY+lpQS2Xhsn7bgLR1Rjmx5r2qi/FbWu9kZUTM21yAn8U/1CanWMDLqUeagdRCO0/JaQUozVkVYc/GoYFuxE00KHY4nvbD7JjQ+5ePMJWroF6h6BlAHBuQOAYDD0OISohljJQQEgAMUadkUU3EE+AFCwKXv46yVZylBmUHT3MAYCovv2vD2NnEv09jSYS4iKS5Y+uqFgKQQN05M+tDmh8dBwrPG0WWNyPRE4SA8cg4ut1934bBuc2Ou7t4+lbiIDpgVu1ZSsnfRrM8g9etR0RSyv/3RgB2ennqUUYvTYKWr+qUePqYrBQ1kBwv95X7D/ve1wdB8bdxC1Ai3iB5rkgHA62TMk7TIAIRq4ujdlrAAQK/iUwYBYzaeMNehh9C0o1/UBgnMJljLYVdV82lCJ4O/IYl3PvnUEdzNOI9fb4KDonl+62yn48xIMCC59MMdgDQcxt2BwcEUnD0h/DfwcBxS/DdF2Lop6NWz7LFXhPXXYROvxl7/WPNBkyx/GJx5ycsFviK1OHznkSU7ussA2T2+B3eHvF208yQ0yuWgjG3kUMAAIbihaANHjEDwMLF10F5Td9YPIHUpEQLDZagBET0HZnTL6AtEnbbCp+tjl9iKXAAxRAIFpN2oIuIQ6dy/Gee7GHM39F7jJxhkM7Awmk2i2fiY0IDdDPRMalqWPeHzr0dAi8d9yTn0f94qlHi3u9aJeDDfLPQ8BOynGFbYAUjepg6WxMsHu+l+9BP6FiYUeucPnr89rYAOELtxwlBMHBHMHblzi+91hGYBgKaOnfuB7GCxdrGJAwBlEGhwI1u1UZtMchgCEUIAQBhDC2ZyXDaQWCe0CBFFNgAF1wx42L2c1rYsqIsWoQlLaDe0p4qS8t5iUIOV9TCWkvL+EVA6UclLmpRJ9llcpqcdUkC4gEQlw9DwWiQHEpAWomDjAYpoBHoOOwccGIBENQiKa3LzxC9U95wftAbxQMd8mR3G+zeH/LrQ/TgvsjvTCsJENJyxKFYMBcW8PowcIL7gEgwEFpWhCrb5AAIZA9C6C4A47a9DLqKSVwadpQVAqyQTtp+kBITQlwJck/XeQmN8mEvOHAhxpXIADjQ5YT6MD7Wh0kD2nMUEbaOzODSS204HGBW/kJBayicRDHUmCKWQzpwlhUOgWmghJhm2lSeFuNJmTO03BckaEN8ntCqeFu/bQgl276e1d+2lFVBqtisqk1ZDyvkIetrNcmmJ3l6uz4hbSTuxAb6jRmT+cL3AEB7863/aw3zzrvJ8X2B0VwWDfFwhRqhABwaeLbb3pYiAgWP0wEBBrfNn0ihUAopzWBJTSPL8Ukvb2JjFPWxrjaUojPA1omKceDfXUoTc9teh1LwG95qXO6VVvDXrVR0Cv+mpCWpA2vQK95q9Dr/np0OsBuvSnQD16gylIn94MZDKgoYGG9FaQIQ3nZEQjgoxpZLd2GtOonSY0GhoTbEbiwdY0PtiGJIJtofU0EWBJBm8i6WBHmhy6naZAU0NdaFqIG80M8SK50BCaHxpJi3alkn3mgdJLHzupF7R6rspv85Mou+v8Zn198J/YD1T8kX4BgsFgnRsxzyb3J26I4fVsCOH+QHTXDhwQDIZ7gOjpbvJAsIKS62H063Ky09bltMznFE31jKSxbutplJseDd8hoKE7VGmoG+SuBmkABAEHw1AmL4ABveGtS29Cb/igsX2F9Dr0hi8a3E+fhvoZ0Fv+hvRmgCENDTCitwJNOA0LNEWjizQiyIzTqJ3mkAUAsISjMFlxGrfTGu7CC0CI7+yVxE5bGo/leG5pSxMCbWli4HqShjNJBzrQWO9NtPW484/lXR7/OdXm8dnpds+/nmnzvgOVFnX4HCxq9/Mu7gxSKWr1nVV2KXgUA4U/+s9ZsAEorfL85axyf+4eb3oBG4OYTxeL+HTR3bPomy4GAoIVlD1AwB0YEKu9ymiFdzHN9ogjMRcLGukioBEuajTcVZVGuKrTCADBoBjmBrkzAQIPBoM25xKcvHRpKAcEnAN600cI6YuA8IUDAIih/gCBCUAMC2BAAAJoOAeFGS9zpBYLXoABGhcEGCCxIGsSD2IA2HIav3M9/l5P44PsaAIne5KEJgZuIElICpqI1DXRZwN5nd5OVbd9qPi6D5Xe8IPYJW/sOkjfX4o7/H4obvf/uqQz4POSzqCbpZ2BmeUdO20qWoNnFZ73Gsm3xPMRc63yVspZ5XzLBqNm4xD3cwcGAwdEb1dzoPqhn0MwIFi6gFZ6nKWl7qdIytWLRm3XptHbVWi0sxqNctagUS4aAEMDQEB9gXDT4oB4y4PBwAPBYODEw+AtxBICEEN94AwA4k0/I0ABEKDh/iY0HECMDAAI0AhOZqg34A6BcAZoTKAlp7GBcAcGQyBcIRAwBCFNMMEBJOAA4znZAQImBgOgCAAQAEHc14EWhznS/rMuVHKNv1S+zYu7OppdDFtyDWBcD6CyLnav5U6q4K92wvKn8ms7/1NxPfRoTXuo0mA/Tj31YBOPwBnKFtjl84NSDwBEn67mYED062EwZ3AroSVuJ2iiszON2KpKo7cxadCY7RqAAjAMAIQIChEMw9y1Ob3lwdyhF4a3GBBePAzeDAa4A4AY6ov6ABrmZwwhTTAg/AEBNIoTQGAKMEchChigsQGAARoXACACAAMkHgAgoPEBcAgUrOOhCZzgDv4Awh8w+MMZoLEeG0iY4ERHmt2poL0/DP2vjvYnOAPBFXgYQqjqVhjV3IqgyuthP9bejMyqvBW1hG+SZxvz1metkbXK/XiB/UmRO/RNF/bdxeQ9QPD1QzcQ3BlKHoiVO4poyY4CktzuRsOdlGmUkxqN3qoOAYQ+QIzuA8RIADHSlQGhScPhDpw4IHRoGIAYBiCY3kKR+RZgYBrmpY8l5A0YfAADNMzXmIZzMqERgGIkJziEH0DgBBj8AQMnuAM01h+pwt+aF2CAJPzhDNB4fwABTfQDCNAEP3uS8ttA4t72NDNgIwWfceZcoecmmgfAILoodieV85e91dwMp8b3oqj2ZsTHlV1hds9F0TnPOldXzvrw3fkbTsIZ2DwHeT1AvG3fJ130c4j+QHQ7xHLXYpqxPYpGbNGikVtUAIM6p75AcDB0A8FDMQr1xEhXTUgLUEBu2oACAhDDPXQ5DfPQ43odwzxFMIiEVAEghnmj1+CDVOEDd/CBMzAgoFG+cAZOgMEXMACIMX5wBk6AgROA8IM7+AEGXuP94A5+gAGSgCb4AghIAiCM97Sn9Yec2HB/dKqtzx1VjwBD5fXQnkvfzr27m6pvRnxV27XrYa9rfLKBYnLtPKu8cuYOCzcWEDejDXMHdDvf3tAHCAbDIEAsdy6i+duzSXyLLY10VKRRWwACEw/EKAZDHyD6pw0BLwABGEbu0AYUEIAYwYBwZ0CgF8KA8BDScAAx3BMwMHnBFZgAxAhvYxoBIEYAiJGc4AzQKB/A4IMeBQPCF87ACSBA4xgMvnAGXxsSg8QhCV84AyThCxigiT52JO5lR2Pd7UkvZjNlN7rS6XZ3Otn39rrfCEP1jQhquBtFNV0Rn1ZdixCNDv+sY775oQlyNnnu82yOVKHL+cuizcX0NneaWjTvVXcPo/uEFKduIJxOwR1KabZTJI3chNTgiGLRkYehGwi2ZDAwp2BAsMc8EGMYENs1ORhGwx1GumpzQIzigNDBY10aCSBGuAMIdyGNABAjPPQBB5MBHsMdvIxohBdAYPKGM0CjOAEGaKS3GY0BEExjfeAM0DgfwOCLItKHCUBA4j5wBk4AwhtAeK+n0R6AwsOO9OMdKbnWhQo63Ci/5fHBUIsaovHubqq7GZnJrpfkm+TZxwKrtEly1rn2822Ppy5Yf/gq9M07m4voHSdocwF0ilMPEIBhmdNpNk8mTdnsRiM3rgUM6jSGwdAXiL5g9DiFCIwxXD0hgACDM5MWjXYBDICCE4MBGrFDD0vITSiSuz6NBBAMhhEeSBUe6FF4AgZeozwBgxccwsuURgOG0V4AwgswcAIQTN4Awhvu4AUYIHFOcAdIzMMW721Lc1BAbsreTFnnnQECuwN7x2OFoYa5wx3AcGvX3+sHu4/iWYacyYk3FtgdXrDA5rBwgf3hbQvsj+yDypE2OpEy/rHYiZ2JPAtHKKYVzmW0YGsejd+4gUZvWEejHdRoDOcQaHSmzbwGhYIBIYJBJMDAA8HJVQdQ6IrEAQEQoFFu+jSKAeFuABmKBCBGehj3iAExkkHhCRB6BBigcZ6AgclLBIOYJ4CAxrjbYPvWNAXOoB/nQOElWwCAM+W3stvxXZ8MDHCG2pu7vim66DfgNQ3PVQQPCX5VziZnynyHowsX2x1b+7bjEf1Fm/LXv+N4PHTJpsKYxS7J56a7Wvx7vIsqjUXDD7dT4zRiAx478NoEAY4R0EisMwJQjOTAYEAI4BJMcIZtAIEBwUEBZ3ABDC4AgclVj9NIV8DAoHADCJwAAiekCyZ3wMAJIHgwwR084A7QGA+kC2iUuwWnke6WeJ0VurpWJOlhTStC15NV6kYKKnSkzKatdLKNDdKxnY5eedIwRH5d2RE86B3yz31wN9PoFA+zOOimaHtU+4rNKU0yy9Mgkyx1MsxQJ/V4DVKK1qA1uzXo7VABLYRmBwhovIcGTfDUIDF3dC3hDCM2Y7kFvQonFJFMW1E7QKO2on7YpkMjOCFVbGfSoxHOkAtqB1fUDZyQJqBhnNCzgIa7oqvJCT0MV1OkGSYz/M8M729O8wKtaHmoFanusSGTRDvakruBAgs30oFKR8q64ETHW7fRkZZtPcP4PFkYWDcz8pPBb8Z9gaKehgz1qlHLCbygTV5VGuRVrUGeWLIh/ti4j9uLNWhLoYA2nxHQxtMCsj2hQeshG8jqmIBsjmiS7VFNWn9Mm6zytMkgVYeEyTpY6kJ6ZJgqJKNUfTI5pI/HBqQRa0jr9hmQ0n4jUoZUDhhjaULCg6ZknWFONpnmZJtpwWl9liVkRVuPWpFvsQ35FNlSUOl6iiy3o32VGyiu1oFSGjdR9qXNdPjqFsqDcq6IJh7JvfzkYWD3T9TfjsLfkYc+fJ4KyN8T28s1XLzqtbhxHl35cR25MR8hNzb4Z7cqNbgxIZk8Ia8qAfmwEWGrNcm/Rpv8q7XJjw0EWqFLAZW6FFglpKAqfQqGQqsNKKzakIIroQojCqk0plAovMqUIqrMaU+tOR2ot6Doc2zsRzYYqBXFN1pTQqMNJZ+3pUOX1lP6RTvKuGRP6VDGJQfKuLwRy02QaKS3zItbKOvS04PhHNe1jPzi3O3QZfyhfPHDrUL9bddyjTYGRDcMD6MdZQJyL9PsGRXWG/Kr0iH/KsAABVazUWEBQ41oVNjwWkOKrDOkXfVGFHXOmHZDextM6UADQOAEGNhAoGyY4EbA0AQY2OiwgCGxaX3PgKDJ0EBjQD5NGOpu76L6O7uQKsLDUp/6XJpPMNhssc4l6jt2VAp+ZAOADtTwA2kgGHqHCGZAiJyBARHCnIEbItiQImrZMMHGtAsabJjgGDhDHJyBjQyb0PR8wVB/G+nhDtLDjfCC+q7gZzeUABtZVE730KxJK/Pf4p96LOGWv/ItNPB+wPCDR+3DAfG/CMO5d3cxV/ge7pBfcT38iY5/+cBY4uj4uoxBqslsYZo/O6fAP/1YIjhLcajLWfW97jWan7MhgN0qBQNC0K3/FRjOdu7kbslveD8KdcKuf1fdCN/13PyMPVM/ZdUcYdrnMnopXo8bCDZ8sPNZ1Y0uZeqtHjWiMaP7Fpb/azCwn7AbPoikyhuhbMCOq5XXwqwHu/P6mQSbzmiOXur7MvoZ387VS3Nn4y/w/3psgaJylvNZ9YM7KgR3ucHCOSj6O8UfGQY2mHjd++FU824YGxT0RkVXyJ7qruDHfiPv7w5JndRhc7STk2WNcmmOfsZXs/VT/dhFL/y/H2u4lAnkXUrVE9lA4swpvBq0yQ1dyj8qDOU3A6n2/TCquMUuatnZXtIZFF/cFvR8dx1n6SbpyOilkaxhNs0Rpv8wRz8tZaburwxD+zsDUCxzLVPf6VohqHY9q/6F7wVd8qrTJs9KuMYLDMOZdi8que5PlXeDqPbDUDb836dIEaUlnf4+ZR2Bj3V23CcWM4UHJ8/RTbnLJkmdq8+m1c1mE6A24O8nOk60S7HqFBSZRu5VGtE7yjQa3Mo0vww8L6SARiH51+mSXzX0nMNQ0OFJxTd8qOLdACq/E8AmLfsnnKGsqN03tPSav/YL8aNT3+DmYNZJSpgrzKQ5uqkkI4RLGOXRXIOMv8roH9o91yDlweMN/s7YdlZzDlKFrluplpdnhVY23KHNp1Ln59ALhhTSZEDBDVjWMRlQCJuKqPYpwXAZMFzZBhCc6VibC53scKOC6wDglg+V3PalEy3uX5xscW+AMyQUtHptAQwaZ664P9tu4u+NOVqJAhmd1B/ZLKpwCZLRS+XSBpuKV0Y/vRHpw4Zf9YmHT7XqaI9K7fnelTqa0Ga/Ct29AZV6hUFVwutB1cLPo5pNaPcFNg2RCcSWgADa1wQIGgHAeQBw3kqkRiuKZSA08SCcBwjnRSCkNG+gtEsOlH55E2VccaTMK5spuwWN37qV8tgPVB0AoNOVTt1wAwiulHdl292jV5ybjl1xyTnRssM3//KO9fktO5TzW91mPb/3RPyGkFFNkJqjlXxuLpsFVztF5BAAAiDQXFZcGqR/Nlc/9bCsUcajDyHzO8O5TPCmV5WeVGC57rygav1VgEIjrEbfOqza0Cui2mgPXCEf7nAiqs708t56s7v7zpnd2gvBGf4Vd8GaEi/ZUtKl9ZR8yY5SLsMJLm+g9JaNAMLuazhDV/J5h1tpzQ63Dl3YdDet2fEsnOFIRvPmjOzLWwKRJtyQHjTzLruoHG11WnjsqvPM/C63Rx85ZZC4dDd4VHOz22M96ff7w+TEa7O1Eu3m6hwiGQYDm163GwgmwyzUElmA49BHcwwy0PtIf+YFETv1HVy/fuj+egvxyDJjiah6s2n7G83m7DlnMZsp6pzlggMNFstjGq1XdCuRV8pF+xVwiUWJzQ6zki9unp0JpV3eOCfr8taJCZe3iaW2OI4+QY9n9vvBou56hEbNjShrdrcV/9TzE9O0EqfO0Uyql9HNoNlaySSjcw8QcAlZoxykjnQo7c9zDA8lywnTFikOMhb1yxg8KjvDFWpv7LrKYHhe78t8ZZYgcYOMduovSBk0G+4go9MnZTDx0/TPNcqGUxz6RcYw/Z9zjdKLIfW3hVlj+O28jF+J6hvhqjU3Iz6svRlZUXVrjxT/9PMXMhox02YLDtbO1c3k3IFBwaUNQNEDBDQHUKC3AacAFEYoMg0zvgYQV+aaZDvKmCVPe1Inrl7kKCtzfrP6epht7e2Iv7LrF6q6IgedDei5iTkaCRvnaB36gc24z8HAoGA1xIAugRqDSx+ZgAJ1hVHGzzJGhz6DY2TLGWcJZA3Tp74EY8iQkjsR0tU3QndXXg/79srfotllbqcrOwafDei5CdazmKmecHqOdjo3NT+XMngguLTR1yUABHMJERSHkDrgFsYAA5I1Ya6RcVvGKDNmrnGWtpzxoVkL1fb9T4HB7oEovRqkVNkVUnXubiSd/5ANDRzxRVVn2Isz4st0jaS1M9QPfjJHG8UkAwLiisp7XaLbKbqhMAAQTIasrmBgZJGsaQ6USzLGGdfnGB+KlTPNspIxSl8qY57+/ObLxxCFVwJlzl4P2l12bee3tbfDuQlHmj7Y82P19fCEsruDD7r2XMZ01YSwmZrpP8zSTKFZgoMcEP1coruW6JM6elwCQHDioBClEeYUcmZ5JGd+mADD3+eYZhTJmmV74n9COZOsReyOroeaUOM5j9OXvCeVdvpvLbsedJVNblp5M4QqrgfThY/ZZCOh7aXXw2T5VV+cmKm+f/J0tYTSWZppNFPjIICAOzyESzAg5nSnjb5Q8G4x1xgyYY6RR/Mt80nWLJfmmmZ2yZpknppjmrkXj7fONc82kLPIXi5nfWiWzIbCkb82tfKjxBLH4mGshpExPyolZ5UhJ2uePU/WMlthvkWOlpx1rgCPNRdY5akssMxcIOdw6JFOLp1q8Ztb2OGzobjDr7TqTghV3wkVXd3UuZPq7rKLXiM/r74RtoFf/cWLaWqJK6arxX80S/MQzVBP5IBg6gai1yV4MHrSBqBgSwDBwOCgYIAYshQCcW7BwMAS9YUcgJCzOEJyVvk03+o4g+O/0E1Zs6w6GfPs3LlmmfFyFjm+cuZZHnIWWVbzLLKM5MwzjOUsc03mWeYYzrPMWoN1VWQtc8zkrLKNmeZZYx2bXBM5yxwPNLSPnFVekKxVXqasVU4WVCxrldssZ5l9Sc4q90Ns5z9YfobX/3ueZfbf8Jor+Ps4e8+5pnm/OjHYyYueC8+0+XgUX/M9f7aL/WoZQqXXeq9uqrwRQrV3wn+u6AxJrqcX/JzMNPV42xkaSZ/PFKRxQKCWoFlwitkMCt4tOJdgbsHA0IVT8GmDcwoODkDB/SraxzEABdJFDxQcIJxroAA1zSZZ8zyaZ3GU5gGOedaAZP1pmm9zkmTMs74HHF+g8b+UNc+Bsj+HbsNNPoK+xuMv4SpMX6Bxv1pgd5oWbjhDC+wLaL7dKYgNPXCC5tliu0w2eA/rIyJZHeaW822OidaxOY79yO6Qscyy4w8HF/ltzhInWtytTrV6JJ5u82opveFPVXd3UvE1Pyrqd3VTENW9G8HmprpYei14Bv/yFzmCX52uHBc+XT35uxkayf2A6IZitpbILRgQ3fUEB0WfekLkGP17H+xsJnMKzjE4MERQ9KQTXkghvJBezFCQmueSrAVzE9QgTFZwFcvDEB5zYo9FkrVg6zO4HkZs3V6xbc+zBoCmef9cty3Ztei2s/DoVZe9J9rcK0+2un9edjeAzt4OoMLO3ota+sLAaoaz13b+tfha0O+eBei5iRmqqaOnqMQfmaaeBBCSaLoaA6IPFCgwOSi6geChEBWYDIp7wGBAwClkhGh4fTgBkyETGp91TxkMfSTqrorAYJIx6QsIZMrcBDJjsNwv9nyv0OW9RyhkIQDACZCh0IX70GzTGJplFkKTDD1p5TanL7MvbP9bYZcXld7xpYJOLzrZ6klwBjrT7n0fDJW3gtkYTv+EI5jyh/GPE5OUk6Unq8SfnKp6kKapHewDRC8UPUDwUHA1RbdbcIUmgwMg6AECQDFLuJtm6AfRNH1/mq4fSDMMdtEcgySSZWAYMDhEEp3UEonrmTDx5zN6xFxjMJkyocEHVA5eizRmEkezTaJopqkfTTPZTpNNNtEkE1uSNjYnCX19mudgTrtPO9PpTnc60eLGrmUYFAY2qBfqhe9QO/wBBg0dJKYq7p04VSXhxLQeIBL6QTGTQcGAGAAKUe8DNYROAk3RdaMJQmOSEOqQmFBA4kINHHABSRjo0ngDQ5pgYEZSBhtoioEzTTfwoRmGO2mW4R6aaXgAdUZSP9focQ8ekn6A9Cid5hjHQAdolnEEzTTeSdOMvWmKyTaabOxAk4xZo1tzDS9lbAQJSdJYj6SM9CHsj74RyViZkW/GFjrdwUAYHIazN4Ko5HrAjyUdgUFdXcGP94rz5y2maiVOnKwUf3KKaiIHxDRVBkQvFKwb2tMV7QdFKs3UjiFJHUsap6tCY3TXYrmWxuopQIo0VqhIY4R4rI/n9RUgJRIzUCVxA4BioMmBImGgR+MN0TiGRpAxTTQ0I2lDO5I2cqRJ0GROmzlJGVmRpJE5ZMFpopEJZAoZ4W8DLPUhXZpgpA3pcI8ljQABDwCTJLeuMY0XimAIyPp1GNjUx0Udfj+he7kz/7m7TuEJhQQcYpJyfP5UADFVNYngFj1Q9E0dDAoOCAHcQZBIkto2JKaDBtdRBAhKPRLjNU5PCVAwKXNLBkS3xuqvAxwMEPzNSRmPVQCLGokbqkOAhhMcxhDw4LG4kej58XhuPJ4bb6gFiND4nHQgPQAlhAAGJMnJgJMUoJOGS0kbGJGEjiEttDen/YXb6FTbwDCwHkVRp993xe1+gVl/lDupHzZmqO0bD4c4NFn54HdT1ZI5IDgo7kkdIigAjKY/iWurkJi2AoSG1VlH43TQqDwQY/llNxTj9JQ5iQEMMSFeB4nrwyk4AQBO6gACDQ5JcA7CxNINGt9Ai5c2LzR+j+AI0EQ4jSQ00QBAGAAEToCBE5wBkgIMYlqGtNLJkrLPu9CJVjaeUy8MBTwIhR3en51p83ZgY0fzh+h/KyYs3Dd8smK87xSVpH9PVUuhKTwQU+ESvVAc5KCQ0nSgcVoAQEtRBENfDQqGCIhxeiqcRFCoQgABkhACAkhcHxBA41ndwQnOwEkLggv0CCD0CEDoAwROgAFFIpMkt0QagaT0AYQegNA1IrPQ9XSqg10VzSSC4UynNxV3+TJnuFvQ4WfIH5b/7ZBSijadpJzw3hSVgwAB6gMFA4JposCSxDSRHiAxTQaFSANCwYPBYOgVnAFAiOvBGTipAQo4Ay9WhIpzxShgECIl9AipQQgQOAGCHgEGaKIQ7iAEDJwAQ4/gDpCElgHJWprS3gInOtHWCwO7RL6gw+vnU62etYWtXs/HkH3PS0grxy6UXhdXMEkp8bspqswl4nmnYHVFAk0QWHEgjO2GAeoLRX8wAEI3FDpwBojBIBKcARLnBIfQAwiQhB7cgRNg4ARn4IRUwQmpQk/nHgEIaKIeQOgRnIGTAU3QgTQNyCjQmk60i+6ZYGmi6CYKxmten+Vf9Ygta3OW4A/By+gbUxVjxkgqxvpKr4t/b4pqKmBIoinKDIp4klJ3pnECNLqAucM6QMHDwC/7uYUWYGBAcAIIkDiAENcBDDqAoUeAQRcgcAIIkDi3RM2gC1fgBGfoEdyBE5yBE2CAJuoiVegCBF6SuoBBR5/EBfr0jq0pxZ51omMtLnSmCwVjpwe7iaYl/4qbNf+xX8avBZsxT1oh9uikdfFfMihQZNJklT0koS6kcRroOgIKMQ4MERQ9LtH3MYBg4sDQAggMCK4ARarQhitwAgwMCB3AoAMIegRn0IErcIIr9Aju0CM4g44upwk6gIETYIAmAISxGkKahprBN2MjnbruSgU3PSm/w+3jY5d3xBy77D6H/6gv42Fi1iznNycrxthNWhdXP1kpkaaoppGUagCJq2sCCHkS0xAB0a1uMHrhAATQOE5wB17imoBBEyBowRkYDJCENlIFE0BgYjCM5wRnAAQTegRX6BGcgQMBzsDDMEFbSOO1hDRGXY9kTIzIKX4DFd/1oGOtzv89fGX74SMtrhr8x3sZvyWmrI2fLqkQ4zJpXULdZKVkklbbCSB0aKz6GhqnjvpBHQ3PxKAAIFwq4YHgoBAABiaAIIIC7tANhCZggCQgMcAgpgUYIAktgNAjAKEFV+AER+gnuIMW3AGaoK2HtKBLY1X1aOUmMwo7tYUN+/fT0RbnUznN2yxzK61fXuT7uGKS4oFZkxTit05WPNggpRJGE9VtOBjGqSNtqLElEwBgjtFHHAic4ArQOAG6mZCYAM7QBwhxTTgDJKEJGDSRJnqEVMEJ3UxNbU7joQncEu4ASQCCMSo6JGtmRHYH7Gj3aYf/O9a5Lefota2mGS8LxCcXkxQTZ02STzWfpLTr1ARllx/GaxjDGRQABMSA4MAABLzGaiBdcIIrQOM0GAg8DJzgCpzgDJC4ADBA4gJ0MznBGXoEIKDxAoAASUBjVbVJ1tyQhAHW5JZu15lxfnNAyYfb1mW1u768D+RpxVTF0olS6xJVJBX9QqRUnLsmapgDCjQywGBpowcGNSUSh8TUmQAEWwdAcFBowBk4wRk0umGAOzAgNOAKkLgGXKFbPADiGtokiRSx0NqYdHyt/7Y92TZ7d5GDYdlHznL87r2MZxFLltDrMxVzZ0kr7VCW1nCJmKHj2CmpZvbTODV82wFDDwD8chwkzv3NBGfoEWAAEOIaIleQ4MQA4J1AXYsmYilraPiTvKPDXYG3Q6xllKnq7pNb531Ovo91XuuX8RhCIPjlzaVm+ydPVXWQFVNw1J2q7ZIyQ8+pdYqOzd8lVPS/E1PR/m6cqvL3YqoqP4irqf4I/STWI/WfxNQ18Jw6/qf+vYSq1nfSAuNvZIyt/7HYdvOV5fbbk9+x3aS3wsZMdsO+gKmVf395c88LFY6O9PrqDekjF1j6jpVUtBCXVHefK6XgryulFGw6W9c/ap6p50k5E69jcmZex2RNvE+9Y+cdJWPgazJ+dbDeBMX10+bq24jJO/mO3eC1Z2RqC/1xRl8dMIYM+X+E+LQKRPImTgAAAABJRU5ErkJggg==;imageBackground=default;" vertex="1" parent="DBPMjnGHVAKKjfrN9TNZ-13">
          <mxGeometry x="26.93" y="36.5" width="21.4" height="21.4" as="geometry" />
        </mxCell>
        <mxCell id="DBPMjnGHVAKKjfrN9TNZ-16" style="edgeStyle=orthogonalEdgeStyle;rounded=0;orthogonalLoop=1;jettySize=auto;html=1;entryX=0.5;entryY=0;entryDx=0;entryDy=0;entryPerimeter=0;" edge="1" parent="DBPMjnGHVAKKjfrN9TNZ-1" source="DBPMjnGHVAKKjfrN9TNZ-3" target="DBPMjnGHVAKKjfrN9TNZ-9">
          <mxGeometry relative="1" as="geometry" />
        </mxCell>
        <mxCell id="DBPMjnGHVAKKjfrN9TNZ-17" style="edgeStyle=orthogonalEdgeStyle;rounded=0;orthogonalLoop=1;jettySize=auto;html=1;entryX=0.5;entryY=0;entryDx=0;entryDy=0;entryPerimeter=0;" edge="1" parent="DBPMjnGHVAKKjfrN9TNZ-1" source="DBPMjnGHVAKKjfrN9TNZ-4" target="DBPMjnGHVAKKjfrN9TNZ-14">
          <mxGeometry relative="1" as="geometry" />
        </mxCell>
        <mxCell id="DBPMjnGHVAKKjfrN9TNZ-18" style="edgeStyle=orthogonalEdgeStyle;rounded=0;orthogonalLoop=1;jettySize=auto;html=1;entryX=0;entryY=0.5;entryDx=0;entryDy=0;entryPerimeter=0;endArrow=none;endFill=0;" edge="1" parent="DBPMjnGHVAKKjfrN9TNZ-1" source="DBPMjnGHVAKKjfrN9TNZ-3" target="DBPMjnGHVAKKjfrN9TNZ-4">
          <mxGeometry relative="1" as="geometry" />
        </mxCell>
        <mxCell id="DBPMjnGHVAKKjfrN9TNZ-21" value="" style="group" vertex="1" connectable="0" parent="1">
          <mxGeometry x="8383.27" y="6490" width="69.72999999999956" height="57.9" as="geometry" />
        </mxCell>
        <mxCell id="DBPMjnGHVAKKjfrN9TNZ-22" value="" style="shape=image;verticalLabelPosition=bottom;labelBackgroundColor=default;verticalAlign=top;aspect=fixed;imageAspect=0;image=data:image/png,iVBORw0KGgoAAAANSUhEUgAAACUAAAAlCAYAAADFniADAAAKbklEQVRYCe2Yd1RUVx6As2dPYkVBwI4DGrsx5ZhkE10R6diwQGQtSYyxrFFjjtF1FbOaAgxFOkix4RILKNhQUSMSEMWyogYpImVohiodlG/PvTijwJh1/9hz8sfOOXfmvvvuu++7v37nFX6Hn1d+h0z8V1AVtc1cuFEAra0vtZf6phbqG5upa2x+qfnqSS8F9XOais9cTvH+yoMMcQhjjvNxslUV6jU6/TY1P+bvOy8xaXU0U9dFY7o2ir8FJ1BV29RprraB34TKK6liuftZjOYG08NciY65K11MXdG382VLaKK29eRYbGIGb332T7pN9eS1yS70slDS1cwd242xnEy+/8Ln1DdeCFVUXs+fV0XSdYoSfWsPupm5YeIQJCWQraokI7+SM1fusy08gY+cj+L0TQwb/M8RfzWHa+nF1NS3kJSWj+OWaPRsdqBn5U6PqW4MnrOTkym56vdr/dUKlV9azSznM3Q3c0XfxgMDO2/W+cZzv7CKX3IrWK6Mw3iOP/1mBmI43Y/uZm6y9bH1pv+sIIbM9mf61wc5npQtXxp59g6jF4TSY6qS3pZKBs0OIuriPa1AYrAT1H1VBZNX/Ug3M1cMbD3RsfRkb1waWQXlLHM7jeE0H7pPVdLH2oN+07y0NgMbDymVPna+mK2OJKeoioz8ciatjEDP2hNdSyWD5wQT9ZN2sE5Qn7qcpoupG/o27vS28uTwhXTu5ZVhZO9D1yluGNh60P8pTF87L3pbtqlFqEbYTl87Tw2o6OuYKxloH0hA9HVaW1uZviFKmoKY++7KKPJLqjpJrB1UTMI9+s8MkCrTs/EiIi6NzPxyxizchY6FG/2nt0lGSLCnuRI92x18uGIP85yjcXCOxmxNBANm+dPb2gtdK3cNnJ61O3q2vgTH3ORBURXjFoW12Zi5krW+P70Yqra+iRmbjsmdvTrZlc07L6J6+IihDkHomLcBCQnpWXkw0N6fzz3juJZdSuWjp27eCnUNT7iVW4bPsZuMXhAiwdUqFirVtfUj6VY+t7JKMJjuL9X49tJIcgor24FpJFVaUcu7yw/Q1fQHPlwRQUNTC/O3HpEhQMCIpmPhzthFO7mWWUxlVjkXXJM54LibIx/tJMphJ1GOYSR6XKYouYCy+maWeZ6V3qtWqa6VB+MXhSLetcrjtITubeNN0JFr2qEeSqiDdJ/qwfGfM7iT8xDhTc8v+PZne8gvr+H2/jvsnuLP2WGO3FZ8QO6gUTwYPIbswW9wfvh8Qia4cNnvCk01jSzzPCNtU0hMqP81UyXbd10iLbsUAzsfepi747g5WjtU5aMGLNfH0n+mr9zJou2x0oXFYsK4B88J4BdVBWn7bhH11kbSTd6jUqHgofHrlBiPlK3UZARl+oY8MDBh1/D1xG9PoLqlRapS76m3Cs97Y1EoVTWNMob1tQ+T8e55Ko36xOCVuyq27Ukh5U4hBnY7ZEgQUCK+rA08R82DSsIm+pJh8g4VQxQUmYx+1oaOQWVgxK+zP6J64SLyDYw58N52VFeKiLuZK7OAtC87L/rPCpTvOnzhF7wPXX+eR/bbQYkRkbdiEjLQtfGRdmRo54nhdB9u3n/ImS3xXDSZSbnC+BnMU7BCQyPKFi6htaVFLtywbi1X9Sdw6PPDlFfV8+7S3TJwCrCe5u6s8oiTyboTkbbgKSY5hyWia71DurSIQ2Zr91NZ08iRWYHkGI2jxHhEJyiV/iAqVqzWvKPh0GEKeg8g/E1niq8XMXfbURlQBVS3Ka4ywWsmd+h0kpS4P9f5hEwx6gWE6irv/UrkZDcKFaMoNhnZCapI0TZWsWodlWvXU/LOB5QNMuLcmysoSC1l5+k0DKb5yo2KQLt4e2wHlGeXWqEcth7T7KrrFFfWBJ8n53Qm4W/+g0KTsdqhho6hSDEKld5AVLoDKBw8nHJjExLeXkHxzTJ+uqvCcIZ/G5S5EqetR55RdOhphXLadkIT+HqYubHE7SSNNU3ETPdBNXiEdqjnjd5kNMUmoyg1GU7U2DXkJqlYHXgeXeu2jCAS+JLvj3dAeXapFWr/mdsy4gr16dt4MswxkLziag457eW24k+UKYZ2Vl8HqFLj4WQq3iHcwp+K3ArsNh7SmISQ/sffnXhG0aHXDqr1yROSbhdyLDGT7lPbcpdMulZeHEi8R/qxDA6N+ZJi4xEyLrULCe2gRlGlMCJu2AIuB6WSX13HkLmBMt6Jjfax8yH46HWZbkRu7fhpByVKVouvolGVPmL8ohBNUhUZfeKqCJrrm9m3IIpLw2bKOFUqvXBUO6mJscohQ0gwmc6P8yJprG7kC9+zGtWJQKyYF0xxWS3fhF1k7tZTPHnSvubXQCXcyGXYX/bRzUwpq8eQ2OuyL3Ymmp6NN99FptBSWsuP8/ZxdPhS8ozH8avx65QPUcjYVaEwJlfxBvEjnAizDKckKY/42wX0sfXB0LatpBGeZ7/xIA8r6xjptJM+0/w5lZzVTlgaqNMp2Rg7htHF9AfmbY7mUV0jo52CNNISO+xt7c23kZdpKqkhwSWRsImeHB25gsSxC7k0djHnRn1ChKknh1cdo7WsgeTMEgbZ+2kKQmEK3c09iE/Nwe/wVbqJStTGh72nbmmHqm9swfzLKHpZKqWoL1x/ICe/avqscBN1lPCgT91OkppVQm3eI7LO5JAel8Pd49lkxefSUFBHcXktysPXeH1+qCz8RCIWVUaXKUrW+8XT0Ngs86EojQfMDiYuua1sVpNpJCUGvgm9SFczpVzow+X7eFhRx4aAC1KN6mpBqFKUwwNn+eL0fSwRCemkZJdwOauEmNQcPnE7wbjFIfQw95CFnBqop4U7HyzbS01dI5tDEmQcFGeAec7HePwimxJQucWVTFx16OmRyA2bryIl/Hr/83KX4hAhdizAhI10neKCvp03A2cHydZvZoA8QKgrArU9/nHSD0xauV9WBtt3J9HNzB19a3dM5ocTd7m9PYkXtpOUGAiNvUEfO2EH7vSydGdTcAKP6prYGHCeAfaBiBgj1Kh+Yd9pXghbUTfNuJ0oCpWyXlrjHY+o17aFX0LHyhtDWw9em+IuKxK56w5fnaDEff8jN9Cz9ZFgr052wfSvEeSWVJOeVyETab8ZvvS0eHpisfZADSYkKbxLx8JDPm+5NpKTSVk0Nj9hc8gleSAVQD0tvXBwjqWsqrYDTtulVihxK/xUOvrT/NCzUkqJiXNbZHw6j1vh7oMyvt2TxIyvDzJh6T6M5oWgcAhl/Cd7mb0pmg0B50i+XYg40IYev8X4xWGyXBEqEydlx2+OS+/WSqRNfc9PDDj6L0zm75I2JirGXlZeTFiyi01BFzgv/ugACkqrSb5dQModlTwbirGbmSV4HUzlrY/DpMH3tlDKckXhEMZX/hepbfjtPzxeKCk13I3MUqZtjJFS07HawR8nKzG0D8PzwFVaHj9RT2v3m5RWwPtfHOUPE13oZemJ4YwAZm85yamUvHbzXnTxH6HEgy2PWzl0IYOAqFT8DqcSl5LzovU04yKnfa48wwr308QkdvYwzUQtnZeC0vLc/3To/1AvK95/A9GoclphejwTAAAAAElFTkSuQmCC;" vertex="1" parent="DBPMjnGHVAKKjfrN9TNZ-21">
          <mxGeometry x="48.32999999999993" y="36.5" width="21.4" height="21.4" as="geometry" />
        </mxCell>
        <mxCell id="DBPMjnGHVAKKjfrN9TNZ-23" value="" style="group" vertex="1" connectable="0" parent="DBPMjnGHVAKKjfrN9TNZ-21">
          <mxGeometry width="69.73" height="57.9" as="geometry" />
        </mxCell>
        <mxCell id="DBPMjnGHVAKKjfrN9TNZ-24" value="PC" style="points=[[0.03,0.03,0],[0.5,0,0],[0.97,0.03,0],[1,0.4,0],[0.97,0.745,0],[0.5,1,0],[0.03,0.745,0],[0,0.4,0]];verticalLabelPosition=bottom;sketch=0;html=1;verticalAlign=top;aspect=fixed;align=center;pointerEvents=1;shape=mxgraph.cisco19.workstation;fillColor=#005073;strokeColor=none;textShadow=1;" vertex="1" parent="DBPMjnGHVAKKjfrN9TNZ-23">
          <mxGeometry width="69.73" height="55.79" as="geometry" />
        </mxCell>
        <mxCell id="DBPMjnGHVAKKjfrN9TNZ-25" style="edgeStyle=elbowEdgeStyle;rounded=0;orthogonalLoop=1;jettySize=auto;elbow=vertical;html=1;entryX=0.119;entryY=0.666;entryDx=0;entryDy=0;entryPerimeter=0;" edge="1" parent="1" source="ZOry-paT58BERrc_AvSt-51" target="DBPMjnGHVAKKjfrN9TNZ-24">
          <mxGeometry relative="1" as="geometry" />
        </mxCell>
        <mxCell id="oWqjnQT-LbrAj3U69QYy-8" value="192.168.1.0/24" style="edgeLabel;html=1;align=center;verticalAlign=middle;resizable=0;points=[];" vertex="1" connectable="0" parent="DBPMjnGHVAKKjfrN9TNZ-25">
          <mxGeometry x="-0.219" relative="1" as="geometry">
            <mxPoint as="offset" />
          </mxGeometry>
        </mxCell>
        <mxCell id="DBPMjnGHVAKKjfrN9TNZ-26" value="" style="shape=mxgraph.cisco.servers.file_server;sketch=0;html=1;pointerEvents=1;dashed=0;fillColor=#036897;strokeColor=#ffffff;strokeWidth=2;verticalLabelPosition=bottom;verticalAlign=top;align=center;outlineConnect=0;" vertex="1" parent="1">
          <mxGeometry x="8410" y="6910" width="43" height="58" as="geometry" />
        </mxCell>
        <mxCell id="evnr2yAesDjcKKSdun86-1" value="" style="sketch=0;pointerEvents=1;shadow=0;dashed=0;html=1;strokeColor=none;fillColor=#434445;aspect=fixed;labelPosition=center;verticalLabelPosition=bottom;verticalAlign=top;align=center;outlineConnect=0;shape=mxgraph.vvd.wi_fi;" vertex="1" parent="1">
          <mxGeometry x="8610" y="7030" width="50" height="50" as="geometry" />
        </mxCell>
      </root>
    </mxGraphModel>
  </diagram>
</mxfile>
